<svg xmlns="http://www.w3.org/2000/svg" viewBox="0 0 72.265 72.724">
  <defs>
    <style>
      .cls-1 {
        fill: #f37c80;
      }

      .cls-2 {
        fill: #fff;
        opacity: 0.165;
      }

      .cls-3 {
        fill: #cc4c51;
        opacity: 0.581;
      }

      .cls-4 {
        fill: #ffd8d9;
      }
    </style>
  </defs>
  <g id="Group_235" data-name="Group 235" transform="translate(-1298 -1268.542)">
    <circle id="Ellipse_35" data-name="Ellipse 35" class="cls-1" cx="36.133" cy="36.133" r="36.133" transform="translate(1298 1269)"/>
    <path id="Subtraction_6" data-name="Subtraction 6" class="cls-2" d="M36.132,84.806a36.132,36.132,0,1,1,0-72.265l.368,0V84.8h-.368Z" transform="translate(1298 1256)"/>
    <path id="Path_452" data-name="Path 452" class="cls-3" d="M569.765,976.994l13.262,12.135a36.673,36.673,0,0,1-33.565,31.756l-18.538-17.759,7.294-10.548.9-4.923,1.861.571,4.243,2.71a22.433,22.433,0,0,0,2.245-1.594c.156-.248,1.982-4.255,1.994-5.137s2.857-3.637,2.857-3.637l-1.492-3.574,6.75,6.438s1.594-6.481,1.754-7.695,4.658,3.794,4.658,3.794" transform="translate(787 320)"/>
    <path id="gavel" class="cls-4" d="M43.831,17.3,41.867,15.34a2.083,2.083,0,0,0-2.946,0l-.491.491-9.82-9.82.491-.491a2.083,2.083,0,0,0,0-2.946L27.137.609a2.083,2.083,0,0,0-2.946,0l-10.8,10.8a2.083,2.083,0,0,0,0,2.946l1.964,1.964a2.083,2.083,0,0,0,2.946,0l.491-.491,3.437,3.437L15.192,26.3l-.491-.491a2.778,2.778,0,0,0-3.928,0L.814,35.77a2.778,2.778,0,0,0,0,3.928l3.928,3.928a2.778,2.778,0,0,0,3.928,0l9.96-9.96a2.778,2.778,0,0,0,0-3.928l-.491-.491,7.034-7.034,3.437,3.437-.491.491a2.083,2.083,0,0,0,0,2.946l1.964,1.964a2.083,2.083,0,0,0,2.946,0l10.8-10.8a2.083,2.083,0,0,0,0-2.946Z" transform="translate(1315 1281.562)"/>
  </g>
</svg>
