<svg xmlns="http://www.w3.org/2000/svg" viewBox="0 0 72.265 72.724">
  <defs>
    <style>
      .cls-1 {
        fill: #f37c80;
      }

      .cls-2 {
        fill: #fff;
        opacity: 0.165;
      }

      .cls-3 {
        fill: #cc4c51;
        opacity: 0.581;
      }

      .cls-4 {
        fill: #ffd8d9;
      }
    </style>
  </defs>
  <g id="Group_234" data-name="Group 234" transform="translate(-1039 -1268.542)">
    <circle id="Ellipse_33" data-name="Ellipse 33" class="cls-1" cx="36.133" cy="36.133" r="36.133" transform="translate(1039 1269)"/>
    <path id="Subtraction_5" data-name="Subtraction 5" class="cls-2" d="M36.132,84.806a36.132,36.132,0,1,1,0-72.265l.368,0V84.8h-.368Z" transform="translate(1039 1256)"/>
    <path id="Path_451" data-name="Path 451" class="cls-3" d="M27.953,0,45.931,17.929a40.107,40.107,0,0,1-4.02,10.346A34.846,34.846,0,0,1,21.32,44.542L0,24.542s9.846,6.67,9.985,6.449,4.239-1.6,4.25-2.386,4.9-4.734,4.9-4.734l3.6-4.39,3.025-7.873s-.143-6.484,0-7.569S27.953,0,27.953,0Z" transform="translate(1064.506 1294.582)"/>
    <path id="shield-alt" class="cls-4" d="M16,9.67c0,16.75,10.289,26.088,16.769,28.787,1.664.635,1.721.407,2.795,0,8.1-3.376,16.769-13.763,16.769-28.787.1-2.35-.882-2.79-2.236-3.354L35.712.261a2.706,2.706,0,0,0-2.943,0L18.236,6.317C16.882,6.881,16.051,7.331,16,9.67ZM34.167,33.765l0,0c-7.1-3.534-13.057-11.832-13.308-23.293L34.167,4.927Z" transform="translate(1040.852 1288.374)"/>
  </g>
</svg>
