<svg xmlns="http://www.w3.org/2000/svg" viewBox="0 0 72.349 72.724">
  <defs>
    <style>
      .cls-1 {
        fill: #f37c80;
      }

      .cls-2 {
        fill: #fff;
        opacity: 0.165;
      }

      .cls-3 {
        fill: #db565b;
        fill-rule: evenodd;
        opacity: 0.579;
      }

      .cls-4 {
        fill: #ffd8d9;
      }
    </style>
  </defs>
  <g id="Group_233" data-name="Group 233" transform="translate(-779 -1268.542)">
    <circle id="Ellipse_31" data-name="Ellipse 31" class="cls-1" cx="36.133" cy="36.133" r="36.133" transform="translate(779 1269)"/>
    <path id="Subtraction_4" data-name="Subtraction 4" class="cls-2" d="M36.132,84.806a36.132,36.132,0,1,1,0-72.265l.368,0V84.8h-.368Z" transform="translate(779 1256)"/>
    <path id="Path_450" data-name="Path 450" class="cls-3" d="M66.094-123.6l-20-20.346L47-137.682l3.792,12.63L48.9-114.5l-1.875,1.7L13.808-143.152,12.7-138.384l-1.806,5.94-1.421,6.677,1.688,9.78,3.028,5.369,4.277,4.9-1.738,1.587-2.247.521L34.052-85.529s17.3-2.632,25.147-14.377A40.869,40.869,0,0,0,66.094-123.6Z" transform="translate(785.219 1426.085)"/>
    <path id="Union_5" data-name="Union 5" class="cls-4" d="M31.387,45.211c-1.317-.055-4.045-.2-6.6-.549-2.46.318-5.015.453-6.277.506a.734.734,0,0,1-.539-.205.641.641,0,0,1-.191-.516c0-.01,0-.02,0-.03a.756.756,0,0,1,.744-.661c.477-.016,1.168-.044,1.958-.087-.595-.194-1.027-.358-1.215-.431a23.239,23.239,0,0,1-2.886-1.355c-.059.052-.1.08-.1.08l-.021-.032a2.257,2.257,0,0,1-.421.154,9.346,9.346,0,0,1-3.668.2,7.752,7.752,0,0,1-4.2-2.092,6.158,6.158,0,0,1,1.344-.635,9.433,9.433,0,0,1,2.866-.229c.183.014.362.034.535.058q-.524-.433-1.024-.9l-.055.029-.011-.031a2.039,2.039,0,0,1-.238.032,9.346,9.346,0,0,1-3.647-.411,7.515,7.515,0,0,1-3.738-2.752,6.313,6.313,0,0,1,1.442-.4,9.436,9.436,0,0,1,2.865.248c.179.044.355.095.523.147q-.424-.555-.819-1.138c-.085.015-.179.028-.277.037-.079.02-.126.029-.126.029v-.02a2.365,2.365,0,0,1-.592-.039,9.1,9.1,0,0,1-3.362-1.39A7.118,7.118,0,0,1,.945,29.171a6.359,6.359,0,0,1,1.5.008A9.188,9.188,0,0,1,5.112,30.2a9.861,9.861,0,0,1,1.027.693q-.262-.56-.5-1.138l-.073-.007c-.086.013-.136.017-.136.017l0-.037a2.307,2.307,0,0,1-.443-.12A8.877,8.877,0,0,1,1.96,27.664,6.921,6.921,0,0,1,0,23.605a6.378,6.378,0,0,1,1.477.266A8.94,8.94,0,0,1,3.9,25.33c.185.158.36.323.518.481q-.122-.552-.219-1.117c-.057-.017-.113-.037-.17-.059-.1-.006-.156-.014-.156-.014l.016-.044a2.147,2.147,0,0,1-.268-.145,8.553,8.553,0,0,1-2.539-2.489A6.769,6.769,0,0,1,.058,17.593a6.249,6.249,0,0,1,1.386.546,8.635,8.635,0,0,1,2.046,1.9c.126.165.243.332.349.493v-.062q0-.769.042-1.526l-.033-.016c-.131-.031-.211-.057-.211-.057l.028-.044a1.9,1.9,0,0,1-.212-.148A8.364,8.364,0,0,1,1.2,15.953a6.735,6.735,0,0,1-.535-4.426,6.179,6.179,0,0,1,1.318.679,8.442,8.442,0,0,1,1.824,2.084,8.939,8.939,0,0,1,.521,1q.143-.737.326-1.458c-.029-.011-.045-.019-.045-.019l.026-.031a2.242,2.242,0,0,1-.472-.513,7.918,7.918,0,0,1-1.22-3.247,6.805,6.805,0,0,1,.979-4.36A5.8,5.8,0,0,1,4.949,6.7,7.993,7.993,0,0,1,5.981,9.212c.039.18.07.359.095.532q.292-.652.617-1.278a2.762,2.762,0,0,1-.68-1.2A7.754,7.754,0,0,1,6.06,3.819,7.157,7.157,0,0,1,8.582.043a5.431,5.431,0,0,1,.581,1.3,7.8,7.8,0,0,1,.043,2.7,8.2,8.2,0,0,1-.178.813,20.029,20.029,0,0,1,3.1-3.145.78.78,0,0,1,.582-.16.753.753,0,0,1,.516.3h0a.774.774,0,0,1-.156,1.072,18.432,18.432,0,0,0-2.859,2.887,9.531,9.531,0,0,1,.872-.39A9.059,9.059,0,0,1,13.87,4.9a8.528,8.528,0,0,1,1.5.144A7.337,7.337,0,0,1,12.052,8.23a9.289,9.289,0,0,1-3.559.853,2.178,2.178,0,0,1-.407-.022q-.466.88-.86,1.82a10.149,10.149,0,0,1,1.161-.661,9.3,9.3,0,0,1,2.745-.806,6.355,6.355,0,0,1,1.5.11A7.227,7.227,0,0,1,9.6,12.952,9.19,9.19,0,0,1,6.15,14.07q-.217.833-.378,1.694A10,10,0,0,1,6.951,14.9,9.175,9.175,0,0,1,9.58,13.8a6.394,6.394,0,0,1,1.5-.05,7.083,7.083,0,0,1-2.6,3.729,8.973,8.973,0,0,1-3.1,1.432q-.046.771-.046,1.555c0,.232,0,.463.011.693A9.7,9.7,0,0,1,6.3,20.125a8.915,8.915,0,0,1,2.354-1.549,6.328,6.328,0,0,1,1.464-.321,6.878,6.878,0,0,1-1.783,4.129,8.661,8.661,0,0,1-2.659,1.924c.1.565.224,1.123.366,1.673a9.231,9.231,0,0,1,.626-1.124,8.523,8.523,0,0,1,1.9-2.023A6.2,6.2,0,0,1,9.917,22.2a6.741,6.741,0,0,1-.7,4.406,8.287,8.287,0,0,1-2.123,2.471q.289.688.618,1.353a8.468,8.468,0,0,1,.42-1.054A7.83,7.83,0,0,1,9.71,27.219a5.786,5.786,0,0,1,1.228-.75,6.523,6.523,0,0,1-.056,4.357,7.522,7.522,0,0,1-1.533,2.41q.586.868,1.238,1.677a8.3,8.3,0,0,1,.09-1.233,7.5,7.5,0,0,1,.87-2.484,5.494,5.494,0,0,1,.954-1.041,6.642,6.642,0,0,1,1.247,4.2,7.321,7.321,0,0,1-.905,3.009q.774.733,1.593,1.386a7.7,7.7,0,0,1-.187-1.167,6.817,6.817,0,0,1,.29-2.5,5.013,5.013,0,0,1,.7-1.16,6.627,6.627,0,0,1,2.165,3.73,6.7,6.7,0,0,1-.2,3l.239.137a23.429,23.429,0,0,0,7.222,2.492l.136.021q.224-.031.437-.064a23.421,23.421,0,0,0,7.222-2.492c.08-.045.159-.091.239-.138a6.7,6.7,0,0,1-.2-3,6.627,6.627,0,0,1,2.165-3.73,5.012,5.012,0,0,1,.7,1.16,6.817,6.817,0,0,1,.29,2.5,7.7,7.7,0,0,1-.187,1.167q.819-.652,1.593-1.386a7.335,7.335,0,0,1-.905-3.009,6.646,6.646,0,0,1,1.247-4.2,5.534,5.534,0,0,1,.955,1.042,7.47,7.47,0,0,1,.869,2.484,8.179,8.179,0,0,1,.09,1.233q.651-.807,1.239-1.677a7.507,7.507,0,0,1-1.534-2.41,6.523,6.523,0,0,1-.056-4.357,5.786,5.786,0,0,1,1.228.75,7.812,7.812,0,0,1,1.577,2.156,8.359,8.359,0,0,1,.42,1.054q.329-.664.619-1.353a8.273,8.273,0,0,1-2.123-2.471,6.738,6.738,0,0,1-.7-4.406,6.131,6.131,0,0,1,1.343.635,8.505,8.505,0,0,1,1.9,2.023,9.231,9.231,0,0,1,.625,1.124q.215-.825.366-1.673a8.661,8.661,0,0,1-2.659-1.924,6.881,6.881,0,0,1-1.783-4.13,6.346,6.346,0,0,1,1.464.322,8.915,8.915,0,0,1,2.354,1.549,9.521,9.521,0,0,1,.953,1.034c.007-.23.011-.461.011-.693,0-.523-.015-1.042-.046-1.555a8.98,8.98,0,0,1-3.1-1.432,7.078,7.078,0,0,1-2.6-3.73,6.4,6.4,0,0,1,1.5.051,9.164,9.164,0,0,1,2.629,1.094,10.091,10.091,0,0,1,1.18.869q-.161-.861-.379-1.694A9.207,9.207,0,0,1,40.3,12.909,7.231,7.231,0,0,1,37.263,9.48a6.432,6.432,0,0,1,1.5-.109,9.3,9.3,0,0,1,2.744.806,10.292,10.292,0,0,1,1.161.66q-.394-.937-.86-1.818a2.248,2.248,0,0,1-.406.021,9.28,9.28,0,0,1-3.56-.854A7.333,7.333,0,0,1,34.52,5a8.528,8.528,0,0,1,1.5-.144,9.028,9.028,0,0,1,2.786.516,9.53,9.53,0,0,1,.872.39,18.421,18.421,0,0,0-2.858-2.886A.774.774,0,0,1,36.668,1.8h0a.752.752,0,0,1,.516-.3.783.783,0,0,1,.582.159,20.151,20.151,0,0,1,3.1,3.145A7.984,7.984,0,0,1,40.688,4a7.818,7.818,0,0,1,.043-2.7A5.431,5.431,0,0,1,41.313,0a7.157,7.157,0,0,1,2.522,3.776,7.74,7.74,0,0,1,.048,3.443,2.758,2.758,0,0,1-.68,1.2q.325.625.617,1.278c.024-.173.056-.352.094-.533a8,8,0,0,1,1.031-2.516,5.8,5.8,0,0,1,1.023-1.033,6.808,6.808,0,0,1,.98,4.359,7.919,7.919,0,0,1-1.221,3.247,2.228,2.228,0,0,1-.472.514l.026.031-.045.02q.182.718.326,1.458a8.793,8.793,0,0,1,.521-1,8.46,8.46,0,0,1,1.824-2.084,6.135,6.135,0,0,1,1.319-.679,6.731,6.731,0,0,1-.535,4.427,8.359,8.359,0,0,1-2.25,2.722,2.04,2.04,0,0,1-.212.149l.028.043s-.079.026-.211.057l-.033.015q.042.757.042,1.527v.062c.106-.162.223-.329.349-.493a8.635,8.635,0,0,1,2.046-1.9,6.249,6.249,0,0,1,1.386-.546A6.77,6.77,0,0,1,48.815,21.9a8.532,8.532,0,0,1-2.539,2.489,2.085,2.085,0,0,1-.268.145l.017.044s-.058.008-.156.014c-.058.022-.114.041-.171.059q-.1.564-.219,1.117c.157-.158.332-.323.517-.482a8.94,8.94,0,0,1,2.42-1.458,6.328,6.328,0,0,1,1.477-.266,6.917,6.917,0,0,1-1.96,4.058A8.855,8.855,0,0,1,44.9,29.562a2.229,2.229,0,0,1-.443.121l0,.037s-.051,0-.137-.018l-.073.008q-.235.578-.5,1.138a10,10,0,0,1,1.027-.694,9.233,9.233,0,0,1,2.663-1.019,6.418,6.418,0,0,1,1.5-.008,7.117,7.117,0,0,1-2.72,3.654,9.115,9.115,0,0,1-3.361,1.39,2.375,2.375,0,0,1-.593.039v.02s-.047-.009-.126-.029c-.1-.009-.191-.022-.277-.037q-.394.582-.819,1.139c.167-.052.344-.1.524-.147a9.433,9.433,0,0,1,2.864-.247,6.313,6.313,0,0,1,1.442.4,7.515,7.515,0,0,1-3.737,2.752,9.369,9.369,0,0,1-3.648.411,2.286,2.286,0,0,1-.238-.032l-.011.032-.055-.029q-.5.463-1.023.9c.172-.023.351-.044.534-.058a9.4,9.4,0,0,1,2.866.229,6.158,6.158,0,0,1,1.344.634,7.748,7.748,0,0,1-4.2,2.092,9.381,9.381,0,0,1-3.668-.2,2.225,2.225,0,0,1-.42-.154l-.022.031s-.037-.028-.1-.079a23.044,23.044,0,0,1-2.886,1.354c-.211.082-.732.279-1.445.505.886.051,1.666.082,2.188.1a.754.754,0,0,1,.744.66c0,.01,0,.02,0,.03a.637.637,0,0,1-.191.516.731.731,0,0,1-.512.206Z" transform="translate(790 1282.135)"/>
  </g>
</svg>
