<?xml version="1.0" encoding="utf-8"?>
<!-- Generator: Adobe Illustrator 18.1.0, SVG Export Plug-In . SVG Version: 6.00 Build 0)  -->
<svg version="1.1" id="Слой_1" xmlns="http://www.w3.org/2000/svg" xmlns:xlink="http://www.w3.org/1999/xlink" x="0px" y="0px"
	 viewBox="0 0 40.2 11.6" enable-background="new 0 0 40.2 11.6" xml:space="preserve">
<polygon fill="#F7D737" points="6.1,0 8,3.8 12.2,4.4 9.2,7.4 9.9,11.6 6.1,9.7 2.3,11.6 3.1,7.4 0,4.4 4.2,3.8 "/>
<polygon fill="#7C7B7B" points="20.1,0 22,3.8 26.2,4.4 23.2,7.4 23.9,11.6 20.1,9.7 16.3,11.6 17.1,7.4 14,4.4 18.2,3.8 "/>
<polygon fill="#7C7B7B" points="34.1,0 36,3.8 40.2,4.4 37.2,7.4 37.9,11.6 34.1,9.7 30.3,11.6 31.1,7.4 28,4.4 32.2,3.8 "/>
</svg>
