<?xml version="1.0" encoding="UTF-8" standalone="no"?>
<!DOCTYPE svg PUBLIC "-//W3C//DTD SVG 1.1//EN" "http://www.w3.org/Graphics/SVG/1.1/DTD/svg11.dtd">
<svg width="100%" height="100%" viewBox="0 0 948 547" version="1.1" xmlns="http://www.w3.org/2000/svg" xmlns:xlink="http://www.w3.org/1999/xlink" xml:space="preserve" xmlns:serif="http://www.serif.com/" style="fill-rule:evenodd;clip-rule:evenodd;stroke-linejoin:round;stroke-miterlimit:1.41421;">
    <g id="Artboard1" transform="matrix(1,0,0,1,-1.6945,0.655228)">
        <rect x="1.695" y="-0.655" width="947.981" height="546.447" style="fill:none;"/>
        <clipPath id="_clip1">
            <rect x="1.695" y="-0.655" width="947.981" height="546.447"/>
        </clipPath>
        <g clip-path="url(#_clip1)">
            <g transform="matrix(1,0,0,1,0.694501,0.344772)">
                <path d="M361.277,545.758L351.377,545.758C348.277,541.158 344.277,533.658 344.277,533.658C344.277,533.658 356.177,534.658 358.477,535.158C360.777,535.658 369.677,539.358 373.477,542.658C374.577,543.658 375.577,544.658 376.477,545.758L362.677,545.758L359.977,544.458L361.277,545.758ZM542.777,545.758L535.277,545.758C535.377,545.358 535.477,544.858 535.677,544.458C536.677,542.658 538.877,541.958 540.677,542.958C541.777,543.458 542.577,544.558 542.777,545.758ZM342.877,545.758L335.577,545.758C335.277,544.158 336.077,542.458 337.477,541.658C339.277,540.558 341.677,541.258 342.677,543.058C343.077,543.958 343.177,544.858 342.877,545.758ZM527.777,545.758L503.077,545.758C503.677,545.158 504.277,544.558 504.877,543.958C508.577,540.758 517.477,537.058 519.877,536.458C522.277,535.858 533.977,534.958 533.977,534.958C533.977,534.958 530.677,541.158 527.777,545.758ZM413.177,545.758L398.177,545.758C397.877,543.258 397.777,540.658 397.877,538.058C397.877,538.058 406.577,541.758 411.277,544.558L413.177,545.758ZM480.277,545.758L467.277,545.758C471.977,542.958 480.477,539.358 480.477,539.358C480.477,541.458 480.477,543.658 480.277,545.758ZM496.977,545.758L492.677,545.758C492.877,544.558 493.077,543.258 493.477,542.058C496.177,533.358 497.777,531.358 501.377,527.158C504.977,522.958 512.277,516.758 512.277,516.758C512.277,516.758 514.777,523.558 514.777,528.858C514.677,529.458 514.677,530.458 514.477,531.758C511.077,533.558 507.877,535.658 504.877,538.158C505.277,535.858 505.677,532.558 505.677,532.558C504.077,534.558 502.577,536.658 501.277,538.858C500.377,539.658 499.177,543.158 498.477,543.958L496.977,545.758ZM385.977,545.658L382.477,545.658C381.677,544.558 380.777,543.558 379.877,542.558C379.077,541.858 377.977,538.258 377.077,537.458C375.777,535.258 374.277,533.158 372.677,531.158C372.677,531.158 373.077,534.558 373.477,536.758C370.477,534.258 367.277,532.158 363.877,530.358C363.777,529.358 363.677,528.458 363.677,527.458C363.677,522.058 366.177,515.258 366.177,515.258C366.177,515.258 373.377,521.558 376.977,525.758C380.577,529.958 382.177,532.058 384.877,540.558C385.377,542.258 385.777,543.958 385.977,545.658ZM539.777,533.358C539.077,534.458 541.577,533.458 541.577,533.458C546.777,531.458 551.377,527.958 554.577,523.458C559.877,515.958 560.577,513.558 561.777,508.158C562.977,502.758 563.677,493.258 563.677,493.258C563.677,493.258 553.277,498.658 551.277,500.158C549.277,501.658 542.577,508.558 540.377,513.058C537.377,519.158 536.377,529.558 536.377,529.558C536.377,529.558 536.277,532.358 537.077,531.258C538.877,528.958 542.677,522.758 544.377,520.458C547.677,515.958 553.477,509.458 553.477,509.458C553.477,509.458 550.277,517.258 547.677,522.158C546.377,524.958 541.477,530.858 539.777,533.358ZM573.877,521.758C577.777,517.758 583.577,510.058 583.577,510.058C583.577,510.058 576.277,508.558 570.777,509.258C569.777,509.358 568.777,509.658 567.777,509.858C566.277,513.358 564.377,516.758 562.077,519.958C564.377,519.258 567.777,518.458 567.777,518.458C565.877,520.258 563.877,521.958 561.777,523.458C561.077,524.358 557.477,525.958 556.777,526.758C554.277,529.358 551.477,531.758 548.477,533.858C552.177,533.558 555.877,532.658 559.277,531.258C567.977,527.558 569.977,525.758 573.877,521.758ZM304.477,520.458C308.377,524.458 310.377,526.258 318.977,530.058C322.377,531.458 326.077,532.358 329.777,532.658C326.777,530.558 323.977,528.158 321.477,525.558C320.777,524.758 317.177,523.158 316.477,522.258C314.377,520.758 312.377,519.058 310.477,517.258C310.477,517.258 313.877,518.058 316.177,518.758C313.977,515.658 312.077,512.258 310.577,508.758C309.277,508.458 308.177,508.258 307.577,508.158C302.077,507.458 294.777,508.958 294.777,508.958C294.777,508.958 300.477,516.458 304.477,520.458ZM340.877,529.858C341.777,531.058 341.577,528.158 341.577,528.158C341.577,528.158 340.577,517.758 337.577,511.658C335.377,507.158 328.677,500.258 326.677,498.758C324.677,497.258 314.277,491.858 314.277,491.858C314.277,491.858 315.077,501.358 316.277,506.758C317.477,512.158 318.177,514.658 323.477,522.058C326.777,526.558 331.277,530.058 336.577,532.058C336.577,532.058 339.077,532.958 338.377,531.958C336.777,529.458 331.877,523.458 330.277,520.658C327.577,515.758 324.477,507.958 324.477,507.958C324.477,507.958 330.277,514.358 333.577,518.958C335.377,521.358 339.177,527.558 340.877,529.858ZM521.477,522.558C519.577,522.858 518.277,524.558 518.477,526.558C518.477,526.658 518.477,526.758 518.577,526.858C519.077,528.858 520.977,530.158 523.077,529.858C524.977,529.558 526.277,527.858 526.077,525.958C526.077,525.858 526.077,525.758 526.077,525.658C525.477,523.558 523.577,522.158 521.477,522.558ZM355.077,528.358C353.177,527.958 351.977,526.058 352.377,524.158C352.777,522.158 354.777,520.858 356.777,521.158C356.877,521.158 356.977,521.258 357.077,521.158C358.977,521.558 360.177,523.458 359.777,525.358C359.277,527.358 357.277,528.658 355.277,528.358L355.077,528.358ZM538.177,507.758C539.977,504.358 542.077,501.058 544.477,498.058C544.077,496.758 543.777,495.858 543.577,495.258C541.477,490.358 536.477,485.058 536.477,485.058C536.477,485.058 532.377,493.658 530.677,498.958C528.977,504.258 528.277,506.758 529.277,515.758C529.677,519.358 530.677,522.758 532.277,525.958C532.677,522.458 533.477,518.958 534.577,515.558C534.877,514.558 534.577,510.858 535.077,509.758C535.377,507.258 535.977,504.758 536.577,502.258C536.577,502.258 537.677,505.558 538.177,507.758ZM343.677,514.258C344.777,517.658 345.577,521.158 345.977,524.658C347.577,521.458 348.577,517.958 348.977,514.358C349.877,505.358 349.177,502.858 347.477,497.558C345.777,492.258 341.677,483.658 341.677,483.658C341.677,483.658 336.677,488.958 334.577,493.858C334.177,494.758 333.877,495.658 333.677,496.658C336.077,499.658 338.177,502.858 339.977,506.358C340.477,504.158 341.477,500.958 341.477,500.958C342.177,503.458 342.677,505.958 342.977,508.458C343.677,509.558 343.377,513.258 343.677,514.258ZM573.077,498.058C571.077,498.058 569.477,499.658 569.377,501.658C569.277,503.658 570.977,505.258 572.977,505.358C574.877,505.358 576.577,503.858 576.677,501.958C576.677,499.858 575.077,498.058 573.077,498.058L573.077,498.058ZM305.377,496.658C307.477,496.558 309.277,498.258 309.277,500.358C309.377,502.458 307.677,504.258 305.577,504.258C303.477,504.358 301.677,502.658 301.677,500.558C301.577,498.458 303.177,496.758 305.177,496.658L305.377,496.658ZM549.482,486.169C550.717,486.174 551.917,486.746 552.677,487.758C552.677,487.805 552.699,487.83 552.722,487.853L552.731,487.863C552.755,487.886 552.777,487.911 552.777,487.958C553.777,489.558 553.277,491.758 551.677,492.758C549.877,493.858 547.577,493.458 546.377,491.758C546.377,491.658 546.277,491.658 546.277,491.558C545.277,489.958 545.777,487.758 547.377,486.758C548.03,486.359 548.75,486.17 549.46,486.169L549.482,486.169ZM328.941,484.869C329.631,484.874 330.33,485.063 330.977,485.458C331.023,485.458 331.048,485.48 331.072,485.504L331.081,485.513C331.105,485.536 331.13,485.558 331.177,485.558C332.777,486.658 333.077,488.858 331.977,490.458C330.777,492.158 328.377,492.558 326.677,491.458C326.577,491.458 326.577,491.358 326.477,491.358C324.977,490.258 324.577,488.058 325.677,486.458C326.504,485.439 327.697,484.867 328.919,484.869L328.941,484.869ZM580.177,458.558C579.677,453.158 577.677,444.058 577.677,444.058C577.677,444.058 569.877,451.958 568.577,453.958C567.277,455.958 563.177,464.158 562.477,469.058C561.577,475.658 563.577,485.658 563.577,485.658C563.577,485.658 564.277,488.358 564.677,487.058C565.577,484.458 567.277,477.558 568.077,474.858C569.777,469.658 573.077,462.058 573.077,462.058C573.077,462.058 572.477,470.258 571.477,475.558C570.877,478.658 568.177,485.558 567.477,488.458C567.177,489.658 569.177,488.058 569.177,488.058C573.377,484.658 576.377,480.158 577.977,475.058C580.777,466.458 580.677,463.958 580.177,458.558ZM309.077,486.558C309.077,486.558 311.077,488.158 310.777,486.958C309.977,484.158 307.277,477.258 306.777,474.058C305.777,468.758 305.177,460.558 305.177,460.558C305.177,460.558 308.577,468.158 310.177,473.358C311.077,476.058 312.677,482.858 313.577,485.558C314.077,486.858 314.677,484.158 314.677,484.158C314.677,484.158 316.677,474.158 315.777,467.558C315.077,462.758 310.977,454.458 309.677,452.458C308.377,450.458 300.577,442.558 300.577,442.558C300.577,442.558 298.577,451.658 298.077,457.058C297.577,462.458 297.577,464.958 300.177,473.458C301.877,478.658 304.977,483.158 309.077,486.558ZM585.977,458.558C585.577,462.258 584.877,465.958 583.777,469.558C585.577,468.358 588.477,466.658 588.477,466.658C587.277,468.858 585.977,470.958 584.477,473.058C584.077,474.158 581.377,476.558 580.977,477.558C579.477,480.758 577.677,483.758 575.577,486.558C578.877,485.258 581.877,483.458 584.477,481.158C591.177,475.258 592.377,473.058 594.777,468.158C597.177,463.258 600.177,454.558 600.177,454.558C600.177,454.558 593.177,455.158 588.577,457.258C587.977,457.358 587.077,457.858 585.977,458.558ZM293.877,479.658C296.477,481.958 299.577,483.758 302.777,485.058C300.677,482.258 298.877,479.258 297.377,476.058C296.977,475.158 294.277,472.658 293.877,471.558C292.377,469.558 291.077,467.358 289.877,465.158C289.877,465.158 292.677,466.858 294.577,468.058C293.477,464.458 292.777,460.758 292.377,457.058C291.577,456.558 290.777,456.058 289.877,455.658C285.177,453.458 278.277,452.858 278.277,452.858C278.277,452.858 281.277,461.658 283.677,466.458C286.077,471.258 287.177,473.758 293.877,479.658ZM550.977,443.758C550.977,443.758 549.777,452.958 549.677,458.358C549.577,463.758 549.777,466.358 553.077,474.558C554.477,477.758 556.277,480.758 558.677,483.358C558.077,479.958 557.777,476.458 557.877,472.858C557.877,471.858 556.577,468.358 556.677,467.258C556.277,464.758 555.977,462.258 555.977,459.758C555.977,459.758 557.777,462.558 558.877,464.458C559.477,460.758 560.477,457.158 561.777,453.658C561.077,452.558 560.577,451.758 560.177,451.258C556.977,447.358 550.977,443.758 550.977,443.758ZM322.277,458.558C322.177,461.058 321.977,463.558 321.577,466.058C321.677,467.158 320.377,470.658 320.377,471.658C320.477,475.158 320.177,478.658 319.577,482.158C321.877,479.558 323.777,476.558 325.177,473.358C328.577,465.158 328.677,462.558 328.577,457.158C328.477,451.758 327.277,442.558 327.277,442.558C327.277,442.558 321.277,446.158 318.077,450.158C317.477,450.958 316.977,451.658 316.477,452.558C317.777,456.058 318.777,459.658 319.377,463.358C320.577,461.358 322.277,458.558 322.277,458.558ZM411.834,452.003C410.636,455.472 409.387,458.513 408.088,461.128C406.788,463.743 405.359,465.924 403.799,467.672C402.24,469.419 400.505,470.733 398.596,471.614C396.686,472.494 394.544,472.934 392.171,472.934C391.606,472.934 390.991,472.901 390.324,472.836C389.657,472.77 388.974,472.671 388.273,472.54L388.273,464.38C388.544,464.433 388.855,464.492 389.205,464.558C389.555,464.623 389.923,464.676 390.307,464.715C390.691,464.755 391.081,464.788 391.476,464.814C391.872,464.84 392.239,464.853 392.578,464.853C393.527,464.853 394.409,464.643 395.222,464.223C396.036,463.802 396.788,463.217 397.477,462.469C398.166,461.72 398.793,460.826 399.358,459.788C399.923,458.75 400.421,457.613 400.85,456.378L387.188,416.329L396.409,416.329L403.562,439.034L405.698,446.366L407.799,439.349L415.02,416.329L423.902,416.329L411.834,452.003ZM457.829,440.808C457.829,443.62 457.383,446.064 456.49,448.14C455.597,450.216 454.349,451.931 452.744,453.284C451.139,454.637 449.23,455.642 447.015,456.299C444.8,456.956 442.382,457.285 439.76,457.285C437.432,457.285 435.184,457.127 433.014,456.812C430.844,456.497 428.697,455.971 426.573,455.235L426.573,445.656C427.613,446.077 428.697,446.471 429.827,446.839C430.957,447.207 432.093,447.529 433.234,447.805C434.376,448.081 435.511,448.297 436.641,448.455C437.771,448.613 438.867,448.692 439.93,448.692C441.512,448.692 442.856,448.534 443.964,448.219C445.071,447.903 445.975,447.47 446.676,446.918C447.376,446.366 447.885,445.709 448.201,444.947C448.518,444.185 448.676,443.344 448.676,442.424C448.676,441.163 448.365,440.105 447.744,439.251C447.122,438.397 446.303,437.641 445.286,436.984C444.269,436.327 443.111,435.736 441.811,435.21C440.512,434.685 439.189,434.12 437.845,433.515C436.5,432.911 435.178,432.228 433.878,431.466C432.579,430.703 431.421,429.757 430.404,428.627C429.387,427.497 428.567,426.151 427.946,424.587C427.324,423.023 427.014,421.138 427.014,418.93C427.014,416.907 427.33,414.988 427.963,413.175C428.596,411.362 429.59,409.779 430.946,408.425C432.302,407.072 434.042,405.994 436.167,405.193C438.291,404.391 440.856,403.991 443.862,403.991C444.743,403.991 445.664,404.037 446.625,404.128C447.585,404.22 448.535,404.339 449.473,404.483C450.41,404.628 451.314,404.799 452.185,404.996C453.055,405.193 453.851,405.396 454.575,405.607L454.575,414.476C453.851,414.161 453.06,413.872 452.202,413.609C451.343,413.346 450.456,413.116 449.54,412.919C448.625,412.722 447.704,412.571 446.777,412.466C445.851,412.36 444.969,412.308 444.133,412.308C442.664,412.308 441.421,412.446 440.404,412.722C439.387,412.998 438.551,413.379 437.896,413.865C437.24,414.351 436.766,414.949 436.472,415.659C436.178,416.368 436.031,417.156 436.031,418.024C436.031,419.101 436.342,420.027 436.963,420.803C437.585,421.578 438.41,422.274 439.438,422.892C440.466,423.509 441.63,424.088 442.93,424.626C444.229,425.165 445.563,425.743 446.93,426.361C448.297,426.978 449.631,427.681 450.93,428.47C452.23,429.258 453.394,430.217 454.422,431.347C455.45,432.477 456.275,433.811 456.897,435.348C457.518,436.886 457.829,438.705 457.829,440.808ZM524.831,454.368C522.865,455.288 520.961,455.971 519.119,456.418C517.277,456.864 515.362,457.088 513.373,457.088C510.187,457.088 507.367,456.543 504.915,455.452C502.463,454.361 500.395,452.739 498.711,450.584C497.028,448.429 495.751,445.755 494.881,442.562C494.01,439.369 493.575,435.657 493.575,431.426C493.575,427.09 494.05,423.234 494.999,419.857C495.948,416.48 497.304,413.628 499.067,411.303C500.83,408.977 502.971,407.203 505.491,405.981C508.011,404.759 510.842,404.148 513.983,404.148C515,404.148 515.955,404.174 516.848,404.227C517.741,404.28 518.616,404.378 519.475,404.523C520.334,404.667 521.204,404.858 522.086,405.094C522.967,405.331 523.882,405.633 524.831,406.001L524.831,415.619C522.91,414.568 521.08,413.819 519.34,413.372C517.599,412.925 516.017,412.702 514.594,412.702C512.492,412.702 510.695,413.142 509.203,414.023C507.712,414.903 506.486,416.138 505.525,417.728C504.565,419.318 503.858,421.21 503.406,423.404C502.954,425.599 502.728,428.01 502.728,430.638C502.728,433.423 502.96,435.913 503.423,438.108C503.887,440.302 504.604,442.161 505.576,443.685C506.548,445.21 507.791,446.372 509.305,447.174C510.819,447.975 512.616,448.376 514.695,448.376C515.441,448.376 516.249,448.291 517.119,448.12C517.989,447.949 518.871,447.726 519.763,447.45C520.656,447.174 521.537,446.845 522.408,446.464C523.278,446.083 524.086,445.696 524.831,445.302L524.831,454.368ZM384.212,454.368C382.246,455.288 380.342,455.971 378.5,456.418C376.658,456.864 374.743,457.088 372.754,457.088C369.567,457.088 366.748,456.543 364.296,455.452C361.844,454.361 359.776,452.739 358.092,450.584C356.408,448.429 355.132,445.755 354.261,442.562C353.391,439.369 352.956,435.657 352.956,431.426C352.956,427.09 353.431,423.234 354.38,419.857C355.329,416.48 356.685,413.628 358.448,411.303C360.211,408.977 362.352,407.203 364.872,405.981C367.392,404.759 370.223,404.148 373.364,404.148C374.381,404.148 375.336,404.174 376.229,404.227C377.122,404.28 377.997,404.378 378.856,404.523C379.715,404.667 380.585,404.858 381.466,405.094C382.348,405.331 383.263,405.633 384.212,406.001L384.212,415.619C382.291,414.568 380.461,413.819 378.721,413.372C376.98,412.925 375.398,412.702 373.974,412.702C371.873,412.702 370.076,413.142 368.584,414.023C367.093,414.903 365.867,416.138 364.906,417.728C363.946,419.318 363.239,421.21 362.787,423.404C362.335,425.599 362.109,428.01 362.109,430.638C362.109,433.423 362.341,435.913 362.804,438.108C363.268,440.302 363.985,442.161 364.957,443.685C365.929,445.21 367.172,446.372 368.686,447.174C370.2,447.975 371.997,448.376 374.076,448.376C374.822,448.376 375.63,448.291 376.5,448.12C377.37,447.949 378.252,447.726 379.144,447.45C380.037,447.174 380.918,446.845 381.789,446.464C382.659,446.083 383.467,445.696 384.212,445.302L384.212,454.368ZM489.863,413.057L471.659,413.057L471.659,425.868L489.016,425.868L489.016,433.87L471.659,433.87L471.659,448.179L489.863,448.179L489.863,456.378L463.184,456.378L463.184,404.858L489.863,404.858L489.863,413.057ZM588.877,452.858C590.777,452.458 591.977,450.558 591.577,448.558C591.177,446.658 589.277,445.458 587.277,445.858C585.377,446.258 584.177,448.158 584.577,450.158C585.077,452.058 586.977,453.258 588.877,452.858L588.877,452.858ZM286.777,447.258C286.377,449.158 287.477,451.058 289.377,451.558C291.277,451.958 293.177,450.858 293.677,448.958C294.177,447.058 292.977,445.158 291.077,444.658C289.077,444.158 287.177,445.358 286.777,447.258ZM564.051,441.079C564.84,441.085 565.632,441.343 566.277,441.858C567.777,443.058 567.977,445.358 566.777,446.858L566.761,446.876C565.459,448.36 563.271,448.554 561.777,447.358C560.277,446.058 560.077,443.858 561.277,442.358C561.956,441.509 562.989,441.076 564.029,441.079L564.051,441.079ZM317.077,441.058C315.877,439.558 313.577,439.358 312.077,440.558C310.577,441.758 310.377,444.058 311.577,445.558C312.777,447.058 315.077,447.258 316.577,446.058C318.077,444.758 318.277,442.558 317.077,441.058L317.077,441.058ZM582.277,439.858C584.377,434.958 584.977,429.558 584.077,424.258C582.477,415.458 581.277,413.258 578.377,408.758C575.477,404.258 569.477,397.058 569.477,397.058C569.477,397.058 566.277,407.658 565.977,410.058C565.677,412.458 565.977,421.658 567.577,426.258C569.777,432.458 576.277,440.458 576.277,440.458C576.277,440.458 578.077,442.558 577.877,441.158C577.477,438.358 575.777,431.558 575.277,428.758C574.277,423.458 573.777,415.058 573.777,415.058C573.777,415.058 576.977,422.558 578.677,427.758C579.577,430.758 580.477,438.158 581.077,441.058C581.177,442.258 582.277,439.858 582.277,439.858ZM559.777,413.158C558.977,412.658 558.177,412.258 557.277,411.758C552.577,409.758 545.577,409.258 545.577,409.258C545.577,409.258 548.777,417.958 551.277,422.758C553.777,427.558 555.077,429.758 561.877,435.558C564.577,437.758 567.577,439.558 570.877,440.758C568.777,437.958 566.877,435.058 565.277,431.858C564.877,430.958 562.077,428.558 561.577,427.458C560.077,425.458 558.677,423.358 557.477,421.158C557.477,421.158 560.377,422.758 562.177,423.958C561.077,420.558 560.177,416.858 559.777,413.158ZM308.977,395.758C308.977,395.758 302.977,402.958 300.077,407.458C297.177,411.958 295.877,414.258 294.377,422.958C293.477,428.258 294.077,433.658 296.177,438.558C296.177,438.558 297.177,440.858 297.477,439.658C298.077,436.758 298.977,429.458 299.877,426.458C301.477,421.258 304.677,413.758 304.677,413.758C304.677,413.758 304.077,422.058 303.177,427.458C302.677,430.258 300.977,437.058 300.577,439.858C300.377,441.258 302.177,439.158 302.177,439.158C302.177,439.158 308.677,431.258 310.877,424.958C312.477,420.358 312.777,411.058 312.477,408.758C312.177,406.458 308.977,395.758 308.977,395.758ZM312.977,430.658C311.377,433.758 309.477,436.758 307.377,439.558C310.677,438.358 313.677,436.558 316.377,434.358C323.177,428.658 324.477,426.358 326.977,421.558C329.477,416.758 332.677,408.058 332.677,408.058C332.677,408.058 325.677,408.458 320.977,410.558C320.077,410.958 319.277,411.458 318.477,411.958C318.077,415.658 317.277,419.358 316.077,422.858C317.977,421.658 320.777,420.058 320.777,420.058C319.577,422.258 318.177,424.358 316.677,426.358C316.277,427.258 313.477,429.658 312.977,430.658ZM586.577,416.858C587.577,414.858 589.377,412.058 589.377,412.058C589.377,414.558 589.177,417.058 588.777,419.558C588.877,420.658 587.677,424.158 587.677,425.158C587.777,428.658 587.577,432.158 587.077,435.658C589.377,432.958 591.177,429.958 592.477,426.758C595.677,418.458 595.677,415.858 595.577,410.458C595.477,405.058 593.977,395.858 593.977,395.858C593.977,395.858 588.077,399.658 584.977,403.758C584.377,404.558 583.877,405.358 583.477,406.158C584.877,409.558 585.877,413.158 586.577,416.858ZM291.177,434.358C290.677,430.858 290.477,427.358 290.577,423.858C290.677,422.858 289.377,419.358 289.577,418.258C289.177,415.758 289.077,413.258 288.977,410.758C288.977,410.758 290.677,413.558 291.777,415.558C292.477,411.858 293.477,408.258 294.977,404.758C294.477,403.958 293.977,403.158 293.477,402.358C290.377,398.258 284.477,394.458 284.477,394.458C284.477,394.458 283.077,403.658 282.877,409.058C282.677,414.458 282.777,417.058 285.977,425.358C287.077,428.658 288.877,431.658 291.177,434.358ZM558.177,400.558C556.277,400.158 554.377,401.358 553.977,403.358C553.577,405.258 554.777,407.158 556.777,407.558C558.677,407.958 560.577,406.758 560.977,404.758C561.377,402.858 560.077,400.958 558.177,400.558L558.177,400.558ZM320.177,399.258C318.277,399.658 316.977,401.558 317.377,403.458C317.777,405.358 319.677,406.658 321.577,406.258C323.477,405.858 324.777,403.958 324.377,402.058C323.877,400.058 322.077,398.858 320.177,399.258ZM583.377,399.658C584.877,398.358 585.077,396.158 583.777,394.658C582.477,393.158 580.277,392.958 578.777,394.258C577.277,395.558 577.077,397.758 578.377,399.258C579.677,400.758 581.877,400.958 583.377,399.658ZM299.977,397.958C301.277,396.458 301.077,394.258 299.577,392.958C298.077,391.658 295.877,391.858 294.577,393.358C293.277,394.858 293.477,397.058 294.977,398.358C296.477,399.658 298.677,399.458 299.977,397.958ZM533.377,381.058C536.977,385.058 538.877,386.858 546.877,390.658C550.077,392.158 553.477,393.058 556.977,393.458C554.177,391.358 551.677,388.958 549.277,386.358C548.577,385.558 545.277,383.958 544.577,383.058C542.577,381.558 540.777,379.858 538.977,378.058C538.977,378.058 542.177,378.958 544.277,379.558C542.177,376.458 540.477,373.058 539.077,369.558C538.177,369.258 537.277,369.058 536.277,368.858C531.177,368.058 524.377,369.458 524.377,369.458C524.377,369.458 529.777,377.058 533.377,381.058ZM549.977,380.158C553.677,385.658 561.977,391.658 561.977,391.658C561.977,391.658 564.277,393.158 563.777,391.858C562.677,389.258 559.277,383.058 558.077,380.558C555.877,375.658 553.177,367.658 553.177,367.658C553.177,367.658 558.177,374.158 561.077,378.758C562.777,381.458 565.377,388.358 566.777,390.958C567.377,392.058 567.777,389.558 567.777,389.558C568.577,384.258 567.777,378.858 565.577,374.058C561.777,365.958 560.077,364.158 556.077,360.558C552.077,356.958 544.477,351.458 544.477,351.458C544.477,351.458 544.077,362.558 544.377,364.858C544.677,367.158 547.177,376.158 549.977,380.158ZM333.777,381.658C333.077,382.558 329.777,384.158 329.177,384.958C326.877,387.558 324.277,389.958 321.477,392.058C324.977,391.758 328.377,390.758 331.577,389.258C339.577,385.458 341.477,383.658 345.077,379.658C348.677,375.658 353.977,368.058 353.977,368.058C353.977,368.058 347.077,366.658 342.077,367.458C341.577,367.558 340.577,367.758 339.277,368.158C337.877,371.658 336.177,374.958 334.177,378.158C336.277,377.458 339.477,376.658 339.477,376.658C337.577,378.458 335.677,380.058 333.777,381.658ZM312.877,372.858C310.677,377.758 309.877,383.158 310.677,388.358C310.677,388.358 311.077,390.858 311.677,389.758C312.977,387.158 315.677,380.258 317.377,377.558C320.277,372.958 325.277,366.458 325.277,366.458C325.277,366.458 322.577,374.358 320.377,379.258C319.177,381.758 315.777,387.958 314.677,390.558C314.177,391.858 316.477,390.358 316.477,390.358C316.477,390.358 324.777,384.358 328.477,378.858C331.277,374.858 333.877,365.958 334.177,363.658C334.477,361.358 334.077,350.258 334.077,350.258C334.077,350.258 326.477,355.658 322.477,359.358C318.477,363.058 316.677,364.758 312.877,372.858ZM567.477,360.958C568.077,363.358 568.577,365.858 568.777,368.358C569.177,369.458 568.877,373.058 569.177,374.058C570.177,377.458 570.877,380.858 571.277,384.358C572.777,381.258 573.777,377.858 574.177,374.358C575.177,365.558 574.577,362.958 572.977,357.858C571.377,352.758 567.777,344.158 567.777,344.158C567.777,344.158 562.977,349.258 561.077,354.058C560.877,354.558 560.577,355.558 560.177,356.758C562.377,359.758 564.377,362.958 565.977,366.358C566.477,364.158 567.477,360.958 567.477,360.958ZM306.977,383.058C307.377,379.558 308.077,376.158 309.077,372.758C309.377,371.758 309.077,368.158 309.477,367.058C309.777,364.558 310.177,362.058 310.877,359.658C310.877,359.658 311.777,362.858 312.377,364.958C313.977,361.558 315.877,358.358 318.177,355.358C317.977,354.458 317.677,353.558 317.277,352.658C315.277,347.858 310.577,342.758 310.577,342.758C310.577,342.758 306.877,351.258 305.377,356.458C303.877,361.658 303.277,364.158 304.177,372.958C304.477,376.558 305.477,379.858 306.977,383.058ZM538.077,361.158C537.977,359.158 536.277,357.658 534.377,357.758C532.477,357.858 530.877,359.558 530.977,361.458C531.077,363.458 532.777,364.958 534.677,364.858C536.677,364.758 538.177,363.058 538.077,361.158L538.077,361.158ZM347.277,360.158C347.377,358.158 345.877,356.558 343.877,356.458C341.877,356.358 340.277,357.858 340.177,359.858C340.077,361.858 341.577,363.458 343.577,363.558C345.477,363.558 347.177,362.058 347.277,360.158ZM505.877,352.358C510.777,354.558 513.177,355.458 522.077,355.658C525.577,355.658 529.077,355.158 532.377,354.058C528.977,353.258 525.677,352.058 522.477,350.658C521.577,350.158 517.877,350.058 516.877,349.458C514.477,348.858 512.077,348.058 509.677,347.158C509.677,347.158 512.977,346.658 515.177,346.358C511.977,344.358 509.077,341.958 506.377,339.358C505.477,339.458 504.477,339.658 503.577,339.858C498.577,341.158 492.877,345.258 492.877,345.258C492.877,345.258 500.877,350.158 505.877,352.358ZM363.177,345.058C365.377,345.258 368.677,345.858 368.677,345.858C366.377,346.758 363.977,347.558 361.477,348.158C360.477,348.758 356.777,348.858 355.877,349.358C352.677,350.858 349.377,351.958 345.977,352.758C349.277,353.858 352.777,354.358 356.277,354.358C365.177,354.158 367.577,353.258 372.477,351.058C377.377,348.858 385.377,344.058 385.377,344.058C385.377,344.058 379.677,340.058 374.677,338.658C374.177,338.558 373.177,338.358 371.877,338.158C369.177,340.758 366.277,343.058 363.177,345.058ZM553.577,351.458C555.177,352.558 557.377,352.158 558.477,350.558C559.577,348.958 559.177,346.758 557.577,345.658C555.977,344.558 553.777,344.958 552.677,346.558C551.577,348.158 551.977,350.358 553.577,351.458ZM324.777,350.158C326.377,349.058 326.777,346.858 325.677,345.258C324.577,343.658 322.377,343.258 320.777,344.358C319.177,345.458 318.777,347.658 319.877,349.258C320.877,350.858 323.077,351.258 324.777,350.158ZM520.677,344.758C526.277,348.258 536.377,350.358 536.377,350.358C536.377,350.358 539.077,350.858 538.077,349.858C535.977,347.958 530.377,343.658 528.277,341.858C524.177,338.258 518.577,332.158 518.577,332.158C518.577,332.158 525.777,336.058 530.277,339.058C532.877,340.858 538.177,346.058 540.477,347.858C541.477,348.658 540.777,346.158 540.777,346.158C539.377,341.058 536.477,336.358 532.477,332.858C525.777,327.058 523.477,326.058 518.277,324.358C513.077,322.658 503.977,320.758 503.977,320.758C503.977,320.758 508.177,331.058 509.377,333.058C510.577,335.058 516.477,342.258 520.677,344.758ZM337.677,344.958C337.677,344.958 337.077,347.358 337.977,346.658C340.277,344.858 345.477,339.558 348.177,337.858C352.677,334.858 359.877,330.958 359.877,330.958C359.877,330.958 354.177,337.058 350.177,340.658C348.077,342.558 342.477,346.758 340.377,348.658C339.377,349.658 342.077,349.158 342.077,349.158C342.077,349.158 352.077,347.058 357.677,343.558C361.777,341.058 367.877,333.958 369.077,331.958C370.277,329.958 374.477,319.658 374.477,319.658C374.477,319.658 365.277,321.558 360.177,323.258C355.077,324.958 352.677,325.958 345.977,331.758C341.977,335.158 339.077,339.758 337.677,344.958ZM529.677,325.558C529.277,323.358 528.877,320.058 528.877,320.058C530.377,322.058 531.877,324.158 533.077,326.258C533.877,327.058 535.077,330.558 535.777,331.258C538.077,333.858 540.077,336.758 541.877,339.758C541.977,336.258 541.477,332.758 540.477,329.458C537.777,320.958 536.177,318.958 532.677,314.858C529.177,310.758 522.277,304.458 522.277,304.458C522.277,304.458 520.077,311.058 520.177,316.258C520.177,317.158 520.277,318.158 520.477,319.058C523.677,320.958 526.777,323.158 529.677,325.558ZM342.577,330.058C343.277,329.258 344.477,325.858 345.277,325.058C346.577,322.858 347.977,320.858 349.477,318.858C349.477,318.858 349.077,322.158 348.677,324.358C351.477,321.958 354.577,319.758 357.877,317.958C357.977,317.058 358.077,316.058 358.177,315.158C358.277,310.058 356.077,303.358 356.077,303.358C356.077,303.358 349.177,309.658 345.677,313.758C342.177,317.858 340.577,319.858 337.877,328.358C336.877,331.658 336.377,335.158 336.477,338.758C338.177,335.558 340.277,332.658 342.577,330.058ZM497.277,330.658C495.577,331.558 494.877,333.658 495.677,335.458C496.577,337.158 498.677,337.858 500.477,337.058C502.177,336.158 502.877,334.058 502.077,332.258C501.177,330.458 499.077,329.758 497.277,330.658ZM377.777,335.658C379.477,336.558 381.677,335.858 382.577,334.058C383.477,332.358 382.777,330.158 380.977,329.258C379.277,328.358 377.077,329.058 376.177,330.758C375.377,332.558 376.077,334.758 377.777,335.658ZM483.577,330.358C487.077,329.758 490.377,328.658 493.477,326.958C489.977,326.758 486.477,326.258 483.077,325.458C482.077,325.158 478.477,325.758 477.377,325.358C474.877,325.158 472.377,324.858 469.877,324.358C469.877,324.358 472.977,323.258 475.077,322.658C471.577,321.258 468.277,319.458 465.177,317.358C464.277,317.658 463.377,317.958 462.577,318.358C457.977,320.558 453.077,325.558 453.077,325.558C453.077,325.558 461.777,328.858 467.077,330.058C472.377,331.258 474.877,331.858 483.577,330.358ZM415.677,317.058C414.777,316.658 413.977,316.358 413.077,316.058C409.977,318.158 406.677,319.958 403.177,321.358C405.277,321.958 408.377,323.058 408.377,323.058C405.877,323.558 403.377,323.858 400.877,324.058C399.777,324.458 396.177,323.858 395.177,324.158C391.777,324.958 388.277,325.558 384.777,325.658C387.877,327.358 391.177,328.458 394.677,329.058C403.477,330.458 405.977,330.058 411.277,328.758C416.577,327.458 425.277,324.258 425.277,324.258C425.277,324.258 420.377,319.258 415.677,317.058ZM480.177,319.958C486.377,322.358 496.577,322.658 496.577,322.658C496.577,322.658 499.377,322.658 498.177,321.858C495.777,320.358 489.477,317.258 487.077,315.758C482.377,312.958 475.677,307.958 475.677,307.958C475.677,307.958 483.477,310.458 488.477,312.558C491.377,313.858 497.477,318.058 500.077,319.358C501.177,319.958 500.077,317.658 500.077,317.658C497.777,312.858 494.077,308.858 489.477,306.158C481.877,301.658 479.377,301.158 473.977,300.358C468.577,299.558 459.277,299.458 459.277,299.458C459.277,299.458 465.277,308.858 466.777,310.558C468.277,312.258 475.677,318.258 480.177,319.958ZM378.077,318.158C380.677,316.758 386.777,312.558 389.677,311.358C394.677,309.158 402.477,306.758 402.477,306.758C402.477,306.758 395.777,311.758 391.177,314.558C388.777,315.958 382.477,319.158 380.077,320.658C378.877,321.358 381.677,321.458 381.677,321.458C381.677,321.458 391.877,321.158 398.077,318.758C402.577,316.958 409.777,311.158 411.377,309.458C412.977,307.758 418.877,298.358 418.877,298.358C418.877,298.358 409.477,298.458 404.177,299.258C398.877,300.058 396.377,300.458 388.677,305.058C384.077,307.758 380.377,311.758 378.077,316.558C378.077,316.458 377.077,318.758 378.077,318.158ZM512.277,317.058C514.177,317.458 516.077,316.158 516.377,314.258C516.777,312.358 515.477,310.458 513.577,310.158C511.677,309.758 509.777,311.058 509.477,312.958C509.177,314.858 510.277,316.658 512.277,317.058L512.277,317.058ZM458.977,315.958C460.477,314.758 460.777,312.558 459.577,310.958C458.377,309.458 456.177,309.158 454.577,310.358C453.077,311.558 452.777,313.758 453.977,315.358C455.177,316.858 457.377,317.158 458.977,315.958L458.977,315.958ZM366.077,315.758C367.977,315.358 369.277,313.558 368.877,311.658C368.477,309.758 366.677,308.458 364.777,308.858C362.877,309.258 361.577,311.058 361.977,312.958C362.377,314.858 364.177,316.158 366.077,315.758ZM421.437,308.218C422.197,308.222 422.955,308.461 423.577,308.958C425.177,310.158 425.477,312.358 424.277,313.958C423.077,315.558 420.877,315.858 419.277,314.658L419.258,314.643C417.675,313.341 417.481,311.152 418.577,309.558C419.275,308.685 420.346,308.219 421.415,308.218L421.437,308.218ZM475.377,294.858C478.977,296.058 482.377,297.658 485.577,299.458C484.777,297.358 483.777,294.258 483.777,294.258C485.677,295.958 487.477,297.658 489.077,299.558C490.077,300.158 491.877,303.358 492.677,304.058C495.377,306.258 497.977,308.658 500.177,311.358C499.677,307.858 498.577,304.558 496.877,301.458C492.677,293.658 490.777,291.858 486.577,288.458C482.377,285.058 474.477,280.158 474.477,280.158C474.477,280.158 473.477,287.058 474.577,292.058C474.777,292.958 475.077,293.958 475.377,294.858ZM385.677,302.758C386.477,302.158 388.277,298.958 389.277,298.258C390.877,296.358 392.677,294.558 394.577,292.958C394.577,292.958 393.577,296.058 392.777,298.158C395.977,296.258 399.477,294.758 402.977,293.558C403.277,292.658 403.577,291.758 403.777,290.858C404.877,285.858 403.877,278.858 403.877,278.858C403.877,278.858 395.977,283.758 391.777,287.158C387.577,290.558 385.677,292.258 381.477,300.158C379.877,303.258 378.777,306.558 378.177,310.058C380.377,307.358 382.877,304.958 385.677,302.758ZM466.877,294.258C468.877,294.258 470.477,292.658 470.477,290.758C470.477,288.858 468.877,287.158 466.977,287.158C465.077,287.158 463.377,288.758 463.377,290.658C463.377,292.658 464.977,294.258 466.877,294.258ZM411.377,292.958C413.377,292.958 414.977,291.358 414.977,289.358C414.977,287.358 413.377,285.758 411.377,285.758C409.377,285.758 407.777,287.358 407.777,289.358C407.877,291.358 409.477,292.958 411.377,292.958Z" style="fill:white;fill-opacity:0.601678;fill-rule:nonzero;"/>
            </g>
            <g transform="matrix(1,0,0,1,0.694501,0.344772)">
                <path d="M856.024,391.353C857.267,392.028 858.252,392.608 858.777,392.958C864.577,396.858 870.277,404.258 870.277,404.258C870.277,404.258 858.577,406.558 851.577,407.058C849.702,407.246 848.178,407.345 846.677,407.357L846.377,407.358C842.177,407.358 838.177,406.658 830.077,403.958C825.577,402.458 821.477,400.258 817.677,397.458L818.202,397.513C820.827,397.782 823.458,397.958 826.177,397.958L826.513,397.957C828.189,397.946 829.783,397.852 831.377,397.758L831.577,397.758C832.677,397.858 833.777,398.058 834.877,398.258C836.076,398.558 837.176,398.758 838.377,398.758L838.777,398.758L839.354,398.812C842.223,399.07 844.789,399.158 846.477,399.158L848.577,399.158L847.925,398.81C846.702,398.158 844.002,396.733 841.977,395.758C846.677,394.658 851.177,393.058 855.477,391.058L856.024,391.353ZM757.796,395.993C759.401,396.158 761.083,396.158 762.677,396.158L763.239,396.156C766.049,396.133 768.833,395.939 771.177,395.658L770.819,395.919C767.12,398.595 763.136,400.705 758.777,402.158C750.833,404.871 746.831,405.612 742.77,405.656L742.377,405.658C740.777,405.658 739.077,405.558 737.177,405.458C730.177,404.958 718.477,402.558 718.477,402.558C718.477,402.558 724.177,395.058 729.977,391.258C730.577,390.858 731.777,390.158 733.277,389.358L733.681,389.545C737.864,391.458 742.32,392.993 746.777,394.058C744.077,395.358 740.177,397.358 740.177,397.358L742.377,397.358L742.725,397.357C744.516,397.345 747.076,397.239 750.077,396.958C750.177,396.958 750.377,396.958 750.477,396.958L750.702,396.938C751.826,396.833 752.945,396.646 753.977,396.458C755.077,396.158 756.177,395.958 757.277,395.958L757.477,395.958L757.796,395.993ZM797.577,385.258C797.67,386.289 798.467,387.057 799.473,387.067L799.574,387.065C799.608,387.064 799.642,387.061 799.677,387.058C800.677,386.958 801.377,386.258 801.477,385.258L801.477,353.858L807.977,353.858L807.977,405.658L790.177,405.658L790.177,370.758C790.177,369.658 789.277,368.858 788.277,368.858C787.277,368.858 786.377,369.758 786.377,370.758L786.377,405.658L779.077,405.658L779.077,353.858L797.577,353.858L797.577,385.258ZM848.025,368.17C851.32,368.47 865.177,371.958 865.177,371.958C860.677,376.258 856.077,380.358 851.177,384.258C845.677,388.358 842.977,390.058 831.877,392.658C829.552,393.336 827.133,393.639 824.62,393.657L824.377,393.658C820.477,393.658 816.677,393.058 812.977,391.858L812.977,388.958C817.377,388.058 823.777,386.858 826.677,385.858C832.364,383.758 840.195,379.974 842.064,379.061L842.477,378.858C842.477,378.858 831.777,380.058 824.977,381.558C822.539,382.121 817.641,383.562 813.742,384.564L812.977,384.758L812.977,380.758C816.377,377.858 822.077,373.358 827.177,371.258C832.277,369.158 842.477,368.158 846.677,368.158C847.177,368.158 847.577,368.158 847.877,368.158L848.025,368.17ZM866.898,382.76C868.158,382.79 869.405,383.29 870.277,384.258C872.177,386.058 872.277,388.958 870.477,390.858C869.605,391.536 868.545,392.027 867.48,392.057L867.377,392.058C866.077,392.058 864.777,391.558 863.877,390.558C861.977,388.858 861.877,385.858 863.677,384.058C864.477,383.258 865.577,382.758 866.777,382.758L866.898,382.76ZM764.377,392.058C761.777,392.058 759.277,391.758 756.777,391.258C745.677,388.758 742.977,386.958 737.477,382.958C732.577,379.058 727.977,374.958 723.477,370.658C723.477,370.658 737.777,367.058 740.777,366.858C741.077,366.858 741.477,366.858 741.977,366.858C746.177,366.858 756.377,367.758 761.477,369.958C766.577,372.158 772.277,376.558 775.677,379.458L775.677,383.458C771.577,382.358 766.277,380.758 763.677,380.258C757.727,378.946 748.791,377.863 746.65,377.613L746.177,377.558C746.177,377.558 755.477,382.158 761.977,384.558C764.977,385.658 771.277,386.758 775.677,387.658L775.677,390.558C772.189,391.43 768.42,391.927 764.733,392.048L764.377,392.058ZM722.089,381.059C723.245,381.084 724.302,381.483 725.077,382.258C726.777,384.158 726.677,387.058 724.877,388.858C723.908,389.827 722.752,390.326 721.498,390.357L721.377,390.358C720.177,390.358 719.077,389.958 718.277,389.058C716.577,387.158 716.677,384.258 718.477,382.558C719.377,381.658 720.677,381.058 721.977,381.058L722.089,381.059ZM909.831,357.534C910.9,357.711 912.027,357.908 913.077,358.258C919.677,360.158 927.377,365.458 927.377,365.458C927.377,365.458 916.977,371.458 910.477,374.158C903.977,376.858 900.977,377.758 889.077,377.858L888.877,377.858C884.277,377.758 879.677,377.058 875.277,375.558C879.777,374.558 884.177,373.258 888.377,371.458C889.577,370.958 894.477,370.858 895.777,370.158C898.977,369.458 902.077,368.458 905.177,367.358C905.177,367.358 900.877,366.558 897.877,366.258C901.848,363.836 905.633,360.945 909.047,357.767L909.377,357.458L909.831,357.534ZM679.606,355.967C683.014,359.145 686.705,362.036 690.677,364.458C687.777,364.858 683.377,365.558 683.377,365.558C686.477,366.658 689.577,367.658 692.777,368.358C694.077,369.058 698.977,369.158 700.177,369.658C704.377,371.458 708.777,372.858 713.277,373.758C708.877,375.358 704.277,376.058 699.677,376.158L699.577,376.158C687.777,376.158 684.577,374.958 678.177,372.258C671.777,369.558 661.277,363.558 661.277,363.558C661.277,363.558 668.977,358.258 675.577,356.358C676.233,356.171 677.416,355.895 678.963,355.697L679.277,355.658L679.606,355.967ZM846.081,341.862C846.117,342.886 846.351,351.252 844.477,357.158C844.077,358.258 843.577,359.458 843.077,360.558C838.523,361.333 833.97,362.577 829.599,364.2L829.177,364.358C830.152,362.483 831.352,359.877 831.891,358.691L832.177,358.058C829.577,359.858 826.977,361.758 824.677,363.858C823.377,364.458 820.577,368.258 819.477,368.858C817.249,370.021 815.114,371.371 813.165,372.909L812.977,373.058L812.977,366.258C813.377,365.658 813.777,365.058 814.177,364.458C820.677,355.258 823.377,353.458 829.277,349.958C834.677,346.958 840.277,344.158 846.077,341.758L846.081,341.862ZM912.728,337.02C911.602,339.107 906.877,347.758 903.377,352.658C899.377,358.258 897.377,360.758 887.577,366.758C882.077,369.858 875.677,371.658 869.177,371.658L867.677,371.658C867.677,371.658 864.377,371.458 865.677,370.658C868.777,368.558 877.377,364.158 880.577,361.658C885.389,357.896 891.656,351.76 893.148,350.285L893.477,349.958C893.477,349.958 883.677,354.458 877.677,358.058C874.577,359.958 867.177,365.158 863.977,366.958C863.883,367.052 863.701,367.058 863.514,367.141L863.477,367.158C862.677,367.158 863.877,364.758 863.877,364.758C863.877,364.758 870.077,353.258 876.577,347.758C881.277,343.658 892.477,339.058 895.377,338.358C897.914,337.746 909.486,336.827 912.339,336.607L912.977,336.558L912.728,337.02ZM743.211,340.384C748.726,342.733 754.148,345.452 759.477,348.358C765.377,351.858 768.077,353.658 774.577,362.858C774.977,363.458 775.377,364.058 775.777,364.658L775.777,371.358C773.777,369.758 771.577,368.358 769.377,367.058C768.177,366.458 765.477,362.658 764.177,362.058C761.852,360.024 759.433,358.177 756.829,356.518L756.577,356.358C756.577,356.358 758.071,359.698 759.329,362.175L759.577,362.658C755.077,360.958 750.477,359.658 745.677,358.858C745.177,357.758 744.677,356.658 744.277,355.558C742.277,349.258 742.677,340.158 742.677,340.158L743.211,340.384ZM676.214,334.707C679.067,334.927 690.639,335.846 693.177,336.458C696.077,337.158 707.277,341.858 711.977,345.958C718.377,351.558 724.677,362.958 724.677,362.958C724.677,362.958 725.839,365.284 725.113,365.356L725.077,365.358C724.877,365.358 724.777,365.258 724.577,365.158C721.377,363.358 713.977,358.158 710.877,356.258C705.627,353.108 697.467,349.269 695.509,348.359L695.077,348.158C695.077,348.158 702.577,355.558 707.977,359.858C711.177,362.358 719.677,366.758 722.877,368.858C724.177,369.758 720.877,369.858 720.877,369.858C720.877,369.858 720.437,369.946 719.641,369.957L719.477,369.958C712.977,369.958 706.577,368.158 700.977,364.858C691.177,358.958 689.177,356.458 685.177,350.758C681.177,345.058 675.577,334.658 675.577,334.658L676.214,334.707ZM854.185,352.358C854.428,352.36 854.614,352.371 854.877,352.458C857.477,352.858 859.277,355.158 859.077,357.758C858.978,359.924 857.136,361.605 854.884,361.657L854.777,361.658C854.477,361.658 854.277,361.658 853.977,361.558C851.377,361.158 849.577,358.858 849.777,356.258C849.977,354.058 851.877,352.358 854.077,352.358L854.185,352.358ZM734.579,350.659C736.736,350.711 738.58,352.393 738.777,354.558C738.977,357.158 737.177,359.458 734.577,359.858C734.402,359.946 734.15,359.957 733.889,359.958L733.777,359.958C731.577,359.958 729.677,358.258 729.477,356.058C729.277,353.458 731.077,351.158 733.677,350.758C733.977,350.758 734.177,350.658 734.477,350.658L734.579,350.659ZM885.612,313.456C885.964,314.427 888.77,322.371 888.677,328.558C888.677,329.758 888.577,330.958 888.377,332.158C884.211,334.289 880.327,336.89 876.724,339.869L876.377,340.158C876.752,338.058 877.127,335.171 877.291,333.858L877.377,333.158C875.377,335.658 873.577,338.258 871.877,341.058C870.777,342.058 869.377,346.558 868.477,347.458C865.57,350.752 863.039,354.327 860.793,358.002L860.577,358.358C860.377,353.858 860.877,349.358 862.177,345.058C865.577,334.258 867.577,331.658 872.077,326.458C876.377,321.858 880.877,317.458 885.577,313.358L885.612,313.456ZM703.568,312.208C705.334,313.791 712.652,320.408 716.677,324.958C721.277,330.158 723.177,332.758 726.677,343.558C727.742,347.627 728.245,351.977 728.093,356.336L728.077,356.758C725.877,352.858 723.177,349.258 720.277,345.958C719.377,344.958 717.877,340.558 716.877,339.558C715.377,337.027 713.613,334.496 711.75,332.129L711.377,331.658C711.377,331.658 711.816,335.35 712.283,338.118L712.377,338.658C708.677,335.558 704.677,332.958 700.377,330.658C700.177,329.458 700.077,328.258 700.077,327.058C700.077,320.458 703.177,311.858 703.177,311.858L703.568,312.208ZM919.225,345.761C919.964,345.784 920.62,345.977 921.277,346.258C923.577,347.358 924.577,350.158 923.477,352.458C922.702,353.911 921.27,354.801 919.635,354.856L919.477,354.858C918.677,354.858 917.877,354.658 917.277,354.358C914.977,353.258 913.977,350.458 915.077,348.158C915.877,346.658 917.377,345.758 919.077,345.758L919.225,345.761ZM669.735,344.061C671.37,344.115 672.802,345.005 673.577,346.458C674.677,348.758 673.677,351.558 671.377,352.658C670.72,352.939 670.064,353.133 669.325,353.156L669.177,353.158C667.477,353.158 665.877,352.258 665.177,350.758C664.077,348.458 665.077,345.658 667.377,344.558C668.077,344.158 668.877,344.058 669.577,344.058L669.735,344.061ZM948.777,329.858C947.577,330.458 946.277,331.058 944.677,331.658C940.511,333.499 936.158,334.589 931.617,334.928L931.177,334.958C934.877,332.358 938.377,329.358 941.577,326.058C942.477,325.058 946.877,323.058 947.877,321.958L948.777,321.258L948.777,329.858ZM948.677,298.158C948.377,299.758 948.177,301.358 947.877,302.758C946.377,309.458 945.577,312.558 938.877,321.858C934.777,327.558 929.077,331.858 922.477,334.358C922.008,334.639 921.363,334.833 920.708,334.856L920.577,334.858C920.177,334.858 919.977,334.758 920.277,334.258C922.377,331.158 928.477,323.658 930.377,320.158C933.264,314.821 936.688,306.65 937.498,304.691L937.677,304.258C937.677,304.258 930.477,312.258 926.277,317.958C924.177,320.858 919.377,328.658 917.177,331.458C916.989,331.646 916.889,331.833 916.713,331.856L916.677,331.858C916.077,331.858 916.177,329.458 916.177,329.458C916.177,329.458 917.377,316.458 921.177,308.858C923.877,303.258 932.377,294.658 934.777,292.758C936.677,291.258 945.077,286.858 948.677,284.958L948.677,298.158ZM625.738,302.259C627.04,302.271 628.264,302.364 629.577,302.458C630.777,302.658 632.077,302.958 633.277,303.258C635.117,307.521 637.427,311.596 640.115,315.483L640.377,315.858C637.577,315.058 633.277,314.058 633.277,314.058C635.677,316.358 638.177,318.358 640.877,320.358C641.777,321.558 646.277,323.558 647.177,324.458C650.18,327.655 653.558,330.477 657.13,333.104L657.477,333.358C652.777,332.958 648.277,331.858 643.977,330.058C633.177,325.358 630.677,323.058 625.777,318.058C620.877,313.058 613.577,303.458 613.577,303.458C617.355,302.683 621.227,302.284 625.102,302.259L625.477,302.258L625.738,302.259ZM638.94,282.754C641.462,284.08 651.689,289.483 653.877,291.058C656.377,292.858 664.777,301.558 667.477,307.158C671.177,314.758 672.477,327.758 672.477,327.758C672.477,327.758 672.573,330.083 672.004,330.156L671.977,330.158C671.877,330.158 671.677,330.058 671.477,329.758C669.277,326.858 664.477,319.158 662.377,316.258C658.789,311.271 652.828,304.522 651.394,302.913L651.077,302.558C651.077,302.558 655.077,312.258 658.377,318.458C660.277,322.058 666.477,329.458 668.477,332.558C668.664,333.027 668.5,333.232 668.149,333.256L668.077,333.258C667.377,333.158 666.677,333.058 666.077,332.758C659.577,330.258 653.877,325.958 649.777,320.258C643.077,310.958 642.177,307.858 640.777,301.058C639.377,294.258 638.377,282.458 638.377,282.458L638.94,282.754ZM898.384,320.559C900.639,320.608 902.584,322.193 903.077,324.358C903.577,326.758 902.077,329.058 899.677,329.558C899.577,329.558 899.477,329.558 899.377,329.658C899.152,329.733 898.927,329.752 898.744,329.757L898.577,329.758C896.277,329.758 894.277,328.158 893.777,325.958C893.277,323.558 894.777,321.258 897.177,320.758C897.277,320.758 897.377,320.758 897.477,320.658C897.777,320.658 897.977,320.558 898.277,320.558L898.384,320.559ZM690.685,318.958C690.928,318.96 691.114,318.971 691.377,319.058C693.777,319.358 695.477,321.658 695.077,324.058C695.077,324.158 695.077,324.258 694.977,324.358C694.484,326.425 692.539,328.008 690.284,328.057L690.177,328.058C689.877,328.058 689.677,328.058 689.377,327.958C686.977,327.658 685.277,325.458 685.677,323.058C685.677,322.958 685.677,322.858 685.777,322.758C686.277,320.558 688.277,318.958 690.577,318.958L690.685,318.958ZM916.148,274.034C916.85,274.782 922.539,280.94 924.977,286.658C925.377,287.758 925.777,288.958 926.077,290.158C923.17,293.839 920.546,297.708 918.384,301.856L918.177,302.258C917.652,300.158 916.845,297.383 916.475,296.127L916.277,295.458C915.377,298.558 914.777,301.658 914.377,304.858C913.777,306.258 914.177,310.858 913.777,312.158C912.42,316.13 911.439,320.384 910.925,324.646L910.877,325.058C908.877,321.058 907.577,316.658 907.077,312.258C905.977,300.958 906.777,297.758 908.877,291.258C910.977,284.758 916.077,273.958 916.077,273.958L916.148,274.034ZM672.9,272.735C673.905,274.891 678.039,283.871 679.877,289.558C681.977,296.058 682.877,299.358 681.677,310.558C681.095,314.918 679.951,319.089 678.062,323.073L677.877,323.458C677.377,319.058 676.377,314.658 674.977,310.458C674.577,309.258 674.977,304.558 674.377,303.158C673.977,299.958 673.277,296.858 672.477,293.758C672.477,293.758 671.422,297.274 670.713,300.02L670.577,300.558C668.377,296.258 665.677,292.158 662.677,288.458C662.977,287.258 663.377,286.158 663.777,284.958C666.214,279.24 671.903,273.082 672.605,272.334L672.677,272.258L672.9,272.735ZM948.877,317.358L948.377,317.558L948.877,316.858L948.877,317.358ZM627.87,288.328C630.072,288.402 631.905,290.093 632.177,292.358C632.472,294.819 630.733,296.989 628.293,297.343L628.177,297.358L627.077,297.358C626.92,297.377 626.765,297.387 626.612,297.39L626.497,297.391C624.244,297.373 622.353,295.663 622.077,293.358C621.777,290.858 623.577,288.658 626.077,288.358L627.177,288.358L627.294,288.346C627.449,288.331 627.603,288.324 627.756,288.326L627.87,288.328ZM932.436,275.201C933.955,275.219 935.439,275.946 936.377,277.258C937.777,279.258 937.277,281.958 935.377,283.358C935.277,283.458 935.177,283.458 935.077,283.558C934.327,284.027 933.489,284.232 932.645,284.256L932.477,284.258C930.877,284.258 929.377,283.558 928.477,282.258C927.077,280.258 927.577,277.558 929.477,276.158C929.514,276.121 929.552,276.097 929.589,276.077L929.664,276.039C929.702,276.019 929.739,275.996 929.777,275.958C930.567,275.455 931.448,275.21 932.322,275.201L932.436,275.201ZM656.445,273.503C657.282,273.532 658.12,273.777 658.877,274.258C660.977,275.558 661.577,278.258 660.377,280.258C660.277,280.358 660.277,280.458 660.177,280.558C659.305,281.817 657.87,282.608 656.326,282.656L656.177,282.658C655.277,282.658 654.377,282.358 653.577,281.858C651.477,280.558 650.877,277.858 652.077,275.858C652.177,275.758 652.177,275.658 652.277,275.558C653.238,274.213 654.773,273.483 656.331,273.501L656.445,273.503ZM621.301,221.288C623.198,223.216 630.877,231.058 632.277,233.158C633.877,235.558 639.077,245.958 639.877,252.058C641.077,260.258 638.577,272.758 638.577,272.758C638.577,272.758 638.092,274.889 637.6,274.957L637.577,274.958C637.477,274.958 637.277,274.858 637.177,274.458C635.977,271.158 633.977,262.558 632.877,259.258C630.777,252.758 626.577,243.258 626.577,243.258C626.577,243.258 627.377,253.458 628.577,260.158C629.277,264.058 632.677,272.658 633.677,276.258C633.77,276.539 633.688,276.733 633.513,276.756L633.477,276.758C632.877,276.758 631.577,275.758 631.577,275.758C626.377,271.558 622.577,265.858 620.477,259.558C617.177,248.958 617.177,245.758 617.777,239.058C618.302,233.196 620.281,223.658 620.768,221.365L620.877,220.858L621.301,221.288ZM593.076,233.767C594.054,233.854 602.039,234.627 607.477,237.158C608.577,237.658 609.577,238.258 610.577,238.958C611.061,243.511 611.921,247.971 613.247,252.336L613.377,252.758C611.364,251.358 608.433,249.575 607.731,249.152L607.577,249.058C609.077,251.858 610.777,254.458 612.577,257.058C613.077,258.458 616.477,261.458 617.077,262.658C618.82,266.533 621.033,270.127 623.534,273.529L623.777,273.858C619.677,272.258 615.977,269.958 612.577,267.058C604.277,259.658 602.677,256.858 599.677,250.858C596.677,244.858 592.977,233.758 592.977,233.758L593.076,233.767ZM934.362,222.21C935.201,222.724 942.027,226.977 945.777,231.758C946.477,232.658 947.177,233.658 947.777,234.658C946.13,238.921 944.952,243.277 944.153,247.818L944.077,248.258C942.677,245.858 940.477,242.358 940.477,242.358C940.577,245.458 940.877,248.658 941.377,251.758C941.277,253.158 942.877,257.458 942.877,258.758C942.877,262.924 943.252,267.183 943.912,271.355L943.977,271.758C941.077,268.458 938.677,264.758 936.977,260.758C932.777,250.458 932.677,247.258 932.677,240.458C932.677,234.508 933.902,224.96 934.208,222.666L934.277,222.158L934.362,222.21ZM654.341,220.966C654.63,223.26 655.789,232.808 655.877,238.758C655.977,245.558 655.777,248.758 651.577,259.058C650.027,263.03 647.726,266.627 644.947,269.848L644.677,270.158C645.377,265.858 645.777,261.458 645.677,257.058C645.677,255.758 647.277,251.458 647.177,250.058C647.677,246.958 647.977,243.858 648.077,240.658C648.077,240.658 646.143,243.735 644.748,246.096L644.477,246.558C643.677,241.958 642.477,237.358 640.777,232.958C641.377,231.958 642.077,230.958 642.777,230.058C646.526,225.371 653.352,221.035 654.191,220.511L654.277,220.458L654.341,220.966ZM948.777,264.758C948.377,261.058 948.377,257.358 948.777,253.658L948.777,264.758ZM797.524,244.157C802.126,244.126 805.97,243.627 808.877,242.658C811.877,241.658 814.277,240.758 815.977,239.858L819.677,251.058C818.777,251.658 817.677,252.258 816.177,252.758C814.677,253.358 812.977,253.858 810.877,254.458C808.877,254.958 806.577,255.458 804.077,255.758C801.452,256.227 798.914,256.432 796.218,256.456L795.677,256.458C790.077,256.458 784.977,255.558 780.477,253.858C775.977,252.158 772.177,249.558 769.077,246.158C765.977,242.758 763.577,238.658 761.877,233.858C760.177,229.058 759.377,223.458 759.377,217.158C759.377,210.858 760.377,205.258 762.277,200.458C764.177,195.658 766.777,191.458 770.177,188.158C773.477,184.758 777.377,182.258 781.877,180.458C786.377,178.758 791.177,177.858 796.277,177.858L796.854,177.861C799.726,177.884 802.339,178.089 804.777,178.558C807.277,179.058 809.477,179.558 811.377,180.158C813.277,180.758 814.777,181.358 816.077,181.958C817.277,182.658 818.177,183.058 818.677,183.358L814.677,194.558C812.977,193.458 810.477,192.458 807.277,191.458C804.077,190.458 800.577,189.958 796.777,189.958C793.477,189.958 790.477,190.558 787.677,191.658C784.877,192.758 782.377,194.458 780.377,196.658C778.277,198.858 776.677,201.758 775.577,205.158C774.377,208.558 773.877,212.458 773.877,216.958C773.877,220.958 774.377,224.558 775.277,227.958C776.177,231.258 777.577,234.158 779.477,236.558C781.377,238.958 783.777,240.858 786.677,242.158C789.577,243.458 793.077,244.158 797.077,244.158L797.524,244.157ZM839.377,254.858L825.177,254.858C827.977,246.858 830.677,239.358 833.177,232.558C835.677,225.758 838.177,219.358 840.577,213.258C842.977,207.158 845.377,201.358 847.777,195.858C850.177,190.358 852.577,184.958 855.177,179.558L868.277,179.558C870.777,184.958 873.277,190.358 875.677,195.858C878.077,201.358 880.477,207.158 882.877,213.258C885.277,219.358 887.777,225.758 890.377,232.558C892.976,239.358 895.676,246.757 898.477,254.858L883.677,254.858C882.677,251.858 881.577,248.958 880.477,246.058C879.377,243.158 878.377,240.158 877.277,237.158L845.577,237.158C844.576,240.158 843.477,243.158 842.477,246.158C841.377,249.058 840.377,251.957 839.377,254.858ZM752.277,191.158L718.377,191.158L718.377,210.358L748.477,210.358L748.477,221.958L718.377,221.958L718.377,254.758L704.677,254.758L704.677,179.558L752.277,179.558L752.277,191.158ZM608.093,223.058C608.375,223.06 608.714,223.071 608.977,223.158C611.377,223.658 612.877,226.058 612.277,228.458C611.883,230.525 610.132,231.914 608.075,231.957L607.977,231.958C607.677,231.958 607.277,231.958 606.977,231.858C604.577,231.358 603.077,228.958 603.677,226.558C604.177,224.558 605.977,223.058 607.977,223.058L608.093,223.058ZM948.777,227.258C948.377,227.158 948.077,226.858 947.677,226.658C945.777,225.058 945.477,222.258 947.077,220.458C947.477,219.958 948.077,219.458 948.777,219.258L948.777,227.258ZM873.445,224.862C871.29,218.898 869.145,213.215 867.177,208.058C864.877,202.458 862.977,197.858 861.477,194.158C859.777,197.958 857.877,202.658 855.777,208.158C853.677,213.658 851.377,219.658 849.077,226.058L873.877,226.058L873.445,224.862ZM638.393,217.06C640.835,217.121 642.677,219.097 642.677,221.558C642.677,222.858 642.077,224.158 641.077,224.958C640.289,225.571 639.425,225.954 638.551,225.973L638.458,225.973C638.364,225.973 638.27,225.968 638.177,225.958C635.677,225.958 633.777,223.958 633.777,221.458C633.777,218.958 635.777,217.058 638.277,217.058L638.393,217.06ZM631.749,162.635C632.52,165.221 635.627,175.721 635.977,178.258C636.377,181.158 635.977,192.758 633.977,198.458C631.177,206.258 623.077,216.158 623.077,216.158C623.077,216.158 621.624,217.708 621.005,217.757L620.977,217.758C620.777,217.758 620.677,217.558 620.777,217.158C621.277,213.658 623.477,205.158 624.077,201.658C625.277,194.958 625.977,184.558 625.977,184.558C625.977,184.558 621.977,193.958 619.977,200.458C618.777,204.258 617.777,213.458 616.977,217.058C616.883,217.339 616.789,217.445 616.695,217.457L616.677,217.458C616.177,217.458 615.377,215.658 615.377,215.658C612.777,209.558 611.977,202.758 613.177,196.158C615.177,185.258 616.677,182.458 620.377,176.758C623.614,171.771 629.761,164.257 631.247,162.456L631.577,162.058L631.749,162.635ZM660.999,177.838C660.191,180.007 656.789,189.008 654.077,194.258C650.977,200.258 649.377,203.058 640.877,210.258C637.486,213.068 633.814,215.126 629.86,216.707L629.477,216.858C632.177,213.358 634.477,209.658 636.477,205.758C637.077,204.558 640.477,201.558 641.077,200.258C642.858,197.914 644.463,195.483 645.975,192.881L646.277,192.358C646.277,192.358 642.898,194.235 640.596,195.716L640.377,195.858C641.877,191.358 642.877,186.858 643.477,182.158C644.877,181.358 645.977,180.758 646.577,180.458C652.477,177.858 661.177,177.358 661.177,177.358L660.999,177.838ZM927.676,179.064C928.653,179.129 936.645,179.721 942.177,182.158C943.277,182.658 944.277,183.258 945.277,183.858C945.858,188.411 946.814,192.777 948.237,197.136L948.377,197.558C946.364,196.246 943.356,194.55 942.636,194.147L942.477,194.058C943.977,196.758 945.777,199.458 947.577,201.958C947.877,202.558 948.277,203.158 948.777,203.558L948.777,212.658C948.664,212.583 948.552,212.494 948.439,212.402L948.214,212.215C948.102,212.122 947.989,212.033 947.877,211.958C939.377,204.758 937.777,201.958 934.677,195.958C931.577,189.958 927.577,179.058 927.577,179.058L927.676,179.064ZM600.761,160.612C601.589,161.148 608.321,165.577 611.977,170.358C612.677,171.358 613.277,172.358 613.877,173.358C612.133,177.524 610.858,181.971 609.962,186.427L609.877,186.858C608.902,185.058 607.42,182.583 606.741,181.458L606.377,180.858C606.377,183.958 606.677,187.158 607.077,190.258C606.877,191.658 608.477,196.058 608.377,197.258C608.28,201.521 608.464,205.783 609.112,209.955L609.177,210.358C606.277,207.058 604.077,203.258 602.477,199.158C598.477,188.758 598.477,185.558 598.677,178.758C598.852,172.808 600.252,163.336 600.599,161.061L600.677,160.558L600.761,160.612ZM942.489,167.958C942.752,167.96 943.014,167.971 943.277,168.058C945.677,168.558 947.277,170.858 946.777,173.258C946.284,175.325 944.533,176.811 942.475,176.857L942.377,176.858C942.077,176.858 941.777,176.858 941.477,176.758C939.077,176.258 937.477,173.958 937.977,171.558C938.377,169.458 940.177,167.958 942.377,167.958L942.489,167.958ZM646.493,166.36C648.936,166.421 650.778,168.396 650.877,170.758C650.877,172.858 649.377,174.658 647.277,175.158C646.902,175.158 646.615,175.246 646.333,175.257L646.277,175.258C643.777,175.258 641.877,173.258 641.877,170.858C641.877,168.758 643.377,166.958 645.477,166.458C645.777,166.358 646.077,166.358 646.377,166.358L646.493,166.36ZM616.942,157.601C617.942,157.634 618.945,158.014 619.777,158.758C621.677,160.358 621.877,163.158 620.177,165.058C619.305,165.833 618.151,166.42 616.898,166.456L616.777,166.458C614.277,166.458 612.377,164.458 612.377,162.058C612.377,160.958 612.777,159.958 613.477,159.158C614.352,158.119 615.586,157.588 616.835,157.599L616.942,157.601ZM911.658,128.059C913.064,128.071 914.47,128.171 915.877,128.358C916.577,128.458 917.777,128.758 919.377,129.158C921.023,133.421 923.14,137.496 925.634,141.292L925.877,141.658C923.514,140.871 920.233,140.007 919.449,139.803L919.277,139.758C921.477,141.958 923.777,144.058 926.277,146.058C927.177,147.258 931.277,149.258 932.077,150.258C934.886,153.455 937.977,156.37 941.349,159.004L941.677,159.258C937.277,158.858 933.077,157.658 929.077,155.758C919.077,150.958 916.777,148.658 912.177,143.658C907.577,138.658 900.977,129.058 900.977,129.058C904.377,128.458 907.877,128.058 911.377,128.058L911.658,128.059ZM677.705,126.459C681.095,126.483 684.483,126.877 687.777,127.458C687.777,127.458 681.077,136.958 676.577,142.058C672.077,147.158 669.777,149.358 659.677,154.158C655.802,155.902 651.645,156.989 647.389,157.51L646.977,157.558C650.477,154.858 653.677,151.858 656.577,148.658C657.377,147.658 661.577,145.658 662.377,144.458C664.72,142.677 666.888,140.72 668.963,138.587L669.377,138.158C669.377,138.158 665.861,139.125 663.279,139.905L662.777,140.058C665.377,136.158 667.477,131.958 669.277,127.558C670.377,127.258 671.577,126.958 672.777,126.758C674.183,126.571 675.589,126.471 677.078,126.459L677.377,126.458L677.705,126.459ZM926.395,106.959C928.281,108.322 936.102,114.021 940.477,117.958C943.977,121.258 946.177,123.358 948.777,127.858L948.777,144.658C948.177,143.358 947.477,142.058 946.777,140.858C943.627,135.783 938.409,128.947 937.154,127.318L936.877,126.958C936.877,126.958 940.177,136.858 943.077,143.058C944.177,145.458 946.877,150.558 948.777,154.258L948.777,157.458C948.377,157.258 947.977,156.958 947.977,156.958C947.977,156.958 937.677,149.358 932.977,142.558C929.577,137.558 926.277,126.358 925.877,123.458C925.477,120.558 925.977,106.658 925.977,106.658L926.395,106.959ZM662.797,105.961C662.888,108.661 663.227,119.621 662.877,122.158C662.477,125.058 659.177,136.158 655.777,141.258C651.077,148.058 640.777,155.658 640.777,155.658C640.12,155.752 639.464,156.021 638.808,156.22L638.677,156.258C638.477,156.258 638.277,156.058 638.477,155.658C639.877,152.458 644.077,144.758 645.577,141.558C648.027,136.133 650.936,127.875 651.625,125.896L651.777,125.458C651.777,125.458 645.477,133.558 641.877,139.358C639.777,142.758 636.477,151.358 634.777,154.658C634.683,154.846 634.589,155.033 634.413,155.056L634.377,155.058C633.877,155.058 633.577,152.958 633.577,152.958C632.577,146.358 633.577,139.558 636.377,133.558C641.077,123.458 643.277,121.158 648.277,116.658C653.277,112.158 662.777,105.358 662.777,105.358L662.797,105.961ZM633.443,95.832C634.102,96.558 639.433,102.534 641.777,108.158C642.177,109.258 642.577,110.358 642.877,111.558C640.164,115.143 637.827,119.102 635.865,123.165L635.677,123.558C635.152,121.533 634.402,118.777 634.059,117.525L633.877,116.858C633.077,119.858 632.577,122.958 632.177,126.158C631.677,127.458 632.077,132.058 631.677,133.258C630.417,137.327 629.533,141.583 629.025,145.755L628.977,146.158C627.077,142.158 625.877,137.958 625.277,133.658C624.077,122.558 624.777,119.458 626.777,112.958C628.777,106.458 633.377,95.758 633.377,95.758L633.443,95.832ZM914.125,114.558C916.46,114.646 918.277,116.571 918.277,118.858C918.377,121.358 916.377,123.358 913.977,123.358L913.777,123.458C911.277,123.458 909.377,121.358 909.377,118.958C909.377,116.658 911.177,114.758 913.577,114.558L913.777,114.558L913.893,114.555L914.009,114.555L914.125,114.558ZM674.96,112.855L675.077,112.858L675.277,112.858L675.393,112.864C677.836,113.021 679.675,114.996 679.577,117.358C679.481,119.741 677.569,121.67 675.312,121.759L675.201,121.761C675.127,121.762 675.052,121.761 674.977,121.758L674.777,121.758L674.66,121.752C672.218,121.596 670.378,119.619 670.477,117.158C670.573,114.737 672.453,112.878 674.844,112.855L674.96,112.855ZM948.777,117.558C947.877,116.058 946.877,114.658 945.777,113.258C946.077,112.158 946.477,110.958 946.877,109.858C947.377,108.558 948.077,107.358 948.777,106.258L948.777,117.558ZM878.896,91.966C882.202,95.139 885.702,97.939 889.577,100.458C886.777,100.758 882.777,101.358 882.777,101.358C885.677,102.558 888.677,103.458 891.777,104.258C892.977,104.958 897.577,105.158 898.777,105.658C902.777,107.458 906.877,108.958 911.177,109.958C907.177,111.258 903.077,111.858 898.877,111.958L898.077,111.958C886.977,111.658 883.977,110.558 877.777,107.758C871.577,104.958 861.677,98.958 861.677,98.958C861.677,98.958 868.777,93.958 875.077,92.258C875.689,92.083 876.684,91.908 877.996,91.733L878.577,91.658L878.896,91.966ZM710.572,89.997C712.025,90.195 713.12,90.471 713.777,90.658C719.977,92.358 727.177,97.358 727.177,97.358C727.177,97.358 717.177,103.358 711.077,106.158C705.072,108.914 701.974,110.023 691.291,110.344L690.777,110.358L689.777,110.258C685.677,110.258 681.577,109.558 677.677,108.258C681.977,107.258 686.077,105.758 690.077,103.958C691.277,103.358 695.877,103.258 697.077,102.558C700.177,101.758 703.177,100.858 706.077,99.658C706.077,99.658 701.977,99.058 699.277,98.758C703.277,96.258 706.877,93.258 710.277,89.958L710.572,89.997ZM940.212,98.54C941.036,98.556 941.858,98.791 942.577,99.258C944.577,100.658 945.077,103.458 943.777,105.458C942.905,106.621 941.564,107.408 940.208,107.456L940.077,107.458C939.177,107.458 938.277,107.158 937.577,106.658C935.577,105.258 935.077,102.458 936.377,100.458C937.252,99.208 938.673,98.544 940.105,98.539L940.212,98.54ZM648.793,96.86C651.235,96.921 653.077,98.896 653.077,101.258C653.077,103.719 651.139,105.696 648.789,105.757L648.677,105.758C646.177,105.758 644.277,103.758 644.277,101.358C644.277,99.858 644.977,98.558 646.177,97.658C646.877,97.158 647.777,96.858 648.677,96.858L648.793,96.86ZM875.883,68.561C878.172,69.03 887.677,71.021 893.277,72.858C899.677,74.958 902.577,76.158 910.977,83.458C915.977,87.858 919.677,93.658 921.477,100.058C921.477,100.058 922.058,102.286 921.504,102.357L921.477,102.358C921.377,102.358 921.177,102.258 921.077,102.158C918.277,99.858 911.677,93.358 908.377,91.058C903.477,87.646 895.897,83.544 894.079,82.572L893.677,82.358C893.677,82.358 900.777,90.058 905.877,94.558C908.577,96.858 915.577,102.158 918.177,104.558C918.645,105.308 918.147,105.443 917.506,105.457L917.377,105.458C916.877,105.458 916.377,105.358 915.877,105.358C915.877,105.358 903.377,102.658 896.277,98.358C891.077,95.158 883.577,86.358 882.077,83.858C880.577,81.358 875.377,68.458 875.377,68.458L875.883,68.561ZM713.25,67.317C712.233,69.821 708.077,79.971 706.677,82.158C705.077,84.658 697.677,93.458 692.477,96.658C685.377,100.958 672.877,103.658 672.877,103.658C672.314,103.752 671.84,103.758 671.37,103.841L671.277,103.858C670.577,103.858 669.977,103.758 670.677,103.058C673.277,100.658 680.277,95.358 682.977,93.058C687.439,89.121 693.433,82.733 694.862,81.198L695.177,80.858C695.177,80.858 686.177,85.658 680.477,89.458C677.177,91.658 670.577,98.258 667.777,100.558C667.683,100.652 667.589,100.746 667.413,100.757L667.377,100.758C666.777,100.758 667.377,98.458 667.377,98.458C669.177,92.058 672.777,86.258 677.877,81.858C686.277,74.558 689.177,73.358 695.577,71.258C701.177,69.421 710.681,67.353 712.97,66.865L713.477,66.758L713.25,67.317ZM898.755,48.404C900.461,49.967 907.527,56.508 911.377,61.058C915.777,66.258 917.677,68.758 921.077,79.358C922.336,83.33 922.938,87.584 922.884,91.846L922.877,92.258C920.677,88.458 918.177,84.858 915.277,81.558C914.377,80.558 912.977,76.258 911.877,75.258C910.377,72.727 908.701,70.283 906.932,67.928L906.577,67.458C906.577,67.458 907.016,71.062 907.483,73.737L907.577,74.258C903.977,71.258 900.177,68.558 896.077,66.258C895.877,64.658 895.777,63.358 895.677,62.758C895.477,56.258 898.377,48.058 898.377,48.058L898.755,48.404ZM690.408,46.453C690.716,47.389 693.17,55.059 693.077,61.058C692.977,62.258 692.877,63.458 692.677,64.558C688.705,66.786 684.921,69.39 681.506,72.278L681.177,72.558C681.552,70.533 681.927,67.721 682.091,66.441L682.177,65.758C680.277,68.258 678.477,70.858 676.877,73.558C675.877,74.558 674.377,78.958 673.477,79.858C670.667,83.055 668.139,86.533 666.075,90.203L665.877,90.558C665.777,86.158 666.277,81.758 667.577,77.658C670.977,67.058 672.977,64.458 677.377,59.358C681.227,54.896 688.292,48.289 689.998,46.708L690.377,46.358L690.408,46.453ZM869.193,80.16C871.635,80.221 873.477,82.196 873.477,84.558C873.477,86.258 872.577,87.758 871.077,88.558C870.514,88.746 869.864,88.933 869.208,88.956L869.077,88.958C866.577,88.958 864.677,86.958 864.677,84.558C864.677,82.058 866.677,80.158 869.077,80.158L869.193,80.16ZM719.708,78.461C720.364,78.484 721.014,78.677 721.577,78.958C723.777,80.058 724.677,82.758 723.577,84.958C722.802,86.314 721.37,87.201 719.735,87.346L719.577,87.358C718.877,87.358 718.177,87.158 717.577,86.858C715.377,85.758 714.477,83.058 715.677,80.858C716.477,79.358 717.977,78.458 719.577,78.458L719.708,78.461ZM844.239,73.958C844.851,73.957 845.464,73.946 846.077,73.858C846.777,73.758 847.477,73.758 848.077,73.758C848.477,73.758 848.877,73.758 849.277,73.858C853.577,74.858 857.877,75.558 862.277,75.758C858.477,77.858 854.277,79.358 849.977,80.058C846.586,80.93 843.101,81.333 839.614,81.357L839.277,81.358C835.877,81.258 832.577,80.858 829.277,79.858C822.677,78.258 811.777,74.158 811.777,74.158C811.777,74.158 817.877,67.858 823.677,65.058C824.239,64.777 825.329,64.32 826.699,63.852L826.977,63.758L827.343,64.001C831.133,66.495 835.114,68.614 839.377,70.358C836.677,71.158 832.877,72.558 832.877,72.558C835.977,73.158 839.077,73.558 842.177,73.758C842.777,73.858 843.377,73.958 843.977,73.958L844.239,73.958ZM749.477,79.758C745.877,79.658 742.277,79.358 738.677,78.658C734.377,77.958 730.177,76.458 726.377,74.358C730.777,74.158 735.077,73.458 739.377,72.458C739.777,72.358 740.177,72.358 740.577,72.358C741.177,72.358 741.877,72.358 742.577,72.458C743.277,72.558 744.077,72.558 744.677,72.558L744.902,72.558C745.426,72.555 745.952,72.533 746.477,72.358C749.577,72.158 752.677,71.758 755.777,71.158C755.777,71.158 751.877,69.758 749.277,68.958C753.442,67.214 757.514,65.095 761.31,62.601L761.677,62.358L761.954,62.452C763.324,62.92 764.414,63.377 764.977,63.658C770.777,66.458 776.877,72.658 776.877,72.658C776.877,72.658 765.977,76.758 759.377,78.358C756.277,79.133 752.989,79.627 749.786,79.748L749.477,79.758ZM820.092,41.769C822.423,41.819 832.114,42.071 837.977,42.858C844.677,43.758 847.777,44.458 857.377,50.058C863.177,53.458 867.777,58.458 870.677,64.458C870.677,64.458 871.742,66.589 871.108,66.657L871.077,66.658C870.977,66.658 870.777,66.658 870.677,66.558C867.477,64.858 859.777,59.558 856.177,58.058C850.752,55.696 842.57,53.027 840.61,52.397L840.177,52.258C840.177,52.258 848.577,58.558 854.377,61.958C857.377,63.758 865.277,67.658 868.277,69.558C869.589,70.433 867.073,70.543 866.424,70.556L866.277,70.558C866.277,70.558 853.477,70.258 845.777,67.258C840.077,65.058 831.077,57.758 829.077,55.558C827.077,53.358 819.577,41.758 819.577,41.758L820.092,41.769ZM768.75,40.757C767.288,42.988 761.327,52.033 759.577,53.958C757.577,56.158 748.577,63.458 742.877,65.658C735.752,68.377 723.97,68.898 722.523,68.953L722.377,68.958C722.377,68.958 718.877,68.858 720.377,67.958C723.377,66.058 731.277,62.158 734.277,60.358C739.352,57.296 746.417,52.166 748.104,50.931L748.477,50.658C748.477,50.658 738.677,53.758 732.477,56.458C728.877,58.058 721.177,63.258 717.977,65.058C717.889,65.146 717.802,65.157 717.647,65.158L717.577,65.158C716.877,65.158 717.977,62.958 717.977,62.958C720.877,56.958 725.577,51.958 731.277,48.558C740.877,42.858 743.977,42.258 750.677,41.358C757.377,40.458 769.077,40.258 769.077,40.258L768.75,40.757ZM886.569,54.755C886.605,54.756 886.641,54.757 886.677,54.758C886.977,54.758 887.177,54.758 887.477,54.858C889.877,55.358 891.477,57.658 890.977,60.058C890.583,62.125 888.736,63.611 886.675,63.657L886.577,63.658C886.277,63.658 886.077,63.658 885.777,63.558C883.377,63.158 881.677,60.958 882.077,58.558C882.367,56.427 884.253,54.765 886.462,54.754L886.569,54.755ZM816.493,54.26C818.939,54.321 820.877,56.296 820.877,58.658C820.877,60.058 820.277,61.358 819.177,62.158C818.402,62.836 817.533,63.139 816.57,63.157L816.477,63.158C813.977,63.158 811.977,61.158 811.977,58.758C811.977,56.358 813.977,54.258 816.377,54.258L816.493,54.26ZM702.189,53.16C704.539,53.221 706.477,55.196 706.477,57.558C706.477,59.658 704.977,61.458 702.877,61.858C702.614,61.946 702.428,61.957 702.185,61.958L702.077,61.958C699.677,61.958 697.677,59.958 697.677,57.558C697.677,55.158 699.677,53.158 702.077,53.158L702.189,53.16ZM772.393,52.56C774.835,52.621 776.677,54.597 776.677,57.058C776.677,58.058 776.377,58.958 775.777,59.758C774.905,60.824 773.658,61.42 772.308,61.456L772.177,61.458C769.677,61.458 767.777,59.458 767.777,56.958C767.777,54.458 769.777,52.558 772.277,52.558L772.393,52.56ZM838.912,17.529C840.878,18.755 849.027,23.896 853.577,27.658C858.777,31.958 861.177,34.158 866.477,43.958C868.608,47.833 869.988,51.896 870.618,56.055L870.677,56.458C867.877,53.158 864.677,50.058 861.277,47.358C860.277,46.558 857.977,42.558 856.777,41.758C854.808,39.508 852.751,37.434 850.524,35.453L850.077,35.058C850.077,35.058 851.219,38.486 852.186,41.057L852.377,41.558C848.277,39.158 844.077,37.258 839.577,35.658C839.177,34.558 838.877,33.358 838.577,32.258C837.277,25.958 838.477,17.258 838.477,17.258L838.912,17.529ZM750.19,15.856C750.317,16.826 751.295,24.759 750.077,30.758C749.877,31.458 749.577,32.658 749.077,34.158C744.814,35.611 740.645,37.44 736.662,39.735L736.277,39.958C737.277,37.358 738.577,33.458 738.577,33.458C736.177,35.558 733.977,37.758 731.977,40.158C730.777,40.958 728.477,44.958 727.477,45.758C724.086,48.374 721.071,51.271 718.249,54.45L717.977,54.758C718.677,50.458 720.077,46.258 722.077,42.358C727.377,32.558 729.777,30.358 734.977,26.158C739.527,22.483 747.752,17.277 749.737,16.033L750.177,15.758L750.19,15.856ZM829.193,26.16C831.639,26.221 833.577,28.196 833.577,30.558C833.478,33.019 831.636,34.996 829.193,35.057L829.077,35.058C826.577,35.058 824.577,33.058 824.577,30.558C824.577,28.058 826.577,26.158 829.077,26.158L829.193,26.16ZM759.693,24.56C762.135,24.621 763.977,26.596 763.977,28.958C763.977,31.321 762.135,33.296 759.693,33.357L759.577,33.358C757.077,33.358 755.177,31.358 755.177,28.958C755.177,26.558 757.177,24.558 759.577,24.558L759.693,24.56Z" style="fill:white;fill-opacity:0.698039;fill-rule:nonzero;"/>
            </g>
            <g transform="matrix(1,0,0,1,0.694501,0.344772)">
                <path d="M33.181,269.259C33.449,269.26 38.913,261.832 44.477,257.858C45.077,257.458 46.277,256.758 47.677,255.958C51.877,258.058 56.377,259.658 60.977,260.758C58.377,262.058 54.477,264.258 54.477,264.258C54.477,264.258 55.277,264.258 56.577,264.258C59.077,264.258 61.577,264.158 64.077,263.858C64.177,263.858 64.377,263.858 64.477,263.858C65.677,263.758 66.777,263.558 67.877,263.258C68.977,262.958 70.077,262.758 71.077,262.658L71.577,262.658C73.277,262.858 74.977,262.958 76.677,262.858C79.477,262.858 82.277,262.658 84.977,262.358C81.277,265.258 77.177,267.458 72.777,269.058C64.777,271.758 60.877,272.558 56.777,272.558C55.177,272.558 53.577,272.458 51.577,272.258C45.378,271.558 39.28,270.559 33.181,269.259C33.179,269.259 33.178,269.259 33.177,269.258L33.181,269.259ZM151.277,262.258C154.377,262.558 157.077,262.658 158.777,262.658C160.077,262.658 160.877,262.658 160.877,262.658C160.877,262.658 157.077,260.558 154.377,259.258C158.977,258.158 163.377,256.458 167.677,254.358C169.177,255.158 170.377,255.858 170.877,256.258C176.477,260.258 182.077,267.958 182.077,267.958C175.977,269.258 169.877,270.258 163.677,270.958C161.777,271.058 160.077,271.158 158.577,271.158C154.477,271.158 150.477,270.458 142.577,267.758C138.177,266.158 134.077,263.858 130.477,260.958C133.277,261.258 135.977,261.458 138.777,261.458C140.577,261.358 142.277,261.258 143.977,261.058L144.177,261.058C145.277,261.158 146.377,261.358 147.477,261.658C148.577,261.958 149.777,262.158 150.877,262.258L151.277,262.258ZM111.877,271.058L94.377,271.058L94.377,217.758L100.777,217.758L100.777,249.958C100.677,251.058 101.477,251.958 102.577,251.958C103.677,252.058 104.577,251.258 104.577,250.158L104.577,217.758L122.777,217.758L122.777,271.058L115.677,271.058L115.677,235.158C115.677,234.058 114.777,233.258 113.777,233.258C112.677,233.258 111.877,234.158 111.877,235.158L111.877,271.058ZM70.877,257.758C59.977,255.158 57.277,253.358 51.977,249.158C47.177,245.158 42.677,240.958 38.277,236.458C38.277,236.458 52.277,232.758 55.277,232.558C55.577,232.558 55.977,232.558 56.477,232.558C60.677,232.558 70.677,233.458 75.677,235.658C80.677,237.858 86.277,242.458 89.577,245.358L89.577,249.458C85.577,248.358 80.377,246.758 77.777,246.158C71.077,244.558 60.577,243.358 60.577,243.358C60.577,243.358 69.677,248.158 76.077,250.558C78.977,251.658 85.277,252.858 89.577,253.758L89.577,256.758C85.977,257.958 82.177,258.558 78.377,258.558C75.777,258.658 73.277,258.358 70.877,257.758ZM36.777,247.458C37.877,247.458 38.977,247.958 39.777,248.758C41.477,250.758 41.377,253.658 39.577,255.558C38.677,256.458 37.477,257.058 36.177,257.058C35.077,257.058 33.977,256.558 33.177,255.758C31.477,253.758 31.577,250.858 33.377,248.958C34.277,247.958 35.477,247.458 36.777,247.458ZM159.077,230.858C159.577,230.858 159.977,230.858 160.277,230.858C163.277,231.058 177.277,234.758 177.277,234.758C172.977,239.258 168.377,243.458 163.577,247.458C158.177,251.658 155.577,253.458 144.677,256.058C142.277,256.658 139.777,256.958 137.177,256.958C133.377,256.958 129.577,256.358 125.977,255.158L125.977,252.158C130.277,251.158 136.577,250.058 139.477,248.958C145.877,246.458 154.977,241.758 154.977,241.758C154.977,241.758 144.477,242.958 137.777,244.558C135.177,245.158 129.977,246.758 125.977,247.858L125.977,243.758C129.277,240.758 134.977,236.158 139.877,234.058C144.777,231.958 154.877,230.858 159.077,230.858ZM175.877,253.758C174.077,251.858 173.977,248.958 175.677,246.958C176.477,246.158 177.577,245.658 178.677,245.658C179.977,245.658 181.177,246.258 182.077,247.158C183.877,248.958 183.977,251.958 182.277,253.958C181.477,254.758 180.377,255.258 179.277,255.258C177.977,255.258 176.777,254.658 175.877,253.758ZM14.877,242.458L14.777,242.458C7.177,242.358 3.177,241.858 -0.423,240.758L-0.423,231.758C2.377,232.758 5.277,233.658 8.177,234.358C9.377,235.058 14.177,235.158 15.377,235.758C19.577,237.658 23.777,239.058 28.177,240.058C23.877,241.558 19.377,242.358 14.877,242.458ZM200.677,240.758L200.577,240.758C196.077,240.658 191.477,239.858 187.277,238.358C191.677,237.358 195.977,235.958 200.077,234.158C201.277,233.458 206.077,233.358 207.377,232.658C210.477,231.858 213.577,230.958 216.577,229.758C216.577,229.758 212.377,228.958 209.477,228.658C213.477,226.058 217.277,223.058 220.677,219.658C221.877,219.858 223.077,220.058 224.277,220.458C230.777,222.358 238.277,227.858 238.277,227.858C238.277,227.858 228.077,233.958 221.677,236.758C215.277,239.558 212.177,240.658 200.677,240.758ZM59.977,224.558C59.477,223.458 58.977,222.258 58.577,221.158C56.577,214.758 57.077,205.358 57.077,205.358C62.677,207.858 68.177,210.758 73.577,213.858C79.377,217.458 81.977,219.358 88.377,228.858C88.777,229.458 89.177,230.058 89.577,230.758L89.577,237.658C87.577,236.058 85.477,234.558 83.277,233.258C82.177,232.658 79.477,228.758 78.177,228.158C75.877,226.058 73.377,224.058 70.777,222.258C70.777,222.258 72.477,226.258 73.777,228.758C69.277,226.758 64.677,225.458 59.977,224.558ZM35.677,236.058L34.277,236.058C27.877,235.958 21.577,234.158 16.177,230.758C6.577,224.658 4.577,222.058 0.677,216.358C0.277,215.858 -0.023,215.258 -0.423,214.658L-0.423,200.458C2.577,200.658 5.577,201.058 8.577,201.558C11.477,202.258 22.477,207.058 27.077,211.258C33.377,216.958 39.477,228.758 39.477,228.758C39.477,228.758 40.677,231.258 39.677,231.258C39.577,231.158 39.377,231.158 39.277,231.058C36.177,229.258 28.877,223.858 25.877,221.958C19.977,218.258 10.377,213.558 10.377,213.558C10.377,213.558 17.677,221.258 23.077,225.658C26.177,228.258 34.577,232.858 37.677,234.958C38.976,235.858 35.681,236.058 35.677,236.058ZM141.977,211.958C147.277,208.858 152.777,206.058 158.377,203.558C158.377,203.558 158.777,212.958 156.877,219.458C156.477,220.658 156.077,221.758 155.477,222.858C150.777,223.658 146.277,224.958 141.877,226.758C143.177,224.158 144.777,220.258 144.777,220.258C142.177,222.058 139.677,224.058 137.377,226.158C136.077,226.758 133.377,230.658 132.277,231.258C130.077,232.558 127.977,234.058 125.977,235.658L125.977,228.758C126.377,228.158 126.777,227.558 127.177,226.958C133.477,217.458 136.177,215.558 141.977,211.958ZM176.077,229.358C175.977,229.458 175.777,229.558 175.677,229.558C174.877,229.558 176.077,227.058 176.077,227.058C176.077,227.058 182.177,215.258 188.477,209.558C193.077,205.358 204.077,200.558 206.977,199.858C209.877,199.158 224.277,197.958 224.277,197.958C224.277,197.958 218.777,208.758 214.877,214.558C210.977,220.358 208.977,222.958 199.377,229.058C193.977,232.458 187.677,234.258 181.277,234.358C180.377,234.358 179.877,234.258 179.877,234.258C179.877,234.258 176.577,234.058 177.877,233.158C180.977,231.058 189.377,226.458 192.477,223.858C197.877,219.358 205.177,211.858 205.177,211.858C205.177,211.858 195.577,216.558 189.677,220.258C186.377,222.158 179.177,227.558 176.077,229.358ZM-0.423,225.658L-0.423,231.358C0.877,231.158 3.877,230.658 5.977,230.358C3.777,228.858 1.577,227.258 -0.423,225.658ZM49.077,216.158C51.277,216.158 53.177,217.958 53.277,220.158C53.477,222.758 51.777,225.158 49.177,225.658C48.977,225.658 48.677,225.758 48.477,225.758C46.277,225.758 44.377,223.958 44.277,221.758C44.077,219.158 45.777,216.758 48.377,216.258C48.577,216.158 48.777,216.158 49.077,216.158ZM167.177,214.558C169.777,215.058 171.477,217.458 171.277,220.058C171.177,222.258 169.277,224.058 167.077,224.058C166.877,224.058 166.577,224.058 166.377,223.958C163.777,223.458 162.077,221.058 162.277,218.458C162.377,216.258 164.277,214.458 166.477,214.458C166.677,214.458 166.977,214.458 167.177,214.558ZM35.077,211.258C34.177,210.258 32.777,205.658 31.677,204.658C30.077,201.858 28.277,199.158 26.277,196.558C26.277,196.558 26.777,200.858 27.177,203.758C23.577,200.558 19.577,197.858 15.377,195.458C15.177,194.258 15.077,192.958 15.077,191.758C15.077,184.958 18.177,176.158 18.177,176.158C22.777,180.458 27.177,184.958 31.377,189.658C35.877,195.058 37.777,197.658 41.077,208.858C42.377,213.258 42.877,217.958 42.677,222.558C40.577,218.458 37.977,214.658 35.077,211.258ZM174.377,206.958C177.677,195.858 179.677,193.158 184.177,187.758C188.677,182.358 197.377,174.258 197.377,174.258C197.377,174.258 200.477,183.058 200.477,189.858C200.477,191.058 200.377,192.358 200.177,193.558C195.977,195.858 191.977,198.658 188.377,201.858C188.877,198.958 189.277,194.658 189.277,194.658C187.277,197.258 185.477,199.958 183.877,202.758C182.777,203.758 181.377,208.358 180.477,209.358C177.577,212.858 174.977,216.558 172.777,220.458C172.577,216.058 173.077,211.458 174.377,206.958ZM230.477,217.058C229.677,217.058 228.977,216.858 228.277,216.458C225.977,215.258 225.077,212.458 226.177,210.058C226.877,208.558 228.477,207.558 230.177,207.558C230.977,207.558 231.677,207.758 232.377,208.158C234.677,209.358 235.577,212.158 234.477,214.558C233.777,216.058 232.177,217.058 230.477,217.058ZM252.177,187.458C253.077,186.458 257.377,184.358 258.377,183.158C260.977,181.158 263.477,179.058 265.777,176.758C265.777,176.758 261.577,177.758 258.777,178.658C261.477,174.558 263.877,170.258 265.677,165.758C266.877,165.458 268.077,165.158 269.277,164.958C270.577,164.758 271.977,164.658 273.277,164.758C277.177,164.858 281.077,165.258 284.977,166.058C284.977,166.058 277.877,175.958 273.077,181.058C268.277,186.158 265.877,188.558 255.277,193.358C251.077,195.258 246.577,196.358 241.977,196.758C245.577,193.858 249.077,190.758 252.177,187.458ZM249.477,183.158C245.477,188.958 239.977,193.358 233.477,196.058C232.877,196.358 232.177,196.458 231.477,196.558C231.077,196.558 230.877,196.358 231.177,195.858C233.177,192.658 239.177,184.958 241.077,181.258C244.377,174.958 248.177,164.958 248.177,164.958C248.177,164.958 241.077,173.258 237.077,179.058C234.977,182.058 230.377,190.058 228.177,193.058C227.977,193.258 227.877,193.458 227.777,193.458C227.177,193.458 227.277,190.958 227.277,190.958C227.277,190.958 228.477,177.558 232.177,169.758C234.877,163.958 243.077,155.058 245.477,153.158C247.877,151.258 260.677,144.258 260.677,144.258C260.677,144.258 259.677,156.458 258.277,163.358C256.877,170.258 256.077,173.558 249.477,183.158ZM5.977,183.558C6.277,183.558 6.477,183.558 6.777,183.658C9.177,184.058 10.877,186.458 10.377,188.858C10.377,188.958 10.377,188.958 10.377,189.058C9.977,191.358 7.977,192.958 5.677,192.958C5.377,192.958 5.177,192.958 4.877,192.858C2.477,192.458 0.777,190.058 1.277,187.658C1.277,187.558 1.277,187.558 1.277,187.458C1.677,185.258 3.677,183.558 5.977,183.558ZM209.877,191.258C207.577,191.258 205.577,189.558 205.177,187.358C204.677,184.958 206.177,182.558 208.577,181.958C208.677,181.958 208.677,181.958 208.777,181.958C208.977,181.958 209.277,181.858 209.577,181.858C211.877,181.858 213.877,183.558 214.277,185.758C214.777,188.158 213.277,190.558 210.877,191.158C210.777,191.158 210.777,191.158 210.677,191.158C210.477,191.258 210.177,191.258 209.877,191.258ZM224.877,172.958C223.477,177.358 222.477,181.858 221.977,186.358C219.977,182.158 218.777,177.758 218.277,173.158C217.177,161.558 217.977,158.258 220.077,151.558C222.177,144.858 227.177,133.758 227.177,133.758C227.177,133.758 233.277,140.558 235.877,146.858C236.277,148.058 236.677,149.158 236.977,150.458C233.977,154.358 231.377,158.558 229.177,162.958C228.577,160.158 227.377,155.958 227.377,155.958C226.577,159.158 225.877,162.358 225.477,165.658C224.977,166.858 225.377,171.658 224.877,172.958ZM271.877,159.658L271.577,159.658C268.977,159.458 267.077,157.258 267.177,154.658C267.277,152.158 269.277,150.258 271.777,150.358L272.077,150.358C274.677,150.558 276.577,152.758 276.477,155.358C276.277,157.758 274.277,159.658 271.877,159.658ZM245.777,143.658C244.977,144.158 244.077,144.458 243.177,144.458C241.577,144.458 240.177,143.658 239.277,142.358C237.877,140.258 238.377,137.358 240.477,135.958C241.277,135.458 242.077,135.158 243.077,135.158C244.677,135.158 246.077,135.958 246.977,137.258C248.477,139.258 247.977,142.158 245.777,143.658ZM261.977,135.958C261.877,136.258 261.777,136.458 261.577,136.458C261.077,136.458 260.577,134.258 260.577,134.258C260.577,134.258 258.077,121.358 259.177,112.858C259.977,106.658 265.077,95.958 266.677,93.458C268.277,90.958 277.877,80.758 277.877,80.758C277.877,80.758 280.277,92.558 280.877,99.458C281.477,106.358 281.577,109.658 278.277,120.558C276.377,127.058 272.577,132.858 267.377,137.258C267.377,137.258 266.077,138.358 265.577,138.358C265.377,138.358 265.277,138.258 265.377,137.758C266.277,134.158 269.577,125.258 270.377,121.258C271.577,114.358 272.377,103.858 272.377,103.858C272.377,103.858 268.277,113.658 266.277,120.358C265.077,123.758 263.077,132.558 261.977,135.958ZM281.677,123.858C282.177,122.658 285.577,119.458 286.077,118.058C287.877,115.458 289.477,112.658 290.977,109.858C290.977,109.858 287.477,112.058 285.277,113.658C286.677,109.058 287.577,104.258 287.977,99.458C288.977,98.758 289.977,98.158 290.977,97.658C296.677,94.858 305.277,94.158 305.277,94.158C305.277,94.158 301.677,105.458 298.677,111.758C295.677,118.058 294.177,120.958 286.077,128.458C282.877,131.358 279.177,133.758 275.077,135.458C277.677,131.858 279.877,127.958 281.677,123.858ZM253.477,118.058C253.377,122.558 253.777,127.058 254.477,131.558C251.577,128.158 249.277,124.358 247.677,120.158C243.577,109.558 243.377,106.258 243.477,99.258C243.577,92.258 245.077,80.458 245.077,80.458C245.077,80.458 252.377,85.158 256.377,90.258C257.077,91.258 257.777,92.258 258.377,93.258C256.777,97.758 255.577,102.458 254.777,107.258C253.377,104.758 251.277,101.158 251.277,101.158C251.377,104.358 251.677,107.558 252.177,110.758C251.877,112.358 253.577,116.758 253.477,118.058ZM54.48,123.09C50.972,123.09 47.824,122.55 45.037,121.471C42.249,120.392 39.888,118.807 37.954,116.716C36.021,114.625 34.537,112.073 33.503,109.06C32.468,106.048 31.951,102.585 31.951,98.673C31.951,94.761 32.547,91.299 33.739,88.286C34.93,85.273 36.56,82.721 38.629,80.63C40.697,78.539 43.125,76.954 45.913,75.875C48.701,74.796 51.692,74.256 54.884,74.256C56.818,74.256 58.571,74.402 60.145,74.695C61.719,74.987 63.091,75.313 64.26,75.673C65.429,76.032 66.396,76.415 67.16,76.819C67.925,77.224 68.464,77.516 68.779,77.696L66.283,84.643C65.204,83.969 63.664,83.328 61.663,82.721C59.662,82.114 57.492,81.811 55.154,81.811C53.131,81.811 51.242,82.159 49.488,82.856C47.735,83.553 46.217,84.598 44.935,85.992C43.654,87.386 42.653,89.14 41.934,91.254C41.214,93.367 40.855,95.818 40.855,98.606C40.855,101.079 41.136,103.35 41.698,105.418C42.26,107.487 43.125,109.274 44.295,110.78C45.464,112.287 46.948,113.456 48.746,114.288C50.545,115.12 52.703,115.536 55.221,115.536C58.234,115.536 60.685,115.232 62.574,114.625C64.462,114.018 65.924,113.445 66.958,112.905L69.251,119.852C68.711,120.212 67.981,120.572 67.059,120.932C66.137,121.291 65.047,121.64 63.788,121.977C62.529,122.314 61.112,122.584 59.538,122.786C57.964,122.989 56.278,123.09 54.48,123.09ZM103.516,122.078L95.152,122.078C95.332,118.211 95.545,114.209 95.793,110.072C96.04,105.935 96.31,101.832 96.602,97.762C96.894,93.693 97.22,89.747 97.58,85.925C97.94,82.103 98.322,78.573 98.727,75.335L106.618,75.335C107.608,77.044 108.709,79.135 109.923,81.608C111.138,84.081 112.374,86.678 113.633,89.399C114.892,92.119 116.14,94.885 117.377,97.695C118.613,100.505 119.749,103.102 120.783,105.485C121.817,103.102 122.941,100.505 124.155,97.695C125.369,94.885 126.606,92.119 127.865,89.399C129.124,86.678 130.361,84.081 131.575,81.608C132.789,79.135 133.891,77.044 134.88,75.335L142.569,75.335C142.974,78.753 143.356,82.384 143.716,86.229C144.076,90.073 144.402,94.008 144.694,98.032C144.986,102.057 145.256,106.104 145.503,110.173C145.751,114.243 145.964,118.211 146.144,122.078L137.78,122.078C137.6,116.637 137.387,111.039 137.14,105.283C136.892,99.527 136.521,93.952 136.027,88.556C135.532,89.59 134.947,90.826 134.273,92.265C133.598,93.704 132.879,95.267 132.114,96.953C131.35,98.639 130.574,100.382 129.787,102.18C129.001,103.979 128.236,105.722 127.494,107.408C126.752,109.094 126.066,110.668 125.437,112.129C124.807,113.591 124.268,114.839 123.818,115.873L117.478,115.873C117.028,114.839 116.489,113.579 115.859,112.096C115.229,110.612 114.544,109.027 113.802,107.34C113.06,105.654 112.295,103.912 111.509,102.113C110.722,100.314 109.946,98.583 109.181,96.919C108.417,95.256 107.698,93.693 107.023,92.232C106.349,90.77 105.764,89.545 105.269,88.556C104.775,93.952 104.404,99.527 104.156,105.283C103.909,111.039 103.696,116.637 103.516,122.078ZM159.634,122.078L150.798,122.078C152.552,117.087 154.216,112.478 155.789,108.251C157.363,104.024 158.903,100.022 160.41,96.245C161.916,92.468 163.411,88.87 164.895,85.453C166.379,82.035 167.908,78.663 169.482,75.335L177.508,75.335C179.082,78.663 180.611,82.035 182.095,85.453C183.579,88.87 185.074,92.468 186.58,96.245C188.087,100.022 189.638,104.024 191.234,108.251C192.831,112.478 194.506,117.087 196.259,122.078L187.086,122.078C186.457,120.235 185.805,118.413 185.13,116.615C184.456,114.816 183.804,112.972 183.174,111.084L163.479,111.084C162.849,112.972 162.208,114.827 161.556,116.648C160.904,118.47 160.264,120.28 159.634,122.078ZM85.237,122.078L76.738,122.078L76.738,75.335L85.237,75.335L85.237,122.078ZM173.326,84.374C172.292,86.757 171.112,89.657 169.785,93.075C168.459,96.492 167.076,100.202 165.637,104.204L181.016,104.204C179.577,100.202 178.183,96.47 176.834,93.007C175.485,89.545 174.316,86.667 173.326,84.374ZM290.577,83.058C292.677,83.058 294.377,84.558 294.777,86.558C295.377,88.958 293.877,91.358 291.477,92.058C291.177,92.158 290.777,92.158 290.477,92.158C288.377,92.158 286.677,90.658 286.177,88.658C285.577,86.258 287.077,83.758 289.477,83.158C289.877,83.158 290.277,83.058 290.577,83.058ZM257.577,78.658C258.377,77.658 259.677,76.958 260.977,76.958C261.977,76.958 262.977,77.258 263.777,77.958C265.677,79.558 265.877,82.458 264.377,84.358C263.577,85.358 262.377,86.058 260.977,86.058C259.977,86.058 258.977,85.758 258.177,85.058C256.277,83.458 256.077,80.658 257.577,78.658ZM282.077,77.358C281.977,77.358 281.877,77.258 281.777,76.958C280.977,73.258 279.977,63.758 278.877,59.858C276.877,53.158 272.877,43.458 272.877,43.458C272.877,43.458 273.577,54.158 274.777,61.058C275.377,64.658 277.477,73.458 277.977,76.958C278.077,77.358 277.977,77.558 277.777,77.558C277.277,77.558 275.977,76.058 275.977,76.058C275.977,76.058 268.077,65.858 265.277,57.758C263.277,51.858 262.977,39.958 263.277,36.958C263.577,33.958 267.677,20.258 267.677,20.258C267.677,20.258 275.077,29.458 278.677,35.358C282.277,41.258 283.777,44.058 285.677,55.358C286.877,62.158 286.077,69.058 283.477,75.458C283.377,75.558 282.577,77.358 282.077,77.358ZM252.677,39.258C253.277,39.558 254.377,40.158 255.777,40.958C256.277,45.758 257.377,50.458 258.777,55.058C256.477,53.558 252.977,51.358 252.977,51.358C254.477,54.158 256.177,56.858 258.077,59.458C258.577,60.858 261.977,63.958 262.577,65.158C264.477,69.158 266.777,72.958 269.477,76.558C265.377,74.958 261.677,72.658 258.377,69.858C250.077,62.458 248.477,59.658 245.377,53.458C242.277,47.258 238.377,36.058 238.377,36.058C238.377,36.058 246.877,36.658 252.677,39.258ZM286.677,28.858C290.477,23.558 297.777,18.758 297.777,18.758C297.777,18.758 299.577,30.558 299.777,37.558C299.977,44.558 299.877,47.858 295.977,58.558C294.377,62.758 292.177,66.658 289.377,70.058C290.077,65.558 290.277,61.058 290.177,56.558C290.077,55.258 291.677,50.758 291.477,49.358C291.877,46.158 292.177,42.958 292.177,39.658C292.177,39.658 290.077,43.258 288.777,45.758C287.977,41.058 286.677,36.358 284.877,31.858C285.577,30.558 286.277,29.458 286.677,28.858ZM252.877,24.758C253.177,24.758 253.477,24.758 253.777,24.858C256.177,25.458 257.677,27.858 257.177,30.258C256.777,32.358 254.977,33.858 252.877,33.858C250.477,33.858 248.477,31.858 248.477,29.458C248.477,29.058 248.477,28.758 248.577,28.358C248.977,26.358 250.777,24.758 252.877,24.758ZM285.177,17.258C286.777,19.158 286.577,22.058 284.677,23.758C282.977,25.358 280.277,25.158 278.677,23.458C278.577,23.358 278.577,23.358 278.477,23.258C276.877,21.358 277.077,18.458 278.977,16.758C280.677,15.158 283.377,15.258 284.977,17.058C284.977,17.158 285.077,17.258 285.177,17.258ZM237.077,2.158C237.977,3.358 241.977,5.458 242.777,6.458C245.577,9.858 248.777,12.958 252.177,15.658C247.877,15.158 243.677,13.958 239.777,12.058C229.977,7.158 227.677,4.858 223.277,-0.342L234.277,-0.342C235.177,0.558 236.077,1.358 237.077,2.158ZM244.477,-0.242L253.877,-0.242C255.477,3.358 259.277,10.558 260.577,13.758C260.777,14.258 260.677,14.458 260.477,14.458C259.777,14.258 259.077,13.958 258.477,13.458C258.477,13.458 249.377,6.458 244.477,-0.242ZM264.577,12.958C264.477,12.958 264.377,12.858 264.177,12.558C262.877,9.958 260.577,3.858 258.677,-0.342L265.277,-0.342C265.877,3.358 265.977,7.058 265.377,10.758C265.377,10.858 265.077,12.958 264.577,12.958ZM269.377,-0.242L271.577,-0.242C271.077,1.258 270.477,2.758 269.977,3.958C269.777,2.658 269.577,1.258 269.377,-0.242Z" style="fill:white;fill-opacity:0.39931;fill-rule:nonzero;"/>
            </g>
        </g>
    </g>
</svg>
