<?xml version="1.0" encoding="UTF-8" standalone="no"?>
<!DOCTYPE svg PUBLIC "-//W3C//DTD SVG 1.1//EN" "http://www.w3.org/Graphics/SVG/1.1/DTD/svg11.dtd">
<svg width="100%" height="100%" viewBox="0 0 949 546" version="1.1" xmlns="http://www.w3.org/2000/svg" xmlns:xlink="http://www.w3.org/1999/xlink" xml:space="preserve" xmlns:serif="http://www.serif.com/" style="fill-rule:evenodd;clip-rule:evenodd;stroke-linejoin:round;stroke-miterlimit:1.41421;">
    <g id="Artboard1" transform="matrix(0.769243,0,0,0.655186,-491.431,-863.14)">
        <rect x="638.85" y="1317.4" width="1233.15" height="832.411" style="fill:none;"/>
        <clipPath id="_clip1">
            <rect x="638.85" y="1317.4" width="1233.15" height="832.411"/>
        </clipPath>
        <g clip-path="url(#_clip1)">
            <g transform="matrix(1.29998,0,0,1.52628,-357.483,-892.576)">
                <path d="M1127.36,1993L1117.46,1993C1114.36,1988.4 1110.36,1980.9 1110.36,1980.9C1110.36,1980.9 1122.26,1981.9 1124.56,1982.4C1126.86,1982.9 1135.76,1986.6 1139.56,1989.9C1140.66,1990.9 1141.66,1991.9 1142.56,1993L1128.76,1993L1126.06,1991.7L1127.36,1993ZM1308.86,1993L1301.36,1993C1301.46,1992.6 1301.56,1992.1 1301.76,1991.7C1302.76,1989.9 1304.96,1989.2 1306.76,1990.2C1307.86,1990.7 1308.66,1991.8 1308.86,1993ZM1108.96,1993L1101.66,1993C1101.36,1991.4 1102.16,1989.7 1103.56,1988.9C1105.36,1987.8 1107.76,1988.5 1108.76,1990.3C1109.16,1991.2 1109.26,1992.1 1108.96,1993ZM1293.86,1993L1269.16,1993C1269.76,1992.4 1270.36,1991.8 1270.96,1991.2C1274.66,1988 1283.56,1984.3 1285.96,1983.7C1288.36,1983.1 1300.06,1982.2 1300.06,1982.2C1300.06,1982.2 1296.76,1988.4 1293.86,1993ZM1179.26,1993L1164.26,1993C1163.96,1990.5 1163.86,1987.9 1163.96,1985.3C1163.96,1985.3 1172.66,1989 1177.36,1991.8L1179.26,1993ZM1246.36,1993L1233.36,1993C1238.06,1990.2 1246.56,1986.6 1246.56,1986.6C1246.56,1988.7 1246.56,1990.9 1246.36,1993ZM1263.06,1993L1258.76,1993C1258.96,1991.8 1259.16,1990.5 1259.56,1989.3C1262.26,1980.6 1263.86,1978.6 1267.46,1974.4C1271.06,1970.2 1278.36,1964 1278.36,1964C1278.36,1964 1280.86,1970.8 1280.86,1976.1C1280.76,1976.7 1280.76,1977.7 1280.56,1979C1277.16,1980.8 1273.96,1982.9 1270.96,1985.4C1271.36,1983.1 1271.76,1979.8 1271.76,1979.8C1270.16,1981.8 1268.66,1983.9 1267.36,1986.1C1266.46,1986.9 1265.26,1990.4 1264.56,1991.2L1263.06,1993ZM1152.06,1992.9L1148.56,1992.9C1147.76,1991.8 1146.86,1990.8 1145.96,1989.8C1145.16,1989.1 1144.06,1985.5 1143.16,1984.7C1141.86,1982.5 1140.36,1980.4 1138.76,1978.4C1138.76,1978.4 1139.16,1981.8 1139.56,1984C1136.56,1981.5 1133.36,1979.4 1129.96,1977.6C1129.86,1976.6 1129.76,1975.7 1129.76,1974.7C1129.76,1969.3 1132.26,1962.5 1132.26,1962.5C1132.26,1962.5 1139.46,1968.8 1143.06,1973C1146.66,1977.2 1148.26,1979.3 1150.96,1987.8C1151.46,1989.5 1151.86,1991.2 1152.06,1992.9ZM1305.86,1980.6C1305.16,1981.7 1307.66,1980.7 1307.66,1980.7C1312.86,1978.7 1317.46,1975.2 1320.66,1970.7C1325.96,1963.2 1326.66,1960.8 1327.86,1955.4C1329.06,1950 1329.76,1940.5 1329.76,1940.5C1329.76,1940.5 1319.36,1945.9 1317.36,1947.4C1315.36,1948.9 1308.66,1955.8 1306.46,1960.3C1303.46,1966.4 1302.46,1976.8 1302.46,1976.8C1302.46,1976.8 1302.36,1979.6 1303.16,1978.5C1304.96,1976.2 1308.76,1970 1310.46,1967.7C1313.76,1963.2 1319.56,1956.7 1319.56,1956.7C1319.56,1956.7 1316.36,1964.5 1313.76,1969.4C1312.46,1972.2 1307.56,1978.1 1305.86,1980.6ZM1339.96,1969C1343.86,1965 1349.66,1957.3 1349.66,1957.3C1349.66,1957.3 1342.36,1955.8 1336.86,1956.5C1335.86,1956.6 1334.86,1956.9 1333.86,1957.1C1332.36,1960.6 1330.46,1964 1328.16,1967.2C1330.46,1966.5 1333.86,1965.7 1333.86,1965.7C1331.96,1967.5 1329.96,1969.2 1327.86,1970.7C1327.16,1971.6 1323.56,1973.2 1322.86,1974C1320.36,1976.6 1317.56,1979 1314.56,1981.1C1318.26,1980.8 1321.96,1979.9 1325.36,1978.5C1334.06,1974.8 1336.06,1973 1339.96,1969ZM1070.46,1967.7C1074.36,1971.7 1076.36,1973.5 1084.96,1977.3C1088.36,1978.7 1092.06,1979.6 1095.76,1979.9C1092.76,1977.8 1089.96,1975.4 1087.46,1972.8C1086.76,1972 1083.16,1970.4 1082.46,1969.5C1080.36,1968 1078.36,1966.3 1076.46,1964.5C1076.46,1964.5 1079.86,1965.3 1082.16,1966C1079.96,1962.9 1078.06,1959.5 1076.56,1956C1075.26,1955.7 1074.16,1955.5 1073.56,1955.4C1068.06,1954.7 1060.76,1956.2 1060.76,1956.2C1060.76,1956.2 1066.56,1963.7 1070.46,1967.7ZM1106.96,1977.1C1107.86,1978.3 1107.66,1975.4 1107.66,1975.4C1107.66,1975.4 1106.66,1965 1103.66,1958.9C1101.46,1954.4 1094.76,1947.5 1092.76,1946C1090.76,1944.5 1080.36,1939.1 1080.36,1939.1C1080.36,1939.1 1081.16,1948.6 1082.36,1954C1083.56,1959.4 1084.26,1961.9 1089.56,1969.3C1092.86,1973.8 1097.36,1977.3 1102.66,1979.3C1102.66,1979.3 1105.16,1980.2 1104.46,1979.2C1102.86,1976.7 1097.96,1970.7 1096.36,1967.9C1093.66,1963 1090.56,1955.2 1090.56,1955.2C1090.56,1955.2 1096.36,1961.6 1099.66,1966.2C1101.46,1968.6 1105.16,1974.8 1106.96,1977.1ZM1287.56,1969.8C1285.66,1970.1 1284.36,1971.8 1284.56,1973.8C1284.56,1973.9 1284.56,1974 1284.66,1974.1C1285.16,1976.1 1287.06,1977.4 1289.16,1977.1C1291.06,1976.8 1292.36,1975.1 1292.16,1973.2C1292.16,1973.1 1292.16,1973 1292.16,1972.9C1291.56,1970.8 1289.66,1969.4 1287.56,1969.8ZM1121.16,1975.6C1119.26,1975.2 1118.06,1973.3 1118.46,1971.4C1118.86,1969.4 1120.86,1968.1 1122.86,1968.4C1122.96,1968.4 1123.06,1968.5 1123.16,1968.4C1125.06,1968.8 1126.26,1970.7 1125.86,1972.6C1125.36,1974.6 1123.36,1975.9 1121.36,1975.6L1121.16,1975.6ZM1304.26,1955C1306.06,1951.6 1308.16,1948.3 1310.56,1945.3C1310.16,1944 1309.86,1943.1 1309.66,1942.5C1307.56,1937.6 1302.56,1932.3 1302.56,1932.3C1302.56,1932.3 1298.46,1940.9 1296.76,1946.2C1295.06,1951.5 1294.36,1954 1295.36,1963C1295.76,1966.6 1296.76,1970 1298.36,1973.2C1298.76,1969.7 1299.56,1966.2 1300.66,1962.8C1300.96,1961.8 1300.66,1958.1 1301.16,1957C1301.46,1954.5 1302.06,1952 1302.66,1949.5C1302.66,1949.5 1303.66,1952.8 1304.26,1955ZM1109.76,1961.5C1110.86,1964.9 1111.66,1968.4 1112.06,1971.9C1113.66,1968.7 1114.66,1965.2 1115.06,1961.6C1115.96,1952.6 1115.26,1950.1 1113.56,1944.8C1111.86,1939.5 1107.76,1930.9 1107.76,1930.9C1107.76,1930.9 1102.76,1936.2 1100.66,1941.1C1100.26,1942 1099.96,1942.9 1099.76,1943.9C1102.16,1946.9 1104.26,1950.1 1106.06,1953.6C1106.56,1951.4 1107.56,1948.2 1107.56,1948.2C1108.26,1950.7 1108.76,1953.2 1109.06,1955.7C1109.76,1956.8 1109.36,1960.5 1109.76,1961.5ZM1339.16,1945.3C1337.16,1945.3 1335.56,1946.9 1335.46,1948.9C1335.36,1950.9 1337.06,1952.5 1339.06,1952.6C1340.96,1952.6 1342.66,1951.1 1342.76,1949.2C1342.76,1947.1 1341.16,1945.3 1339.16,1945.3L1339.16,1945.3ZM1071.46,1943.9C1073.56,1943.8 1075.36,1945.5 1075.36,1947.6C1075.46,1949.7 1073.76,1951.5 1071.66,1951.5C1069.56,1951.6 1067.76,1949.9 1067.76,1947.8C1067.66,1945.7 1069.26,1944 1071.26,1943.9L1071.46,1943.9ZM1313.46,1934C1311.86,1935 1311.36,1937.2 1312.36,1938.8C1312.36,1938.9 1312.46,1938.9 1312.46,1939C1313.66,1940.7 1315.96,1941.1 1317.76,1940C1319.36,1939 1319.86,1936.8 1318.86,1935.2C1318.86,1935.1 1318.76,1935.1 1318.76,1935C1317.56,1933.4 1315.26,1932.9 1313.46,1934ZM1095.02,1932.11C1095.71,1932.12 1096.41,1932.3 1097.06,1932.7C1097.16,1932.7 1097.16,1932.8 1097.26,1932.8C1098.86,1933.9 1099.16,1936.1 1098.06,1937.7C1096.86,1939.4 1094.46,1939.8 1092.76,1938.7C1092.71,1938.7 1092.69,1938.68 1092.66,1938.65L1092.65,1938.64C1092.63,1938.62 1092.6,1938.6 1092.56,1938.6C1091.06,1937.5 1090.66,1935.3 1091.76,1933.7C1092.59,1932.68 1093.78,1932.11 1095,1932.11L1095.02,1932.11ZM1346.26,1905.8C1345.76,1900.4 1343.76,1891.3 1343.76,1891.3C1343.76,1891.3 1335.96,1899.2 1334.66,1901.2C1333.36,1903.2 1329.26,1911.4 1328.56,1916.3C1327.66,1922.9 1329.66,1932.9 1329.66,1932.9C1329.66,1932.9 1330.36,1935.6 1330.76,1934.3C1331.66,1931.7 1333.36,1924.8 1334.16,1922.1C1335.86,1916.9 1339.16,1909.3 1339.16,1909.3C1339.16,1909.3 1338.56,1917.5 1337.56,1922.8C1336.96,1925.9 1334.26,1932.8 1333.56,1935.7C1333.26,1936.9 1335.26,1935.3 1335.26,1935.3C1339.46,1931.9 1342.46,1927.4 1344.06,1922.3C1346.86,1913.7 1346.76,1911.2 1346.26,1905.8ZM1075.16,1933.8C1075.16,1933.8 1077.16,1935.4 1076.86,1934.2C1076.06,1931.4 1073.36,1924.5 1072.86,1921.3C1071.86,1916 1071.26,1907.8 1071.26,1907.8C1071.26,1907.8 1074.66,1915.4 1076.26,1920.6C1077.16,1923.3 1078.76,1930.1 1079.66,1932.8C1080.16,1934.1 1080.76,1931.4 1080.76,1931.4C1080.76,1931.4 1082.76,1921.4 1081.86,1914.8C1081.16,1910 1077.06,1901.7 1075.76,1899.7C1074.46,1897.7 1066.66,1889.8 1066.66,1889.8C1066.66,1889.8 1064.66,1898.9 1064.16,1904.3C1063.66,1909.7 1063.66,1912.2 1066.26,1920.7C1067.96,1925.9 1071.06,1930.4 1075.16,1933.8ZM1352.06,1905.8C1351.66,1909.5 1350.96,1913.2 1349.86,1916.8C1351.66,1915.6 1354.56,1913.9 1354.56,1913.9C1353.36,1916.1 1352.06,1918.2 1350.56,1920.3C1350.16,1921.4 1347.46,1923.8 1347.06,1924.8C1345.56,1928 1343.76,1931 1341.66,1933.8C1344.96,1932.5 1347.96,1930.7 1350.56,1928.4C1357.26,1922.5 1358.46,1920.3 1360.86,1915.4C1363.26,1910.5 1366.26,1901.8 1366.26,1901.8C1366.26,1901.8 1359.26,1902.4 1354.66,1904.5C1354.06,1904.6 1353.16,1905.1 1352.06,1905.8ZM1059.96,1926.9C1062.56,1929.2 1065.66,1931 1068.86,1932.3C1066.76,1929.5 1064.96,1926.5 1063.46,1923.3C1063.06,1922.4 1060.36,1919.9 1059.96,1918.8C1058.46,1916.8 1057.16,1914.6 1055.96,1912.4C1055.96,1912.4 1058.76,1914.1 1060.66,1915.3C1059.56,1911.7 1058.86,1908 1058.46,1904.3C1057.66,1903.8 1056.86,1903.3 1055.96,1902.9C1051.26,1900.7 1044.36,1900.1 1044.36,1900.1C1044.36,1900.1 1047.36,1908.9 1049.76,1913.7C1052.16,1918.5 1053.26,1921 1059.96,1926.9ZM1317.06,1891C1317.06,1891 1315.86,1900.2 1315.76,1905.6C1315.66,1911 1315.86,1913.6 1319.16,1921.8C1320.56,1925 1322.36,1928 1324.76,1930.6C1324.16,1927.2 1323.86,1923.7 1323.96,1920.1C1323.96,1919.1 1322.66,1915.6 1322.76,1914.5C1322.36,1912 1322.06,1909.5 1322.06,1907C1322.06,1907 1323.86,1909.8 1324.96,1911.7C1325.56,1908 1326.56,1904.4 1327.86,1900.9C1327.16,1899.8 1326.66,1899 1326.26,1898.5C1323.06,1894.6 1317.06,1891 1317.06,1891ZM1088.36,1905.8C1088.26,1908.3 1088.06,1910.8 1087.66,1913.3C1087.76,1914.4 1086.46,1917.9 1086.46,1918.9C1086.56,1922.4 1086.26,1925.9 1085.66,1929.4C1087.96,1926.8 1089.86,1923.8 1091.26,1920.6C1094.66,1912.4 1094.76,1909.8 1094.66,1904.4C1094.56,1899 1093.36,1889.8 1093.36,1889.8C1093.36,1889.8 1087.36,1893.4 1084.16,1897.4C1083.56,1898.2 1083.06,1898.9 1082.56,1899.8C1083.86,1903.3 1084.86,1906.9 1085.46,1910.6C1086.56,1908.6 1088.36,1905.8 1088.36,1905.8ZM1177.9,1899.24C1176.71,1902.71 1175.46,1905.76 1174.16,1908.37C1172.86,1910.99 1171.43,1913.17 1169.87,1914.91C1168.31,1916.66 1166.58,1917.98 1164.67,1918.86C1162.76,1919.74 1160.62,1920.18 1158.24,1920.18C1157.68,1920.18 1157.06,1920.14 1156.39,1920.08C1155.73,1920.01 1155.04,1919.91 1154.34,1919.78L1154.34,1911.62C1154.62,1911.67 1154.93,1911.73 1155.28,1911.8C1155.63,1911.87 1155.99,1911.92 1156.38,1911.96C1156.76,1912 1157.15,1912.03 1157.55,1912.06C1157.94,1912.08 1158.31,1912.1 1158.65,1912.1C1159.6,1912.1 1160.48,1911.88 1161.29,1911.46C1162.11,1911.04 1162.86,1910.46 1163.55,1909.71C1164.24,1908.96 1164.86,1908.07 1165.43,1907.03C1165.99,1905.99 1166.49,1904.86 1166.92,1903.62L1153.26,1863.57L1162.48,1863.57L1169.63,1886.28L1171.77,1893.61L1173.87,1886.59L1181.09,1863.57L1189.97,1863.57L1177.9,1899.24ZM1223.9,1888.05C1223.9,1890.86 1223.45,1893.31 1222.56,1895.38C1221.67,1897.46 1220.42,1899.17 1218.82,1900.53C1217.21,1901.88 1215.3,1902.88 1213.09,1903.54C1210.87,1904.2 1208.45,1904.53 1205.83,1904.53C1203.5,1904.53 1201.25,1904.37 1199.09,1904.05C1196.91,1903.74 1194.77,1903.21 1192.64,1902.48L1192.64,1892.9C1193.68,1893.32 1194.77,1893.71 1195.9,1894.08C1197.03,1894.45 1198.16,1894.77 1199.31,1895.05C1200.45,1895.32 1201.58,1895.54 1202.71,1895.7C1203.84,1895.85 1204.94,1895.93 1206,1895.93C1207.58,1895.93 1208.93,1895.78 1210.04,1895.46C1211.14,1895.14 1212.05,1894.71 1212.75,1894.16C1213.45,1893.61 1213.96,1892.95 1214.27,1892.19C1214.59,1891.43 1214.75,1890.59 1214.75,1889.67C1214.75,1888.4 1214.44,1887.35 1213.82,1886.49C1213.19,1885.64 1212.37,1884.88 1211.36,1884.23C1210.34,1883.57 1209.18,1882.98 1207.88,1882.45C1206.58,1881.93 1205.26,1881.36 1203.92,1880.76C1202.57,1880.15 1201.25,1879.47 1199.95,1878.71C1198.65,1877.94 1197.49,1877 1196.48,1875.87C1195.46,1874.74 1194.64,1873.39 1194.02,1871.83C1193.39,1870.27 1193.09,1868.38 1193.09,1866.17C1193.09,1864.15 1193.4,1862.23 1194.03,1860.42C1194.67,1858.6 1195.66,1857.02 1197.02,1855.67C1198.37,1854.31 1200.11,1853.24 1202.24,1852.43C1204.36,1851.63 1206.93,1851.23 1209.93,1851.23C1210.81,1851.23 1211.74,1851.28 1212.7,1851.37C1213.66,1851.46 1214.61,1851.58 1215.54,1851.73C1216.48,1851.87 1217.38,1852.04 1218.26,1852.24C1219.13,1852.43 1219.92,1852.64 1220.64,1852.85L1220.64,1861.72C1219.92,1861.4 1219.13,1861.11 1218.27,1860.85C1217.41,1860.59 1216.53,1860.36 1215.61,1860.16C1214.7,1859.96 1213.78,1859.81 1212.85,1859.71C1211.92,1859.6 1211.04,1859.55 1210.2,1859.55C1208.74,1859.55 1207.49,1859.69 1206.48,1859.96C1205.46,1860.24 1204.62,1860.62 1203.97,1861.11C1203.31,1861.59 1202.84,1862.19 1202.54,1862.9C1202.25,1863.61 1202.1,1864.4 1202.1,1865.27C1202.1,1866.34 1202.41,1867.27 1203.03,1868.04C1203.66,1868.82 1204.48,1869.52 1205.51,1870.13C1206.54,1870.75 1207.7,1871.33 1209,1871.87C1210.3,1872.41 1211.63,1872.99 1213,1873.6C1214.37,1874.22 1215.7,1874.92 1217,1875.71C1218.3,1876.5 1219.46,1877.46 1220.49,1878.59C1221.52,1879.72 1222.35,1881.05 1222.97,1882.59C1223.59,1884.13 1223.9,1885.95 1223.9,1888.05ZM1290.9,1901.61C1288.94,1902.53 1287.03,1903.21 1285.19,1903.66C1283.35,1904.11 1281.43,1904.33 1279.44,1904.33C1276.26,1904.33 1273.44,1903.78 1270.99,1902.69C1268.53,1901.6 1266.47,1899.98 1264.78,1897.83C1263.1,1895.67 1261.82,1893 1260.95,1889.8C1260.08,1886.61 1259.65,1882.9 1259.65,1878.67C1259.65,1874.33 1260.12,1870.48 1261.07,1867.1C1262.02,1863.72 1263.38,1860.87 1265.14,1858.54C1266.9,1856.22 1269.04,1854.44 1271.56,1853.22C1274.08,1852 1276.91,1851.39 1280.05,1851.39C1281.07,1851.39 1282.03,1851.42 1282.92,1851.47C1283.81,1851.52 1284.69,1851.62 1285.55,1851.76C1286.4,1851.91 1287.28,1852.1 1288.16,1852.34C1289.04,1852.57 1289.95,1852.88 1290.9,1853.24L1290.9,1862.86C1288.98,1861.81 1287.15,1861.06 1285.41,1860.61C1283.67,1860.17 1282.09,1859.94 1280.66,1859.94C1278.56,1859.94 1276.77,1860.38 1275.27,1861.26C1273.78,1862.14 1272.56,1863.38 1271.6,1864.97C1270.64,1866.56 1269.93,1868.45 1269.48,1870.65C1269.03,1872.84 1268.8,1875.25 1268.8,1877.88C1268.8,1880.66 1269.03,1883.15 1269.49,1885.35C1269.96,1887.54 1270.67,1889.4 1271.65,1890.93C1272.62,1892.45 1273.86,1893.61 1275.38,1894.42C1276.89,1895.22 1278.69,1895.62 1280.77,1895.62C1281.51,1895.62 1282.32,1895.53 1283.19,1895.36C1284.06,1895.19 1284.94,1894.97 1285.83,1894.69C1286.73,1894.42 1287.61,1894.09 1288.48,1893.71C1289.35,1893.33 1290.16,1892.94 1290.9,1892.54L1290.9,1901.61ZM1150.28,1901.61C1148.32,1902.53 1146.41,1903.21 1144.57,1903.66C1142.73,1904.11 1140.81,1904.33 1138.83,1904.33C1135.64,1904.33 1132.82,1903.78 1130.37,1902.69C1127.91,1901.6 1125.85,1899.98 1124.16,1897.83C1122.48,1895.67 1121.2,1893 1120.33,1889.8C1119.46,1886.61 1119.03,1882.9 1119.03,1878.67C1119.03,1874.33 1119.5,1870.48 1120.45,1867.1C1121.4,1863.72 1122.76,1860.87 1124.52,1858.54C1126.28,1856.22 1128.42,1854.44 1130.94,1853.22C1133.46,1852 1136.29,1851.39 1139.43,1851.39C1140.45,1851.39 1141.41,1851.42 1142.3,1851.47C1143.19,1851.52 1144.07,1851.62 1144.93,1851.76C1145.79,1851.91 1146.66,1852.1 1147.54,1852.34C1148.42,1852.57 1149.33,1852.88 1150.28,1853.24L1150.28,1862.86C1148.36,1861.81 1146.53,1861.06 1144.79,1860.61C1143.05,1860.17 1141.47,1859.94 1140.05,1859.94C1137.94,1859.94 1136.15,1860.38 1134.65,1861.26C1133.16,1862.14 1131.94,1863.38 1130.98,1864.97C1130.02,1866.56 1129.31,1868.45 1128.86,1870.65C1128.41,1872.84 1128.18,1875.25 1128.18,1877.88C1128.18,1880.66 1128.41,1883.15 1128.88,1885.35C1129.34,1887.54 1130.06,1889.4 1131.03,1890.93C1132,1892.45 1133.24,1893.61 1134.76,1894.42C1136.27,1895.22 1138.07,1895.62 1140.15,1895.62C1140.89,1895.62 1141.7,1895.53 1142.57,1895.36C1143.44,1895.19 1144.32,1894.97 1145.21,1894.69C1146.11,1894.42 1146.99,1894.09 1147.86,1893.71C1148.73,1893.33 1149.54,1892.94 1150.28,1892.54L1150.28,1901.61ZM1255.93,1860.3L1237.73,1860.3L1237.73,1873.11L1255.09,1873.11L1255.09,1881.11L1237.73,1881.11L1237.73,1895.42L1255.93,1895.42L1255.93,1903.62L1229.26,1903.62L1229.26,1852.1L1255.93,1852.1L1255.93,1860.3ZM1354.96,1900.1C1356.86,1899.7 1358.06,1897.8 1357.66,1895.8C1357.26,1893.9 1355.36,1892.7 1353.36,1893.1C1351.46,1893.5 1350.26,1895.4 1350.66,1897.4C1351.16,1899.3 1353.06,1900.5 1354.96,1900.1L1354.96,1900.1ZM1052.76,1894.5C1052.36,1896.4 1053.46,1898.3 1055.36,1898.8C1057.26,1899.2 1059.16,1898.1 1059.66,1896.2C1060.16,1894.3 1058.96,1892.4 1057.06,1891.9C1055.16,1891.4 1053.26,1892.6 1052.76,1894.5ZM1332.76,1894.1C1333.96,1892.6 1333.76,1890.3 1332.26,1889.1C1330.76,1887.9 1328.46,1888.1 1327.26,1889.6C1326.06,1891.1 1326.26,1893.3 1327.76,1894.6C1329.36,1895.8 1331.56,1895.6 1332.76,1894.1L1332.76,1894.1ZM1083.16,1888.3C1081.96,1886.8 1079.66,1886.6 1078.16,1887.8C1076.66,1889 1076.46,1891.3 1077.66,1892.8C1078.86,1894.3 1081.16,1894.5 1082.66,1893.3C1084.16,1892 1084.36,1889.8 1083.16,1888.3L1083.16,1888.3ZM1348.36,1887.1C1350.46,1882.2 1351.06,1876.8 1350.16,1871.5C1348.56,1862.7 1347.36,1860.5 1344.46,1856C1341.56,1851.5 1335.56,1844.3 1335.56,1844.3C1335.56,1844.3 1332.36,1854.9 1332.06,1857.3C1331.76,1859.7 1332.06,1868.9 1333.66,1873.5C1335.86,1879.7 1342.36,1887.7 1342.36,1887.7C1342.36,1887.7 1344.16,1889.8 1343.96,1888.4C1343.56,1885.6 1341.86,1878.8 1341.36,1876C1340.36,1870.7 1339.86,1862.3 1339.86,1862.3C1339.86,1862.3 1343.06,1869.8 1344.76,1875C1345.66,1878 1346.56,1885.4 1347.16,1888.3C1347.26,1889.5 1348.36,1887.1 1348.36,1887.1ZM1325.86,1860.4C1325.06,1859.9 1324.26,1859.5 1323.36,1859C1318.66,1857 1311.66,1856.5 1311.66,1856.5C1311.66,1856.5 1314.86,1865.2 1317.36,1870C1319.86,1874.8 1321.16,1877 1327.96,1882.8C1330.66,1885 1333.66,1886.8 1336.96,1888C1334.86,1885.2 1332.96,1882.3 1331.36,1879.1C1330.96,1878.2 1328.16,1875.8 1327.66,1874.7C1326.16,1872.7 1324.76,1870.6 1323.56,1868.4C1323.56,1868.4 1326.46,1870 1328.26,1871.2C1327.06,1867.8 1326.26,1864.1 1325.86,1860.4ZM1074.96,1843C1074.96,1843 1068.96,1850.2 1066.06,1854.7C1063.16,1859.2 1061.86,1861.5 1060.36,1870.2C1059.46,1875.5 1060.06,1880.9 1062.16,1885.8C1062.16,1885.8 1063.16,1888.1 1063.46,1886.9C1064.06,1884 1064.96,1876.7 1065.86,1873.7C1067.46,1868.5 1070.66,1861 1070.66,1861C1070.66,1861 1070.06,1869.3 1069.16,1874.7C1068.66,1877.5 1066.96,1884.3 1066.56,1887.1C1066.36,1888.5 1068.16,1886.4 1068.16,1886.4C1068.16,1886.4 1074.66,1878.5 1076.86,1872.2C1078.46,1867.6 1078.76,1858.3 1078.46,1856C1078.16,1853.7 1074.96,1843 1074.96,1843ZM1079.06,1877.9C1077.46,1881 1075.56,1884 1073.46,1886.8C1076.76,1885.6 1079.76,1883.8 1082.46,1881.6C1089.26,1875.9 1090.56,1873.6 1093.06,1868.8C1095.56,1864 1098.76,1855.3 1098.76,1855.3C1098.76,1855.3 1091.76,1855.7 1087.06,1857.8C1086.16,1858.2 1085.36,1858.7 1084.56,1859.2C1084.16,1862.9 1083.36,1866.6 1082.16,1870.1C1084.06,1868.9 1086.86,1867.3 1086.86,1867.3C1085.66,1869.5 1084.26,1871.6 1082.76,1873.6C1082.26,1874.5 1079.56,1876.9 1079.06,1877.9ZM1352.66,1864.1C1353.66,1862.1 1355.46,1859.3 1355.46,1859.3C1355.46,1861.8 1355.26,1864.3 1354.86,1866.8C1354.96,1867.9 1353.76,1871.4 1353.76,1872.4C1353.86,1875.9 1353.66,1879.4 1353.16,1882.9C1355.46,1880.2 1357.26,1877.2 1358.56,1874C1361.76,1865.7 1361.76,1863.1 1361.66,1857.7C1361.56,1852.3 1360.06,1843.1 1360.06,1843.1C1360.06,1843.1 1354.16,1846.9 1351.06,1851C1350.46,1851.8 1349.96,1852.6 1349.56,1853.4C1350.96,1856.8 1351.96,1860.4 1352.66,1864.1ZM1057.26,1881.6C1056.76,1878.1 1056.56,1874.6 1056.66,1871.1C1056.76,1870.1 1055.46,1866.6 1055.66,1865.5C1055.26,1863 1055.16,1860.5 1055.06,1858C1055.06,1858 1056.76,1860.8 1057.86,1862.8C1058.56,1859.1 1059.56,1855.5 1061.06,1852C1060.56,1851.2 1060.06,1850.4 1059.56,1849.6C1056.46,1845.5 1050.56,1841.7 1050.56,1841.7C1050.56,1841.7 1049.16,1850.9 1048.96,1856.3C1048.76,1861.7 1048.86,1864.3 1052.06,1872.6C1053.16,1875.9 1054.96,1878.9 1057.26,1881.6ZM1324.26,1847.8C1322.36,1847.4 1320.46,1848.6 1320.06,1850.6C1319.66,1852.5 1320.86,1854.4 1322.86,1854.8C1324.76,1855.2 1326.66,1854 1327.06,1852C1327.46,1850.1 1326.16,1848.2 1324.26,1847.8L1324.26,1847.8ZM1086.16,1846.5C1084.26,1846.9 1082.96,1848.8 1083.36,1850.7C1083.76,1852.6 1085.66,1853.9 1087.56,1853.5C1089.46,1853.1 1090.76,1851.2 1090.36,1849.3C1089.96,1847.3 1088.16,1846.1 1086.16,1846.5ZM1349.46,1846.9C1350.96,1845.6 1351.16,1843.4 1349.86,1841.9C1348.56,1840.4 1346.36,1840.2 1344.86,1841.5C1343.36,1842.8 1343.16,1845 1344.46,1846.5C1345.66,1848 1347.96,1848.2 1349.46,1846.9ZM1066.06,1845.2C1067.36,1843.7 1067.16,1841.5 1065.66,1840.2C1064.16,1838.9 1061.96,1839.1 1060.66,1840.6C1059.36,1842.1 1059.56,1844.3 1061.06,1845.6C1062.56,1846.9 1064.76,1846.7 1066.06,1845.2ZM1299.46,1828.3C1303.06,1832.3 1304.96,1834.1 1312.96,1837.9C1316.16,1839.4 1319.56,1840.3 1323.06,1840.7C1320.26,1838.6 1317.76,1836.2 1315.36,1833.6C1314.66,1832.8 1311.36,1831.2 1310.66,1830.3C1308.66,1828.8 1306.86,1827.1 1305.06,1825.3C1305.06,1825.3 1308.26,1826.2 1310.36,1826.8C1308.26,1823.7 1306.56,1820.3 1305.16,1816.8C1304.26,1816.5 1303.36,1816.3 1302.36,1816.1C1297.26,1815.3 1290.46,1816.7 1290.46,1816.7C1290.46,1816.7 1295.86,1824.3 1299.46,1828.3ZM1315.96,1827.4C1319.66,1832.9 1327.96,1838.9 1327.96,1838.9C1327.96,1838.9 1330.26,1840.4 1329.76,1839.1C1328.66,1836.5 1325.26,1830.3 1324.06,1827.8C1321.86,1822.9 1319.16,1814.9 1319.16,1814.9C1319.16,1814.9 1324.16,1821.4 1327.06,1826C1328.76,1828.7 1331.36,1835.6 1332.76,1838.2C1333.36,1839.3 1333.76,1836.8 1333.76,1836.8C1334.56,1831.5 1333.76,1826.1 1331.56,1821.3C1327.76,1813.2 1326.06,1811.4 1322.06,1807.8C1318.06,1804.2 1310.46,1798.7 1310.46,1798.7C1310.46,1798.7 1310.06,1809.8 1310.36,1812.1C1310.66,1814.4 1313.26,1823.4 1315.96,1827.4ZM1099.76,1828.9C1099.06,1829.8 1095.76,1831.4 1095.16,1832.2C1092.86,1834.8 1090.26,1837.2 1087.46,1839.3C1090.96,1839 1094.36,1838 1097.56,1836.5C1105.56,1832.7 1107.46,1830.9 1111.06,1826.9C1114.66,1822.9 1119.96,1815.3 1119.96,1815.3C1119.96,1815.3 1113.06,1813.9 1108.06,1814.7C1107.56,1814.8 1106.56,1815 1105.26,1815.4C1103.86,1818.9 1102.16,1822.2 1100.16,1825.4C1102.26,1824.7 1105.46,1823.9 1105.46,1823.9C1103.66,1825.7 1101.76,1827.3 1099.76,1828.9ZM1078.96,1820.1C1076.76,1825 1075.96,1830.4 1076.76,1835.6C1076.76,1835.6 1077.16,1838.1 1077.76,1837C1079.06,1834.4 1081.76,1827.5 1083.46,1824.8C1086.36,1820.2 1091.36,1813.7 1091.36,1813.7C1091.36,1813.7 1088.66,1821.6 1086.46,1826.5C1085.26,1829 1081.86,1835.2 1080.76,1837.8C1080.26,1839.1 1082.56,1837.6 1082.56,1837.6C1082.56,1837.6 1090.86,1831.6 1094.56,1826.1C1097.36,1822.1 1099.96,1813.2 1100.26,1810.9C1100.56,1808.6 1100.16,1797.5 1100.16,1797.5C1100.16,1797.5 1092.56,1802.9 1088.56,1806.6C1084.56,1810.3 1082.66,1812 1078.96,1820.1ZM1333.56,1808.2C1334.16,1810.6 1334.66,1813.1 1334.86,1815.6C1335.26,1816.7 1334.96,1820.3 1335.26,1821.3C1336.26,1824.7 1336.96,1828.1 1337.36,1831.6C1338.86,1828.5 1339.86,1825.1 1340.26,1821.6C1341.26,1812.8 1340.66,1810.2 1339.06,1805.1C1337.46,1800 1333.86,1791.4 1333.86,1791.4C1333.86,1791.4 1329.06,1796.5 1327.16,1801.3C1326.96,1801.8 1326.66,1802.8 1326.26,1804C1328.46,1807 1330.46,1810.2 1332.06,1813.6C1332.56,1811.4 1333.56,1808.2 1333.56,1808.2ZM1073.06,1830.3C1073.46,1826.8 1074.16,1823.4 1075.16,1820C1075.46,1819 1075.16,1815.4 1075.56,1814.3C1075.86,1811.8 1076.26,1809.3 1076.96,1806.9C1076.96,1806.9 1077.86,1810.1 1078.46,1812.2C1080.06,1808.8 1081.96,1805.6 1084.26,1802.6C1084.06,1801.7 1083.76,1800.8 1083.36,1799.9C1081.36,1795.1 1076.66,1790 1076.66,1790C1076.66,1790 1072.96,1798.5 1071.46,1803.7C1069.96,1808.9 1069.36,1811.4 1070.26,1820.2C1070.56,1823.8 1071.56,1827.1 1073.06,1830.3ZM1304.16,1808.4C1304.06,1806.4 1302.36,1804.9 1300.46,1805C1298.56,1805.1 1296.96,1806.8 1297.06,1808.7C1297.16,1810.7 1298.86,1812.2 1300.76,1812.1C1302.76,1812 1304.26,1810.3 1304.16,1808.4L1304.16,1808.4ZM1113.36,1807.4C1113.46,1805.4 1111.96,1803.8 1109.96,1803.7C1107.96,1803.6 1106.36,1805.1 1106.26,1807.1C1106.16,1809.1 1107.66,1810.7 1109.66,1810.8C1111.56,1810.8 1113.26,1809.3 1113.36,1807.4ZM1271.96,1799.6C1276.86,1801.8 1279.26,1802.7 1288.16,1802.9C1291.66,1802.9 1295.16,1802.4 1298.46,1801.3C1295.06,1800.5 1291.76,1799.3 1288.56,1797.9C1287.66,1797.4 1283.96,1797.3 1282.96,1796.7C1280.56,1796.1 1278.16,1795.3 1275.76,1794.4C1275.76,1794.4 1279.06,1793.9 1281.26,1793.6C1278.06,1791.6 1275.16,1789.2 1272.46,1786.6C1271.56,1786.7 1270.56,1786.9 1269.66,1787.1C1264.66,1788.4 1258.96,1792.5 1258.96,1792.5C1258.96,1792.5 1266.96,1797.4 1271.96,1799.6ZM1129.16,1792.3C1131.36,1792.5 1134.66,1793.1 1134.66,1793.1C1132.36,1794 1129.96,1794.8 1127.46,1795.4C1126.46,1796 1122.76,1796.1 1121.86,1796.6C1118.66,1798.1 1115.36,1799.2 1111.96,1800C1115.26,1801.1 1118.76,1801.6 1122.26,1801.6C1131.16,1801.4 1133.56,1800.5 1138.46,1798.3C1143.36,1796.1 1151.36,1791.3 1151.36,1791.3C1151.36,1791.3 1145.66,1787.3 1140.66,1785.9C1140.16,1785.8 1139.16,1785.6 1137.86,1785.4C1135.26,1788 1132.36,1790.3 1129.16,1792.3ZM1319.66,1798.7C1321.26,1799.8 1323.46,1799.4 1324.56,1797.8C1325.66,1796.2 1325.26,1794 1323.66,1792.9C1322.06,1791.8 1319.86,1792.2 1318.76,1793.8C1317.66,1795.4 1318.06,1797.6 1319.66,1798.7ZM1090.76,1797.4C1092.36,1796.3 1092.76,1794.1 1091.66,1792.5C1090.56,1790.9 1088.36,1790.5 1086.76,1791.6C1085.16,1792.7 1084.76,1794.9 1085.86,1796.5C1086.96,1798.1 1089.16,1798.5 1090.76,1797.4ZM1286.66,1792C1292.26,1795.5 1302.36,1797.6 1302.36,1797.6C1302.36,1797.6 1305.06,1798.1 1304.06,1797.1C1301.96,1795.2 1296.36,1790.9 1294.26,1789.1C1290.16,1785.5 1284.56,1779.4 1284.56,1779.4C1284.56,1779.4 1291.76,1783.3 1296.26,1786.3C1298.86,1788.1 1304.16,1793.3 1306.46,1795.1C1307.46,1795.9 1306.76,1793.4 1306.76,1793.4C1305.36,1788.3 1302.46,1783.6 1298.46,1780.1C1291.76,1774.3 1289.46,1773.3 1284.26,1771.6C1279.06,1769.9 1269.96,1768 1269.96,1768C1269.96,1768 1274.16,1778.3 1275.36,1780.3C1276.56,1782.3 1282.56,1789.5 1286.66,1792ZM1140.41,1767.02C1139.94,1768.15 1136.18,1777.33 1135.06,1779.2C1133.86,1781.2 1127.76,1788.3 1123.66,1790.8C1118.06,1794.3 1108.06,1796.4 1108.06,1796.4C1108.06,1796.4 1105.36,1796.9 1106.36,1795.9C1107.34,1795.01 1109.1,1793.61 1110.9,1792.19L1111.62,1791.61C1113.42,1790.19 1115.17,1788.79 1116.16,1787.9C1120.16,1784.3 1125.86,1778.2 1125.86,1778.2C1125.86,1778.2 1118.66,1782.1 1114.16,1785.1C1111.46,1786.8 1106.26,1792.1 1103.96,1793.9C1103.06,1794.6 1103.66,1792.2 1103.66,1792.2C1105.16,1787 1108.06,1782.4 1111.96,1779C1118.66,1773.2 1121.06,1772.2 1126.16,1770.5C1131.26,1768.8 1140.46,1766.9 1140.46,1766.9L1140.41,1767.02ZM1295.76,1772.8C1295.36,1770.6 1294.96,1767.3 1294.96,1767.3C1296.46,1769.3 1297.96,1771.4 1299.16,1773.5C1299.96,1774.3 1301.16,1777.8 1301.86,1778.5C1304.16,1781.1 1306.16,1784 1307.96,1787C1308.06,1783.5 1307.56,1780 1306.56,1776.7C1303.86,1768.2 1302.26,1766.2 1298.76,1762.1C1295.26,1758 1288.36,1751.7 1288.36,1751.7C1288.36,1751.7 1286.16,1758.3 1286.26,1763.5C1286.26,1764.4 1286.36,1765.4 1286.56,1766.3C1289.76,1768.2 1292.86,1770.4 1295.76,1772.8ZM1108.66,1777.3C1109.36,1776.5 1110.56,1773.1 1111.36,1772.3C1112.66,1770.1 1114.06,1768.1 1115.56,1766.1C1115.56,1766.1 1115.16,1769.4 1114.76,1771.6C1117.56,1769.2 1120.66,1767 1123.96,1765.2C1124.06,1764.3 1124.16,1763.3 1124.26,1762.4C1124.36,1757.3 1122.16,1750.6 1122.16,1750.6C1122.16,1750.6 1115.26,1756.9 1111.76,1761C1108.26,1765.1 1106.66,1767.1 1103.96,1775.6C1102.96,1778.9 1102.46,1782.4 1102.56,1786C1104.26,1782.8 1106.36,1779.9 1108.66,1777.3ZM1263.36,1777.9C1261.66,1778.8 1260.96,1780.9 1261.76,1782.7C1262.66,1784.4 1264.76,1785.1 1266.56,1784.3C1268.26,1783.4 1268.96,1781.3 1268.16,1779.5C1267.26,1777.7 1265.16,1777 1263.36,1777.9ZM1143.86,1782.9C1145.56,1783.8 1147.76,1783.1 1148.66,1781.3C1149.56,1779.6 1148.86,1777.4 1147.06,1776.5C1145.36,1775.6 1143.16,1776.3 1142.26,1778C1141.46,1779.8 1142.16,1782 1143.86,1782.9ZM1249.66,1777.6C1253.16,1777 1256.46,1775.9 1259.56,1774.2C1256.06,1774 1252.56,1773.5 1249.16,1772.7C1248.16,1772.4 1244.56,1773 1243.46,1772.6C1240.96,1772.4 1238.46,1772.1 1235.96,1771.6C1235.96,1771.6 1239.06,1770.5 1241.16,1769.9C1237.66,1768.5 1234.36,1766.7 1231.26,1764.6C1230.36,1764.9 1229.46,1765.2 1228.66,1765.6C1224.06,1767.8 1219.16,1772.8 1219.16,1772.8C1219.16,1772.8 1227.86,1776.1 1233.16,1777.3C1238.46,1778.5 1240.96,1779.1 1249.66,1777.6ZM1181.76,1764.3C1180.86,1763.9 1180.06,1763.6 1179.16,1763.3C1176.06,1765.4 1172.76,1767.2 1169.26,1768.6C1171.36,1769.2 1174.46,1770.3 1174.46,1770.3C1171.96,1770.8 1169.46,1771.1 1166.96,1771.3C1165.86,1771.7 1162.26,1771.1 1161.26,1771.4C1157.86,1772.2 1154.36,1772.8 1150.86,1772.9C1153.96,1774.6 1157.26,1775.7 1160.76,1776.3C1169.56,1777.7 1172.06,1777.3 1177.36,1776C1182.66,1774.7 1191.36,1771.5 1191.36,1771.5C1191.36,1771.5 1186.46,1766.5 1181.76,1764.3ZM1225.38,1746.7C1225.93,1746.71 1234.83,1746.83 1240.06,1747.6C1245.46,1748.4 1247.96,1748.9 1255.56,1753.4C1260.16,1756.1 1263.86,1760.1 1266.16,1764.9C1266.16,1764.9 1267.26,1767.2 1266.16,1766.6C1263.56,1765.3 1257.46,1761.1 1254.56,1759.8C1249.56,1757.7 1241.76,1755.2 1241.76,1755.2C1241.76,1755.2 1248.46,1760.2 1253.16,1763C1254.28,1763.7 1256.26,1764.76 1258.3,1765.83L1259.12,1766.27C1261.15,1767.34 1263.13,1768.4 1264.26,1769.1C1265.46,1769.9 1262.66,1769.9 1262.66,1769.9C1262.66,1769.9 1252.46,1769.6 1246.26,1767.2C1241.76,1765.5 1234.36,1759.5 1232.86,1757.8C1231.36,1756.1 1225.36,1746.7 1225.36,1746.7L1225.38,1746.7ZM1144.16,1765.4C1146.76,1764 1152.86,1759.8 1155.76,1758.6C1160.76,1756.4 1168.56,1754 1168.56,1754C1168.56,1754 1161.86,1759 1157.26,1761.8C1154.86,1763.2 1148.56,1766.4 1146.16,1767.9C1144.96,1768.6 1147.76,1768.7 1147.76,1768.7C1147.76,1768.7 1157.96,1768.4 1164.16,1766C1168.66,1764.2 1175.86,1758.4 1177.46,1756.7C1179.06,1755 1184.96,1745.6 1184.96,1745.6C1184.96,1745.6 1175.56,1745.7 1170.26,1746.5C1164.96,1747.3 1162.46,1747.7 1154.76,1752.3C1150.16,1755 1146.46,1759 1144.16,1763.8C1144.16,1763.7 1143.16,1766 1144.16,1765.4ZM1278.36,1764.3C1280.26,1764.7 1282.16,1763.4 1282.46,1761.5C1282.86,1759.6 1281.56,1757.7 1279.66,1757.4C1277.76,1757 1275.86,1758.3 1275.56,1760.2C1275.26,1762.1 1276.36,1763.9 1278.36,1764.3L1278.36,1764.3ZM1225.06,1763.2C1226.56,1762 1226.86,1759.8 1225.66,1758.2C1224.46,1756.7 1222.26,1756.4 1220.66,1757.6C1219.16,1758.8 1218.86,1761 1220.06,1762.6C1221.26,1764.1 1223.46,1764.4 1225.06,1763.2L1225.06,1763.2ZM1132.16,1763C1134.06,1762.6 1135.36,1760.8 1134.96,1758.9C1134.56,1757 1132.76,1755.7 1130.86,1756.1C1128.96,1756.5 1127.66,1758.3 1128.06,1760.2C1128.46,1762.1 1130.16,1763.4 1132.16,1763ZM1187.52,1755.46C1188.28,1755.46 1189.04,1755.7 1189.66,1756.2C1191.26,1757.4 1191.56,1759.6 1190.36,1761.2C1189.16,1762.8 1186.96,1763.1 1185.36,1761.9L1185.34,1761.88C1183.76,1760.58 1183.56,1758.39 1184.66,1756.8C1185.36,1755.93 1186.43,1755.46 1187.5,1755.46L1187.52,1755.46ZM1241.46,1742.1C1245.06,1743.3 1248.46,1744.9 1251.66,1746.7C1250.86,1744.6 1249.86,1741.5 1249.86,1741.5C1251.76,1743.2 1253.56,1744.9 1255.16,1746.8C1256.16,1747.4 1257.96,1750.6 1258.76,1751.3C1261.46,1753.5 1264.06,1755.9 1266.26,1758.6C1265.76,1755.1 1264.66,1751.8 1262.96,1748.7C1258.76,1740.9 1256.86,1739.1 1252.66,1735.7C1248.46,1732.3 1240.56,1727.4 1240.56,1727.4C1240.56,1727.4 1239.56,1734.3 1240.66,1739.3C1240.86,1740.2 1241.06,1741.2 1241.46,1742.1ZM1151.76,1750C1152.56,1749.4 1154.36,1746.2 1155.36,1745.5C1156.96,1743.6 1158.76,1741.8 1160.66,1740.2C1160.66,1740.2 1159.66,1743.3 1158.86,1745.4C1162.06,1743.5 1165.56,1742 1169.06,1740.8C1169.36,1739.9 1169.66,1739 1169.86,1738.1C1170.96,1733.1 1169.96,1726.1 1169.96,1726.1C1169.96,1726.1 1162.06,1731 1157.86,1734.4C1153.66,1737.8 1151.76,1739.5 1147.56,1747.4C1145.96,1750.5 1144.86,1753.8 1144.26,1757.3C1146.46,1754.6 1148.96,1752.2 1151.76,1750ZM1232.96,1741.5C1234.96,1741.5 1236.56,1739.9 1236.56,1738C1236.56,1736.1 1234.96,1734.4 1233.06,1734.4C1231.16,1734.4 1229.46,1736 1229.46,1737.9C1229.46,1739.9 1231.06,1741.5 1232.96,1741.5ZM1177.46,1740.2C1179.46,1740.2 1181.06,1738.6 1181.06,1736.6C1181.06,1734.6 1179.46,1733 1177.46,1733C1175.46,1733 1173.86,1734.6 1173.86,1736.6C1173.96,1738.6 1175.56,1740.2 1177.46,1740.2Z" style="fill:white;fill-opacity:0.801722;fill-rule:nonzero;"/>
            </g>
            <g transform="matrix(1.29998,0,0,1.52628,-357.483,-892.576)">
                <path d="M1625.06,1852.6C1624.46,1852.2 1623.26,1851.5 1621.76,1850.7C1617.46,1852.7 1612.96,1854.3 1608.26,1855.4C1610.96,1856.7 1614.76,1858.7 1614.76,1858.7C1611.46,1858.8 1608.26,1858.7 1604.96,1858.4C1603.46,1858.7 1598.86,1857.2 1597.56,1857.4C1593.06,1857.8 1588.46,1857.7 1583.96,1857.2C1587.66,1860 1591.86,1862.2 1596.26,1863.7C1607.46,1867.3 1610.76,1867.3 1617.66,1866.8C1624.56,1866.3 1636.26,1863.9 1636.26,1863.9C1636.26,1863.9 1630.76,1856.5 1625.06,1852.6ZM1524.36,1855.8C1523.06,1855.7 1518.46,1857.1 1516.96,1856.9C1513.76,1857.2 1510.46,1857.3 1507.16,1857.2C1507.16,1857.2 1511.06,1855.1 1513.66,1853.9C1509.06,1852.8 1504.56,1851.2 1500.26,1849.2C1498.76,1850 1497.56,1850.7 1496.96,1851.1C1491.26,1854.9 1485.56,1862.4 1485.56,1862.4C1485.56,1862.4 1497.26,1864.8 1504.16,1865.3C1511.06,1865.8 1514.46,1865.9 1525.56,1862.2C1529.96,1860.7 1534.16,1858.5 1537.86,1855.7C1533.46,1856 1528.86,1856.1 1524.36,1855.8ZM1564.26,1813.9L1564.26,1845C1564.26,1846 1565.06,1846.9 1566.16,1846.9C1567.16,1846.9 1568.06,1846.1 1568.06,1845L1568.16,1845L1568.16,1813.9L1574.56,1813.9L1574.56,1865.4L1556.86,1865.4L1556.86,1830.8C1556.86,1829.8 1556.06,1828.9 1554.96,1828.9C1553.96,1828.9 1553.06,1829.7 1553.06,1830.8L1553.06,1865.4L1545.86,1865.4L1545.86,1813.9L1564.26,1813.9ZM1598.36,1852.6C1609.46,1850.1 1612.06,1848.3 1617.56,1844.3C1622.36,1840.5 1626.96,1836.4 1631.36,1832.1C1631.36,1832.1 1617.16,1828.5 1614.16,1828.3C1611.16,1828.1 1599.16,1828.9 1593.56,1831.3C1588.56,1833.4 1582.86,1837.8 1579.46,1840.7L1579.46,1844.6C1583.46,1843.5 1588.86,1842 1591.46,1841.4C1598.26,1839.9 1608.86,1838.7 1608.86,1838.7C1608.86,1838.7 1599.56,1843.3 1593.16,1845.7C1590.26,1846.8 1583.86,1847.9 1579.56,1848.8L1579.56,1851.7C1585.56,1853.6 1592.06,1853.9 1598.36,1852.6ZM1629.76,1843.8C1627.76,1845.5 1627.56,1848.6 1629.36,1850.5C1631.06,1852.5 1634.16,1852.7 1636.06,1850.9C1637.96,1849.1 1638.26,1846.1 1636.46,1844.2C1636.36,1844.1 1636.36,1844 1636.26,1844C1634.56,1842.2 1631.66,1842.1 1629.76,1843.8ZM1507.86,1826.6C1504.86,1826.8 1490.66,1830.4 1490.66,1830.4C1495.06,1834.7 1499.66,1838.8 1504.56,1842.6C1510.06,1846.6 1512.66,1848.4 1523.76,1850.9C1530.06,1852.2 1536.56,1851.9 1542.66,1850L1542.66,1847.1C1538.26,1846.2 1531.96,1845.1 1529.06,1844C1522.56,1841.6 1513.36,1837 1513.36,1837C1513.36,1837 1524.06,1838.2 1530.76,1839.7C1533.36,1840.3 1538.66,1841.8 1542.76,1842.9L1542.76,1839C1539.36,1836.1 1533.66,1831.7 1528.66,1829.6C1522.76,1827.3 1510.86,1826.4 1507.86,1826.6ZM1492.06,1848.7C1493.66,1846.8 1493.46,1844 1491.66,1842.4C1489.76,1840.8 1486.96,1841 1485.36,1842.8C1483.86,1844.6 1483.86,1847.2 1485.56,1848.9C1487.36,1850.6 1490.26,1850.5 1492.06,1848.7ZM1675.36,1817.4C1671.86,1820.7 1668.06,1823.6 1663.96,1826.1C1666.86,1826.5 1671.16,1827.2 1671.16,1827.2C1668.06,1828.3 1664.96,1829.3 1661.76,1830C1660.46,1830.7 1655.66,1830.8 1654.46,1831.3C1650.26,1833.1 1645.96,1834.5 1641.46,1835.4C1645.86,1836.9 1650.46,1837.7 1655.06,1837.7C1666.76,1837.7 1669.86,1836.6 1676.36,1833.9C1682.86,1831.2 1693.16,1825.3 1693.16,1825.3C1693.16,1825.3 1685.56,1820 1678.96,1818.2C1677.86,1817.8 1676.56,1817.6 1675.36,1817.4ZM1460.16,1828.3C1456.96,1827.6 1453.86,1826.7 1450.76,1825.5C1450.76,1825.5 1455.06,1824.7 1457.96,1824.4C1453.86,1821.9 1450.06,1819 1446.56,1815.7C1444.86,1816 1443.56,1816.2 1442.86,1816.4C1436.26,1818.3 1428.66,1823.6 1428.66,1823.6C1428.66,1823.6 1439.06,1829.5 1445.46,1832.2C1451.86,1834.9 1455.06,1836 1466.76,1836C1471.36,1836 1475.96,1835.2 1480.36,1833.7C1475.86,1832.8 1471.56,1831.4 1467.36,1829.6C1466.26,1829.1 1461.46,1829 1460.16,1828.3ZM1609.36,1820.5C1609.86,1819.4 1610.36,1818.3 1610.76,1817.2C1612.76,1811 1612.36,1801.9 1612.36,1801.9C1612.36,1801.9 1601.56,1806.5 1595.76,1810C1589.96,1813.5 1587.26,1815.3 1580.76,1824.4C1580.36,1825 1579.96,1825.6 1579.56,1826.2L1579.56,1832.9C1581.56,1831.3 1583.66,1829.9 1585.86,1828.7C1586.96,1828.1 1589.66,1824.3 1591.06,1823.7C1593.46,1821.6 1595.96,1819.7 1598.56,1818C1598.56,1818 1596.86,1821.8 1595.56,1824.3C1599.96,1822.5 1604.66,1821.3 1609.36,1820.5ZM1631.86,1830.5C1630.56,1831.4 1633.86,1831.5 1633.86,1831.5C1640.76,1831.8 1647.66,1830 1653.66,1826.5C1663.46,1820.6 1665.46,1818.1 1669.36,1812.5C1673.26,1806.9 1678.86,1796.5 1678.86,1796.5C1678.86,1796.5 1664.36,1797.6 1661.36,1798.3C1658.36,1799 1647.36,1803.6 1642.66,1807.7C1636.26,1813.2 1630.06,1824.6 1630.06,1824.6C1630.06,1824.6 1628.56,1827.7 1630.06,1826.8C1633.16,1825 1640.56,1819.8 1643.66,1818C1649.66,1814.4 1659.36,1809.9 1659.36,1809.9C1659.36,1809.9 1651.96,1817.2 1646.56,1821.5C1643.46,1824 1634.96,1828.4 1631.86,1830.5ZM1526.36,1808.4C1520.56,1804.9 1509.66,1800.3 1509.66,1800.3C1509.66,1800.3 1509.26,1809.4 1511.26,1815.6C1511.66,1816.7 1512.16,1817.8 1512.66,1818.9C1517.36,1819.7 1521.96,1820.9 1526.46,1822.7C1525.16,1820.2 1523.46,1816.4 1523.46,1816.4C1526.06,1818.1 1528.56,1820 1530.96,1822.1C1532.26,1822.7 1534.96,1826.4 1536.16,1827.1C1538.36,1828.4 1540.46,1829.8 1542.56,1831.3L1542.56,1824.6C1542.16,1824 1541.76,1823.4 1541.36,1822.8C1534.96,1813.7 1532.26,1811.9 1526.36,1808.4ZM1491.86,1825.2C1493.46,1826.1 1491.86,1823 1491.86,1823C1491.86,1823 1485.66,1811.6 1479.36,1806.1C1474.66,1802 1463.56,1797.5 1460.66,1796.7C1457.76,1795.9 1443.16,1794.9 1443.16,1794.9C1443.16,1794.9 1448.66,1805.4 1452.66,1810.9C1456.66,1816.4 1458.66,1819 1468.36,1824.9C1474.36,1828.4 1481.16,1830.2 1488.16,1829.9C1488.16,1829.9 1491.46,1829.7 1490.16,1828.9C1487.06,1826.8 1478.56,1822.4 1475.36,1819.9C1469.96,1815.6 1462.56,1808.3 1462.56,1808.3C1462.56,1808.3 1472.36,1812.8 1478.26,1816.4C1481.36,1818.2 1488.66,1823.4 1491.86,1825.2ZM1616.16,1816.3C1615.96,1818.9 1617.76,1821.2 1620.26,1821.6C1622.56,1822 1624.76,1820.5 1625.26,1818.1C1625.26,1818 1625.26,1817.9 1625.26,1817.8C1625.46,1815.2 1623.66,1813 1621.06,1812.5C1618.76,1812.1 1616.56,1813.6 1616.16,1815.9C1616.16,1816 1616.16,1816.2 1616.16,1816.3ZM1501.16,1810.8C1503.46,1810.5 1505.56,1812.3 1505.76,1814.6C1505.96,1817.2 1504.16,1819.5 1501.66,1819.9L1501.36,1819.9C1498.96,1820.2 1496.86,1818.4 1496.66,1816.1C1496.46,1813.5 1498.26,1811.2 1500.76,1810.8L1501.16,1810.8ZM1654.46,1792.4C1654.66,1791.2 1654.76,1790 1654.76,1788.8C1654.76,1782.2 1651.66,1773.7 1651.66,1773.7C1651.66,1773.7 1642.76,1781.5 1638.26,1786.7C1633.76,1791.9 1631.76,1794.5 1628.36,1805.2C1627.06,1809.5 1626.56,1813.9 1626.76,1818.4C1628.96,1814.6 1631.66,1811 1634.56,1807.6C1635.46,1806.6 1636.86,1802.2 1637.96,1801.2C1639.56,1798.5 1641.36,1795.9 1643.36,1793.4C1643.36,1793.4 1642.86,1797.6 1642.46,1800.4C1646.26,1797.3 1650.26,1794.7 1654.46,1792.4ZM1493.56,1803.6C1490.16,1792.9 1488.16,1790.3 1483.66,1785.1C1479.16,1779.9 1470.26,1772.1 1470.26,1772.1C1470.26,1772.1 1467.16,1780.6 1467.16,1787.2C1467.16,1788.4 1467.26,1789.6 1467.46,1790.8C1471.76,1793 1475.76,1795.7 1479.46,1798.8C1478.96,1796 1478.46,1791.8 1478.46,1791.8C1480.46,1794.3 1482.26,1796.9 1483.86,1799.6C1484.96,1800.6 1486.36,1805 1487.26,1806C1490.16,1809.3 1492.86,1812.9 1495.06,1816.8C1495.36,1812.3 1494.86,1807.8 1493.56,1803.6ZM1684.8,1805.79C1685.42,1805.79 1686.05,1805.92 1686.66,1806.2C1688.96,1807.2 1689.96,1809.8 1688.96,1812.1C1687.96,1814.4 1685.36,1815.4 1683.06,1814.4L1683.05,1814.4C1680.76,1813.19 1679.76,1810.5 1680.86,1808.3C1681.58,1806.71 1683.15,1805.79 1684.79,1805.79L1684.8,1805.79ZM1438.96,1812.7C1441.16,1811.5 1441.86,1808.7 1440.66,1806.6C1439.46,1804.5 1436.66,1803.7 1434.56,1804.9C1432.46,1806.1 1431.66,1808.7 1432.76,1810.8C1433.96,1813.1 1436.66,1813.9 1438.96,1812.7L1438.96,1812.7ZM1714.36,1781.5L1713.46,1782.2C1712.56,1783.4 1708.16,1785.3 1707.26,1786.3C1704.06,1789.6 1700.66,1792.5 1696.96,1795.2C1701.56,1794.8 1706.16,1793.7 1710.36,1792C1711.86,1791.4 1713.16,1790.8 1714.36,1790.2L1714.36,1781.5ZM1704.56,1782.2C1711.16,1772.9 1712.06,1769.9 1713.56,1763.2C1713.86,1761.8 1714.16,1760.3 1714.36,1758.6L1714.36,1745.5C1710.86,1747.4 1702.46,1751.8 1700.56,1753.2C1698.16,1755 1689.76,1763.6 1687.06,1769.2C1683.36,1776.8 1682.16,1789.7 1682.16,1789.7C1682.16,1789.7 1681.96,1793.2 1683.06,1791.8C1685.26,1788.9 1689.96,1781.3 1692.06,1778.3C1696.16,1772.7 1703.36,1764.7 1703.36,1764.7C1703.36,1764.7 1699.46,1774.3 1696.16,1780.4C1694.26,1783.9 1688.16,1791.3 1686.16,1794.4C1685.26,1795.7 1688.46,1794.5 1688.46,1794.5C1694.86,1792.1 1700.46,1787.8 1704.56,1782.2ZM1414.86,1784.7C1413.96,1783.7 1409.56,1781.7 1408.66,1780.6C1406.06,1778.7 1403.46,1776.6 1401.16,1774.4C1401.16,1774.4 1405.36,1775.4 1408.26,1776.2C1405.46,1772.3 1403.16,1768.1 1401.26,1763.7C1400.06,1763.4 1398.86,1763.1 1397.56,1762.9C1390.76,1762 1381.66,1763.9 1381.66,1763.9C1381.66,1763.9 1388.86,1773.4 1393.76,1778.4C1398.66,1783.4 1401.06,1785.6 1411.86,1790.3C1416.16,1792.1 1420.66,1793.2 1425.26,1793.5C1421.46,1790.9 1417.96,1787.9 1414.86,1784.7ZM1417.46,1780.5C1421.56,1786.1 1427.16,1790.5 1433.66,1793C1433.66,1793 1436.76,1794.2 1435.96,1792.8C1433.96,1789.7 1427.86,1782.3 1425.96,1778.8C1422.56,1772.6 1418.66,1763 1418.66,1763C1418.66,1763 1425.86,1771 1429.96,1776.6C1432.06,1779.5 1436.76,1787.2 1438.96,1790.1C1440.06,1791.5 1439.86,1788 1439.86,1788C1439.86,1788 1438.66,1775.1 1434.96,1767.5C1432.26,1761.9 1423.86,1753.4 1421.46,1751.5C1419.06,1749.6 1406.06,1743 1406.06,1743C1406.06,1743 1407.06,1754.8 1408.46,1761.5C1409.86,1768.2 1410.86,1771.3 1417.46,1780.5ZM1663.36,1781C1660.96,1781.3 1659.36,1783.5 1659.66,1785.9C1659.66,1786 1659.66,1786.1 1659.76,1786.2C1660.36,1788.7 1662.76,1790.3 1665.26,1790C1667.66,1789.7 1669.26,1787.5 1668.96,1785.1C1668.96,1785 1668.96,1784.9 1668.86,1784.8C1668.26,1782.2 1665.86,1780.6 1663.36,1781ZM1456.76,1788.3C1459.26,1788.7 1461.66,1787.1 1462.26,1784.5C1462.76,1782.2 1461.26,1779.9 1458.96,1779.3C1458.86,1779.3 1458.76,1779.3 1458.66,1779.2C1456.16,1778.8 1453.66,1780.4 1453.16,1782.9C1452.66,1785.3 1454.16,1787.6 1456.56,1788.1C1456.66,1788.3 1456.66,1788.3 1456.76,1788.3ZM1680.26,1765.2C1680.66,1762.1 1681.36,1758.9 1682.16,1755.9C1682.16,1755.9 1683.36,1759.9 1684.06,1762.7C1686.26,1758.4 1688.86,1754.4 1691.86,1750.7C1691.56,1749.5 1691.16,1748.4 1690.76,1747.3C1688.16,1741.2 1681.96,1734.6 1681.96,1734.6C1681.96,1734.6 1676.86,1745.3 1674.76,1751.8C1672.66,1758.3 1671.86,1761.5 1672.96,1772.7C1673.46,1777.1 1674.76,1781.4 1676.66,1785.4C1677.16,1781 1678.16,1776.6 1679.56,1772.4C1680.06,1771.1 1679.66,1766.5 1680.26,1765.2ZM1442.36,1770.7C1443.76,1774.9 1444.76,1779.3 1445.26,1783.7C1447.26,1779.7 1448.46,1775.4 1448.96,1770.9C1450.06,1759.7 1449.26,1756.5 1447.16,1750C1445.06,1743.5 1439.96,1732.8 1439.96,1732.8C1439.96,1732.8 1433.76,1739.4 1431.16,1745.5C1430.76,1746.6 1430.36,1747.8 1430.06,1748.9C1433.06,1752.6 1435.66,1756.6 1437.86,1760.9C1438.56,1758.2 1439.76,1754.1 1439.76,1754.1C1440.66,1757.2 1441.26,1760.3 1441.66,1763.4C1442.36,1764.9 1441.96,1769.5 1442.36,1770.7ZM1714.36,1777.1C1714.16,1777.3 1714.06,1777.6 1713.86,1777.8L1714.36,1777.7L1714.36,1777.1ZM1394.66,1748.9C1392.16,1749.2 1390.46,1751.4 1390.66,1753.9C1390.96,1756.4 1393.16,1758.1 1395.66,1757.9C1398.06,1757.6 1399.76,1755.5 1399.66,1753.1C1399.46,1750.5 1397.16,1748.7 1394.66,1748.9ZM1695.56,1736.6C1693.46,1737.8 1692.86,1740.5 1694.06,1742.6C1694.16,1742.7 1694.16,1742.8 1694.26,1742.9C1695.76,1745 1698.66,1745.5 1700.76,1744.2C1702.86,1743 1703.46,1740.3 1702.26,1738.2C1702.16,1738.1 1702.16,1738 1702.06,1737.9C1700.56,1735.8 1697.76,1735.2 1695.56,1736.6ZM1421.26,1742.4C1423.46,1743.8 1426.26,1743.2 1427.86,1741.1C1429.26,1739.1 1428.76,1736.4 1426.76,1735C1426.66,1734.9 1426.56,1734.9 1426.56,1734.8C1424.36,1733.4 1421.56,1734 1420.06,1736.1C1418.66,1738.1 1419.16,1740.8 1421.06,1742.2C1421.06,1742.3 1421.16,1742.4 1421.26,1742.4ZM1404.86,1735.1C1405.46,1736.7 1406.26,1733.4 1406.26,1733.4C1406.26,1733.4 1408.76,1720.9 1407.66,1712.8C1406.86,1706.8 1401.76,1696.5 1400.06,1694.1C1398.36,1691.7 1388.76,1681.9 1388.76,1681.9C1388.76,1681.9 1386.26,1693.3 1385.76,1699.9C1385.26,1706.5 1385.06,1709.7 1388.46,1720.3C1390.46,1726.6 1394.26,1732.2 1399.46,1736.4C1399.46,1736.4 1401.96,1738.4 1401.56,1736.9C1400.66,1733.4 1397.26,1724.8 1396.56,1720.9C1395.36,1714.3 1394.56,1704.1 1394.56,1704.1C1394.56,1704.1 1398.76,1713.6 1400.76,1720C1401.66,1723.3 1403.76,1731.8 1404.86,1735.1ZM1384.86,1723.3C1384.36,1722.1 1380.96,1719.1 1380.46,1717.7C1378.66,1715.2 1376.96,1712.5 1375.46,1709.8C1375.46,1709.8 1378.96,1711.9 1381.26,1713.4C1379.86,1708.9 1378.96,1704.4 1378.46,1699.7C1377.06,1698.9 1375.96,1698.3 1375.36,1698C1369.56,1695.3 1360.86,1694.6 1360.86,1694.6C1360.86,1694.6 1364.56,1705.5 1367.56,1711.6C1370.56,1717.7 1372.06,1720.4 1380.36,1727.7C1383.66,1730.5 1387.36,1732.8 1391.46,1734.4C1388.96,1731 1386.76,1727.3 1384.86,1723.3ZM1713.36,1695.6C1712.76,1694.6 1712.06,1693.6 1711.36,1692.7C1707.36,1687.7 1699.96,1683.2 1699.96,1683.2C1699.96,1683.2 1698.46,1694.6 1698.36,1701.4C1698.36,1708.1 1698.46,1711.3 1702.66,1721.5C1704.36,1725.5 1706.66,1729.2 1709.56,1732.5C1708.76,1728.2 1708.46,1723.9 1708.56,1719.5C1708.56,1718.2 1706.96,1714 1707.06,1712.5C1706.56,1709.4 1706.26,1706.3 1706.16,1703.2C1706.16,1703.2 1708.36,1706.7 1709.76,1709.1C1710.56,1704.4 1711.76,1699.9 1713.36,1695.6ZM1419.36,1719.8C1423.56,1709.6 1423.66,1706.4 1423.66,1699.7C1423.66,1693 1422.06,1681.5 1422.06,1681.5C1422.06,1681.5 1414.66,1686 1410.66,1691C1409.96,1691.9 1409.26,1692.9 1408.66,1693.9C1410.36,1698.3 1411.56,1702.8 1412.26,1707.4C1413.66,1705 1415.86,1701.5 1415.86,1701.5C1415.76,1704.6 1415.46,1707.7 1414.96,1710.8C1415.16,1712.2 1413.46,1716.5 1413.46,1717.8C1413.56,1722.2 1413.16,1726.5 1412.46,1730.8C1415.36,1727.5 1417.66,1723.8 1419.36,1719.8ZM1714.36,1714.4C1713.96,1718.1 1713.96,1721.7 1714.36,1725.4L1714.36,1714.4ZM1561.2,1713.23C1555.92,1713.23 1551.18,1712.42 1546.99,1710.8C1542.79,1709.17 1539.24,1706.79 1536.33,1703.64C1533.42,1700.5 1531.19,1696.66 1529.64,1692.12C1528.08,1687.59 1527.3,1682.38 1527.3,1676.5C1527.3,1670.61 1528.2,1665.4 1529.99,1660.87C1531.78,1656.34 1534.24,1652.5 1537.35,1649.35C1540.46,1646.2 1544.11,1643.82 1548.31,1642.2C1552.5,1640.57 1557,1639.76 1561.81,1639.76C1564.71,1639.76 1567.35,1639.98 1569.72,1640.42C1572.09,1640.86 1574.15,1641.35 1575.91,1641.89C1577.67,1642.43 1579.12,1643.01 1580.27,1643.62C1581.42,1644.23 1582.24,1644.66 1582.71,1644.94L1578.95,1655.39C1577.33,1654.37 1575.01,1653.41 1572,1652.5C1568.99,1651.58 1565.73,1651.13 1562.21,1651.13C1559.17,1651.13 1556.33,1651.65 1553.69,1652.7C1551.05,1653.75 1548.77,1655.32 1546.84,1657.42C1544.91,1659.52 1543.4,1662.15 1542.32,1665.33C1541.24,1668.51 1540.7,1672.2 1540.7,1676.39C1540.7,1680.12 1541.12,1683.53 1541.97,1686.64C1542.81,1689.76 1544.11,1692.44 1545.87,1694.71C1547.63,1696.98 1549.86,1698.74 1552.57,1699.99C1555.28,1701.24 1558.52,1701.87 1562.31,1701.87C1566.85,1701.87 1570.53,1701.41 1573.37,1700.5C1576.22,1699.58 1578.41,1698.72 1579.97,1697.91L1583.42,1708.36C1582.61,1708.9 1581.51,1709.44 1580.12,1709.99C1578.74,1710.53 1577.1,1711.05 1575.2,1711.56C1573.31,1712.07 1571.17,1712.47 1568.81,1712.78C1566.44,1713.08 1563.9,1713.23 1561.2,1713.23ZM1601.99,1711.71L1588.69,1711.71C1591.33,1704.2 1593.84,1697.27 1596.2,1690.91C1598.57,1684.55 1600.89,1678.53 1603.16,1672.84C1605.42,1667.16 1607.67,1661.75 1609.9,1656.61C1612.14,1651.46 1614.44,1646.39 1616.81,1641.38L1628.88,1641.38C1631.25,1646.39 1633.55,1651.46 1635.78,1656.61C1638.01,1661.75 1640.26,1667.16 1642.53,1672.84C1644.8,1678.53 1647.13,1684.55 1649.53,1690.91C1651.93,1697.27 1654.45,1704.2 1657.09,1711.71L1643.29,1711.71C1642.34,1708.94 1641.36,1706.2 1640.35,1703.49C1639.33,1700.78 1638.35,1698.01 1637.4,1695.17L1607.77,1695.17C1606.83,1698.01 1605.86,1700.8 1604.88,1703.54C1603.9,1706.28 1602.94,1709 1601.99,1711.71ZM1488.94,1711.71L1476.15,1711.71L1476.15,1641.38L1520.6,1641.38L1520.6,1652.24L1488.94,1652.24L1488.94,1670.2L1517.05,1670.2L1517.05,1681.06L1488.94,1681.06L1488.94,1711.71ZM1371.66,1687.4C1371.16,1689.8 1372.56,1692.1 1374.96,1692.7C1377.36,1693.2 1379.66,1691.8 1380.26,1689.4C1380.76,1687 1379.36,1684.7 1376.96,1684.1C1374.56,1683.6 1372.16,1685.1 1371.66,1687.4L1371.66,1687.4ZM1714.36,1680.2C1713.76,1680.5 1713.16,1680.9 1712.66,1681.4C1711.16,1683.3 1711.36,1686.1 1713.26,1687.6C1713.56,1687.8 1713.86,1688.1 1714.26,1688.2L1714.36,1680.2ZM1409.36,1679.7C1407.86,1677.8 1405.06,1677.6 1403.16,1679.1C1401.26,1680.6 1401.06,1683.4 1402.56,1685.3C1404.06,1687.2 1406.86,1687.4 1408.76,1685.9C1410.56,1684.4 1410.86,1681.6 1409.36,1679.7L1409.36,1679.7ZM1622.59,1654.98C1621.03,1658.57 1619.26,1662.93 1617.26,1668.07C1615.27,1673.22 1613.18,1678.8 1611.02,1684.82L1634.16,1684.82C1631.99,1678.8 1629.9,1673.18 1627.87,1667.97C1625.84,1662.76 1624.08,1658.43 1622.59,1654.98ZM1399.16,1623.5C1399.16,1623.5 1391.66,1632.4 1388.06,1638.1C1384.46,1643.8 1382.86,1646.5 1380.96,1657.4C1379.76,1663.9 1380.56,1670.7 1383.16,1676.8C1383.16,1676.8 1384.46,1679.7 1384.76,1678.2C1385.56,1674.7 1386.56,1665.5 1387.76,1661.7C1389.76,1655.3 1393.76,1645.9 1393.76,1645.9C1393.76,1645.9 1393.06,1656.3 1391.86,1662.9C1391.26,1666.3 1389.06,1674.8 1388.56,1678.3C1388.26,1680 1390.56,1677.5 1390.56,1677.5C1390.56,1677.5 1398.56,1667.6 1401.36,1659.9C1403.36,1654.2 1403.76,1642.7 1403.36,1639.8C1402.96,1636.9 1399.16,1623.5 1399.16,1623.5ZM1404.26,1666.8C1402.26,1670.7 1399.96,1674.4 1397.26,1677.8C1401.36,1676.3 1405.16,1674.1 1408.46,1671.3C1416.96,1664.2 1418.56,1661.4 1421.66,1655.4C1424.76,1649.4 1428.76,1638.6 1428.76,1638.6C1428.76,1638.6 1420.06,1639.1 1414.26,1641.7C1413.16,1642.2 1412.16,1642.8 1411.16,1643.4C1410.56,1648 1409.56,1652.6 1408.16,1657C1410.46,1655.5 1414.06,1653.5 1414.06,1653.5C1412.56,1656.2 1410.76,1658.8 1408.96,1661.3C1408.26,1662.6 1404.86,1665.6 1404.26,1666.8ZM1710.86,1645.1C1709.46,1644.3 1708.36,1643.7 1707.76,1643.4C1701.86,1640.8 1693.26,1640.3 1693.26,1640.3C1693.26,1640.3 1697.26,1651.2 1700.36,1657.1C1703.46,1663 1705.06,1665.8 1713.56,1673L1714.46,1673.7L1714.46,1664.6C1713.96,1664.1 1713.66,1663.6 1713.26,1663C1711.36,1660.5 1709.66,1657.9 1708.16,1655.2C1708.16,1655.2 1711.76,1657.2 1714.06,1658.7C1712.46,1654.3 1711.46,1649.7 1710.86,1645.1ZM1377.16,1671.4C1376.46,1667.1 1376.26,1662.7 1376.36,1658.4C1376.46,1657.1 1374.86,1652.8 1375.06,1651.4C1374.66,1648.3 1374.36,1645.2 1374.36,1642.1C1374.36,1642.1 1376.46,1645.6 1377.76,1648C1378.66,1643.4 1379.96,1638.9 1381.66,1634.6C1381.06,1633.6 1380.46,1632.6 1379.76,1631.6C1375.86,1626.5 1368.56,1621.9 1368.56,1621.9C1368.56,1621.9 1366.76,1633.3 1366.56,1640C1366.36,1646.7 1366.46,1649.9 1370.36,1660.2C1372.06,1664.4 1374.36,1668.1 1377.16,1671.4ZM1707.94,1629.3C1708.24,1629.3 1708.55,1629.34 1708.86,1629.4L1708.87,1629.4C1711.26,1629.9 1712.86,1632.3 1712.26,1634.6C1711.76,1637 1709.46,1638.5 1707.06,1638C1704.66,1637.5 1703.16,1635.2 1703.66,1632.8C1704.09,1630.71 1705.89,1629.31 1707.93,1629.3L1707.94,1629.3ZM1413.16,1627.8C1410.76,1628.3 1409.26,1630.6 1409.76,1633C1410.26,1635.4 1412.56,1636.9 1414.96,1636.4C1417.36,1635.9 1418.86,1633.6 1418.36,1631.2C1417.86,1628.8 1415.56,1627.3 1413.16,1627.8L1413.16,1627.8ZM1388.06,1626.3C1389.66,1624.5 1389.46,1621.7 1387.56,1620.1C1385.76,1618.5 1382.96,1618.7 1381.36,1620.6C1379.76,1622.4 1379.96,1625.2 1381.86,1626.8C1383.66,1628.3 1386.46,1628.1 1388.06,1626.3L1388.06,1626.3ZM1678.06,1605.2C1682.56,1610.2 1684.86,1612.4 1694.86,1617.2C1698.76,1619 1703.06,1620.2 1707.36,1620.6C1703.86,1617.9 1700.66,1615 1697.86,1611.7C1697.06,1610.7 1692.96,1608.7 1692.06,1607.6C1689.56,1605.7 1687.26,1603.6 1685.06,1601.4C1685.06,1601.4 1689.06,1602.5 1691.66,1603.3C1689.16,1599.4 1686.96,1595.3 1685.26,1590.9C1684.16,1590.6 1682.96,1590.3 1681.86,1590.1C1675.56,1589.1 1667.06,1590.8 1667.06,1590.8C1667.06,1590.8 1673.56,1600.2 1678.06,1605.2ZM1430.06,1605.9C1429.16,1607 1425.06,1609.1 1424.26,1610C1421.36,1613.3 1418.16,1616.2 1414.76,1618.9C1419.06,1618.5 1423.36,1617.3 1427.26,1615.5C1437.26,1610.7 1439.46,1608.5 1443.96,1603.5C1448.46,1598.5 1455.06,1589 1455.06,1589C1455.06,1589 1446.56,1587.3 1440.26,1588.3C1439.56,1588.4 1438.36,1588.7 1436.86,1589.1C1435.16,1593.4 1432.96,1597.6 1430.46,1601.5C1433.06,1600.6 1437.06,1599.6 1437.06,1599.6C1434.76,1601.9 1432.46,1604 1430.06,1605.9ZM1698.66,1604.1C1703.36,1610.9 1713.56,1618.4 1713.56,1618.4C1713.56,1618.4 1713.86,1618.6 1714.36,1618.9L1714.36,1615.8C1712.56,1612.1 1709.86,1607.1 1708.66,1604.7C1705.86,1598.6 1702.56,1588.8 1702.56,1588.8C1702.56,1588.8 1708.86,1596.8 1712.36,1602.6C1713.06,1603.8 1713.76,1605.1 1714.36,1606.4L1714.36,1589.8C1711.76,1585.3 1709.66,1583.2 1706.16,1579.9C1701.26,1575.4 1691.76,1568.6 1691.76,1568.6C1691.76,1568.6 1691.26,1582.4 1691.66,1585.3C1692.06,1588.2 1695.26,1599.1 1698.66,1604.1ZM1404.16,1595C1401.36,1601 1400.46,1607.7 1401.36,1614.3C1401.36,1614.3 1401.86,1617.4 1402.56,1616C1404.26,1612.8 1407.56,1604.2 1409.66,1600.8C1413.26,1595.1 1419.46,1587 1419.46,1587C1419.46,1587 1416.16,1596.8 1413.36,1602.9C1411.86,1606.1 1407.66,1613.8 1406.26,1617C1405.56,1618.6 1408.46,1616.7 1408.46,1616.7C1408.46,1616.7 1418.76,1609.2 1423.36,1602.4C1426.76,1597.4 1430.06,1586.3 1430.46,1583.5C1430.86,1580.7 1430.36,1566.8 1430.36,1566.8C1430.36,1566.8 1420.86,1573.5 1415.96,1578.1C1411.06,1582.7 1408.76,1585 1404.16,1595ZM1396.86,1607.7C1397.36,1603.4 1398.16,1599.1 1399.46,1594.9C1399.86,1593.7 1399.46,1589.1 1399.96,1587.8C1400.36,1584.7 1400.86,1581.6 1401.66,1578.6C1401.66,1578.6 1402.86,1582.5 1403.46,1585.2C1405.46,1581 1407.86,1576.9 1410.66,1573.2C1410.36,1572.1 1409.96,1570.9 1409.56,1569.9C1407.06,1564 1401.16,1557.6 1401.16,1557.6C1401.16,1557.6 1396.56,1568.2 1394.66,1574.6C1392.76,1581 1392.06,1584.2 1393.26,1595.1C1393.66,1599.5 1394.96,1603.7 1396.86,1607.7ZM1683.96,1580.4C1683.86,1578 1681.76,1576.1 1679.36,1576.2C1676.96,1576.3 1675.06,1578.4 1675.16,1580.8C1675.26,1583.2 1677.36,1585.1 1679.76,1585C1682.26,1584.9 1684.06,1582.9 1683.96,1580.4L1683.96,1580.4ZM1446.86,1579.2C1446.96,1576.8 1445.16,1574.7 1442.66,1574.6C1440.26,1574.5 1438.16,1576.3 1438.06,1578.8C1437.96,1581.2 1439.76,1583.3 1442.26,1583.4C1444.66,1583.5 1446.76,1581.7 1446.86,1579.2L1446.86,1579.2ZM1714.36,1568C1713.66,1569.2 1713.06,1570.4 1712.56,1571.6C1712.26,1572.2 1711.86,1573.4 1711.46,1575C1712.56,1576.4 1713.46,1577.8 1714.36,1579.2L1714.36,1568ZM1643.86,1569.5C1649.96,1572.2 1652.96,1573.4 1664.06,1573.6C1668.46,1573.7 1672.76,1573 1676.86,1571.6C1672.66,1570.6 1668.46,1569.2 1664.56,1567.4C1663.36,1566.8 1658.86,1566.7 1657.56,1566C1654.56,1565.2 1651.56,1564.3 1648.66,1563.1C1648.66,1563.1 1652.66,1562.5 1655.46,1562.2C1651.56,1559.7 1647.86,1556.8 1644.56,1553.5C1643.36,1553.6 1642.26,1553.9 1641.06,1554.1C1634.86,1555.8 1627.76,1560.8 1627.76,1560.8C1627.76,1560.8 1637.76,1566.8 1643.86,1569.5ZM1466.56,1560.5C1469.36,1560.8 1473.36,1561.4 1473.36,1561.4C1470.46,1562.5 1467.46,1563.5 1464.46,1564.3C1463.26,1565 1458.66,1565.2 1457.46,1565.7C1453.46,1567.5 1449.36,1568.9 1445.16,1569.9C1449.26,1571.3 1453.66,1572 1457.96,1571.9C1468.96,1571.6 1471.96,1570.5 1478.16,1567.8C1484.36,1565.1 1494.16,1559.1 1494.16,1559.1C1494.16,1559.1 1487.06,1554.1 1480.86,1552.4C1479.76,1552.1 1478.56,1551.9 1477.36,1551.7C1474.06,1555.1 1470.46,1558 1466.56,1560.5ZM1703.16,1568.4C1705.16,1569.8 1707.96,1569.3 1709.26,1567.3C1710.66,1565.3 1710.16,1562.5 1708.16,1561.2C1706.16,1559.8 1703.46,1560.3 1702.06,1562.3C1700.66,1564.3 1701.16,1567 1703.16,1568.4ZM1418.86,1566.8C1420.86,1565.4 1421.36,1562.7 1419.96,1560.7C1418.56,1558.7 1415.86,1558.2 1413.86,1559.6C1411.86,1561 1411.36,1563.7 1412.76,1565.7C1414.06,1567.6 1416.86,1568.1 1418.86,1566.8L1418.86,1566.8ZM1662.26,1560.1C1669.26,1564.4 1681.76,1567.1 1681.76,1567.1C1681.76,1567.1 1685.16,1567.7 1683.86,1566.5C1681.26,1564.1 1674.36,1558.8 1671.66,1556.5C1666.56,1552.1 1659.56,1544.4 1659.56,1544.4C1659.56,1544.4 1668.56,1549.2 1674.16,1553C1677.36,1555.2 1683.96,1561.7 1686.76,1564C1687.96,1565 1687.16,1561.9 1687.16,1561.9C1685.36,1555.5 1681.76,1549.8 1676.76,1545.4C1668.46,1538.1 1665.56,1537 1659.16,1534.8C1652.76,1532.6 1641.36,1530.4 1641.36,1530.4C1641.36,1530.4 1646.56,1543.2 1648.06,1545.7C1649.56,1548.2 1657.16,1557 1662.26,1560.1ZM1434.86,1560.3C1434.86,1560.3 1434.06,1563.3 1435.26,1562.4C1438.06,1560.1 1444.66,1553.6 1447.86,1551.4C1453.46,1547.6 1462.46,1542.8 1462.46,1542.8C1462.46,1542.8 1455.46,1550.4 1450.36,1554.9C1447.76,1557.2 1440.76,1562.5 1438.16,1564.9C1436.86,1566.1 1440.26,1565.5 1440.26,1565.5C1440.26,1565.5 1452.66,1562.8 1459.76,1558.5C1464.96,1555.3 1472.36,1546.5 1473.96,1544.1C1475.56,1541.7 1480.66,1528.8 1480.66,1528.8C1480.66,1528.8 1469.26,1531.1 1462.86,1533.2C1456.46,1535.3 1453.56,1536.5 1445.26,1543.8C1440.26,1548.2 1436.66,1553.9 1434.86,1560.3ZM1673.46,1536.3C1672.96,1533.6 1672.46,1529.5 1672.46,1529.5C1674.36,1532 1676.16,1534.5 1677.76,1537.2C1678.76,1538.2 1680.26,1542.5 1681.06,1543.5C1683.96,1546.8 1686.46,1550.3 1688.66,1554.1C1688.76,1549.7 1688.16,1545.4 1686.86,1541.2C1683.46,1530.7 1681.56,1528.1 1677.16,1523C1672.76,1517.9 1664.26,1510.1 1664.26,1510.1C1664.26,1510.1 1661.46,1518.3 1661.56,1524.7C1661.66,1525.9 1661.76,1527 1661.96,1528.2C1666.16,1530.6 1669.96,1533.2 1673.46,1536.3ZM1440.96,1541.8C1441.86,1540.8 1443.26,1536.5 1444.26,1535.5C1445.86,1532.8 1447.56,1530.2 1449.56,1527.8C1449.56,1527.8 1449.06,1531.9 1448.56,1534.6C1452.06,1531.6 1455.96,1528.9 1459.96,1526.6C1460.16,1525.4 1460.26,1524.3 1460.36,1523.1C1460.56,1516.7 1457.76,1508.5 1457.76,1508.5C1457.76,1508.5 1449.26,1516.3 1444.86,1521.4C1440.46,1526.5 1438.56,1529.1 1435.16,1539.6C1433.86,1543.8 1433.26,1548.1 1433.36,1552.4C1435.56,1548.7 1438.16,1545.1 1440.96,1541.8ZM1633.26,1542.5C1631.06,1543.6 1630.26,1546.3 1631.36,1548.4C1632.46,1550.5 1635.16,1551.4 1637.26,1550.3C1639.46,1549.2 1640.26,1546.5 1639.16,1544.4C1638.06,1542.3 1635.46,1541.4 1633.26,1542.5ZM1484.76,1548.7C1486.96,1549.8 1489.56,1548.9 1490.66,1546.8C1491.76,1544.6 1490.86,1542 1488.76,1540.9C1486.56,1539.8 1483.96,1540.7 1482.86,1542.8C1481.76,1545 1482.56,1547.6 1484.76,1548.7ZM1616.26,1542.3C1620.56,1541.6 1624.66,1540.1 1628.46,1538C1624.16,1537.8 1619.86,1537.1 1615.56,1536.1C1614.36,1535.8 1609.76,1536.4 1608.46,1535.9C1605.36,1535.7 1602.26,1535.3 1599.16,1534.7C1599.16,1534.7 1603.06,1533.3 1605.66,1532.5C1601.36,1530.7 1597.26,1528.5 1593.36,1525.9C1592.26,1526.3 1591.16,1526.7 1590.06,1527.2C1584.26,1530 1578.26,1536.2 1578.26,1536.2C1578.26,1536.2 1589.06,1540.3 1595.56,1541.8C1602.06,1543.3 1605.36,1544 1616.26,1542.3ZM1531.86,1525.6C1530.76,1525.1 1529.66,1524.7 1528.56,1524.3C1524.66,1526.9 1520.56,1529.1 1516.26,1530.9C1518.96,1531.7 1522.76,1533.1 1522.76,1533.1C1519.66,1533.7 1516.56,1534.1 1513.46,1534.3C1512.06,1534.8 1507.56,1534.1 1506.36,1534.4C1502.16,1535.5 1497.86,1536.1 1493.46,1536.3C1497.26,1538.4 1501.46,1539.8 1505.66,1540.6C1516.56,1542.4 1519.66,1541.8 1526.26,1540.2C1532.86,1538.6 1543.56,1534.6 1543.56,1534.6C1543.56,1534.6 1537.66,1528.4 1531.86,1525.6ZM1586.17,1504C1586.52,1504 1597.96,1504.02 1604.46,1505C1611.06,1506 1614.16,1506.6 1623.66,1512.2C1629.36,1515.6 1633.96,1520.5 1636.86,1526.5C1636.86,1526.5 1638.16,1529.3 1636.86,1528.6C1633.66,1526.9 1626.06,1521.7 1622.46,1520.1C1616.26,1517.4 1606.56,1514.3 1606.56,1514.3C1606.56,1514.3 1614.86,1520.6 1620.66,1524C1622.11,1524.87 1624.69,1526.26 1627.3,1527.66L1627.81,1527.94C1630.42,1529.34 1633,1530.73 1634.46,1531.6C1635.86,1532.5 1632.46,1532.6 1632.46,1532.6C1632.46,1532.6 1619.76,1532.3 1612.06,1529.3C1606.36,1527.2 1597.56,1519.9 1595.56,1517.8C1593.56,1515.7 1586.16,1504 1586.16,1504L1586.17,1504ZM1485.16,1527C1488.36,1525.3 1495.96,1520.1 1499.56,1518.5C1505.76,1515.8 1515.46,1512.7 1515.46,1512.7C1515.46,1512.7 1507.16,1518.9 1501.36,1522.4C1498.36,1524.2 1490.56,1528.1 1487.56,1530C1486.06,1530.9 1489.56,1531 1489.56,1531C1489.56,1531 1502.26,1530.7 1509.96,1527.7C1515.56,1525.5 1524.56,1518.3 1526.46,1516.1C1528.36,1513.9 1535.86,1502.3 1535.86,1502.3C1535.86,1502.3 1524.26,1502.5 1517.56,1503.4C1510.86,1504.3 1507.86,1505 1498.36,1510.6C1492.66,1514 1488.06,1519 1485.16,1524.9C1485.26,1524.9 1483.86,1527.8 1485.16,1527ZM1651.86,1525.7C1654.26,1526.1 1656.56,1524.6 1656.96,1522.2C1657.36,1519.8 1655.86,1517.5 1653.46,1517.1C1651.06,1516.7 1648.76,1518.2 1648.36,1520.6C1647.86,1522.9 1649.46,1525.2 1651.86,1525.7L1651.86,1525.7ZM1585.66,1524.3C1587.56,1522.8 1587.96,1520 1586.46,1518.1C1584.96,1516.2 1582.16,1515.8 1580.26,1517.3C1578.36,1518.8 1577.96,1521.5 1579.46,1523.5C1580.96,1525.4 1583.66,1525.8 1585.66,1524.3L1585.66,1524.3ZM1470.16,1524C1472.56,1523.6 1474.16,1521.2 1473.66,1518.9C1473.26,1516.5 1470.86,1514.9 1468.56,1515.4C1466.16,1515.8 1464.56,1518.1 1465.06,1520.5C1465.46,1522.9 1467.76,1524.4 1470.16,1524ZM1536.36,1522.7C1538.26,1524.2 1541.06,1523.8 1542.56,1521.9C1544.06,1520 1543.66,1517.2 1541.76,1515.7C1539.86,1514.2 1537.06,1514.6 1535.56,1516.5C1534.06,1518.4 1534.46,1521.2 1536.36,1522.7L1536.36,1522.7ZM1605.96,1498.1C1610.36,1499.6 1614.56,1501.5 1618.66,1503.9C1617.66,1501.3 1616.46,1497.4 1616.46,1497.4C1618.76,1499.5 1620.96,1501.7 1623.06,1504C1624.26,1504.8 1626.46,1508.8 1627.46,1509.5C1630.86,1512.2 1633.96,1515.2 1636.86,1518.6C1636.16,1514.3 1634.86,1510.1 1632.76,1506.3C1627.46,1496.6 1625.16,1494.4 1619.96,1490.2C1614.76,1486 1604.96,1479.9 1604.96,1479.9C1604.96,1479.9 1603.76,1488.5 1605.06,1494.7C1605.16,1495.3 1605.46,1496.5 1605.96,1498.1ZM1494.56,1507.9C1495.56,1507.1 1497.76,1503.1 1498.96,1502.4C1501.06,1500.1 1503.26,1497.8 1505.56,1495.8C1505.56,1495.8 1504.26,1499.7 1503.36,1502.3C1507.36,1500 1511.66,1498 1516.06,1496.5C1516.46,1495.4 1516.76,1494.3 1517.06,1493.1C1518.36,1486.8 1517.16,1478.2 1517.16,1478.2C1517.16,1478.2 1507.36,1484.3 1502.16,1488.5C1496.96,1492.7 1494.56,1494.9 1489.36,1504.6C1487.36,1508.5 1485.96,1512.6 1485.26,1516.9C1488.06,1513.6 1491.16,1510.6 1494.56,1507.9ZM1595.46,1488.5C1597.89,1488.5 1599.86,1490.47 1599.86,1492.9C1599.86,1495.33 1597.89,1497.3 1595.46,1497.3C1593.03,1497.3 1591.06,1495.33 1591.06,1492.9C1591.06,1490.47 1593.03,1488.5 1595.46,1488.5ZM1526.56,1486.9C1528.99,1486.9 1530.96,1488.87 1530.96,1491.3C1530.96,1493.73 1528.99,1495.7 1526.56,1495.7C1524.13,1495.7 1522.16,1493.73 1522.16,1491.3C1522.16,1488.87 1524.13,1486.9 1526.56,1486.9Z" style="fill:rgb(250,250,250);fill-opacity:0.596478;fill-rule:nonzero;"/>
            </g>
            <g transform="matrix(1.29998,0,0,1.52628,-357.483,-892.576)">
                <path d="M835.257,1725.3C834.357,1724.7 832.557,1723.7 830.257,1722.5C823.757,1725.6 816.957,1728 809.957,1729.6C813.957,1731.5 819.857,1734.6 819.857,1734.6C814.957,1734.7 809.957,1734.6 805.057,1734.1C802.857,1734.5 795.857,1732.3 793.857,1732.5C786.957,1733.1 780.157,1733 773.257,1732.2C778.957,1736.5 785.157,1739.8 791.857,1742.1C808.757,1747.6 813.757,1747.5 824.257,1746.8C834.757,1746.1 852.357,1742.5 852.357,1742.5C852.357,1742.5 843.857,1731 835.257,1725.3ZM794.857,1725.2C811.557,1721.4 815.657,1718.8 823.857,1712.7C832.057,1706.6 844.857,1694.2 844.857,1694.2C844.857,1694.2 823.357,1688.8 818.857,1688.5C814.357,1688.2 796.257,1689.5 787.657,1693C780.057,1696.2 771.457,1702.9 766.357,1707.2L766.357,1713.1C772.457,1711.5 780.557,1709.1 784.457,1708.2C794.657,1705.9 810.857,1704.1 810.857,1704.1C810.857,1704.1 796.857,1711.1 787.057,1714.7C782.657,1716.3 773.057,1718 766.457,1719.4L766.457,1723.8C775.557,1726.7 785.357,1727.2 794.857,1725.2ZM842.357,1711.9C839.357,1714.5 839.057,1719.1 841.757,1722.1C844.357,1725.1 848.957,1725.4 851.957,1722.7C854.957,1720.1 855.257,1715.5 852.557,1712.5C852.457,1712.4 852.357,1712.3 852.257,1712.2C849.557,1709.4 845.157,1709.3 842.357,1711.9ZM911.357,1671.9C906.057,1676.9 900.357,1681.3 894.157,1685.1C898.557,1685.7 905.057,1686.8 905.057,1686.8C900.457,1688.5 895.657,1689.9 890.857,1691C888.857,1692.1 881.557,1692.2 879.757,1693C873.457,1695.7 866.857,1697.8 860.157,1699.2C866.757,1701.5 873.757,1702.6 880.757,1702.7C898.457,1702.6 903.257,1701 912.957,1696.9C922.657,1692.8 938.357,1683.9 938.357,1683.9C938.357,1683.9 926.857,1675.9 916.857,1673.1C915.157,1672.6 913.257,1672.2 911.357,1671.9ZM811.457,1676.7C812.257,1675.1 812.957,1673.4 813.557,1671.7C816.557,1662.3 815.957,1648.6 815.957,1648.6C815.957,1648.6 799.657,1655.6 790.757,1660.9C781.857,1666.2 777.857,1668.9 768.157,1682.7C767.557,1683.6 766.957,1684.5 766.357,1685.4L766.357,1695.5C769.357,1693.1 772.657,1691 775.957,1689.1C777.657,1688.2 781.757,1682.5 783.757,1681.6C787.357,1678.5 791.157,1675.6 795.157,1673C795.157,1673 792.557,1678.8 790.657,1682.5C797.357,1679.8 804.257,1677.9 811.457,1676.7ZM845.557,1691.7C843.557,1693 848.557,1693.3 848.557,1693.3C859.057,1693.7 869.457,1691.1 878.557,1685.7C893.357,1676.8 896.357,1673 902.357,1664.6C908.357,1656.2 916.757,1640.3 916.757,1640.3C916.757,1640.3 894.757,1641.9 890.257,1643C885.757,1644.1 869.057,1651.1 861.957,1657.2C852.257,1665.6 842.957,1682.8 842.957,1682.8C842.957,1682.8 840.657,1687.6 842.957,1686.2C847.757,1683.5 858.857,1675.6 863.557,1672.8C872.557,1667.4 887.357,1660.6 887.357,1660.6C887.357,1660.6 876.157,1671.7 867.957,1678.2C863.157,1682 850.257,1688.6 845.557,1691.7ZM821.817,1669.86C821.838,1669.78 821.857,1669.69 821.857,1669.6C822.457,1666.1 825.857,1663.7 829.357,1664.4C833.257,1665 835.957,1668.5 835.657,1672.4C835.657,1672.49 835.638,1672.58 835.617,1672.66L835.598,1672.74C835.577,1672.83 835.557,1672.91 835.557,1673C834.957,1676.5 831.557,1678.9 828.057,1678.2C824.157,1677.6 821.457,1674.1 821.757,1670.2C821.757,1670.11 821.777,1670.03 821.798,1669.94L821.817,1669.86ZM849.757,1657.2C851.057,1655.8 853.357,1649.1 854.957,1647.6C857.457,1643.5 860.157,1639.5 863.157,1635.8C863.157,1635.8 862.457,1642.1 861.757,1646.3C867.357,1641.7 873.357,1637.6 879.857,1634.2C880.157,1632.4 880.257,1630.6 880.357,1628.8C880.357,1618.8 875.657,1606 875.657,1606C875.657,1606 862.257,1617.9 855.457,1625.7C848.657,1633.5 845.657,1637.4 840.557,1653.7C838.657,1660.2 837.757,1666.9 838.157,1673.6C841.257,1667.6 845.257,1662.2 849.757,1657.2ZM923.057,1667.3C926.457,1668.8 930.557,1667.3 932.057,1663.9C933.557,1660.5 932.057,1656.4 928.657,1654.9C925.357,1653.4 921.457,1654.8 919.857,1658C918.057,1661.5 919.557,1665.7 923.057,1667.3ZM985.857,1591.9C983.957,1592.2 982.157,1592.6 980.257,1593.1C977.357,1599.8 973.857,1606.1 969.657,1612C973.957,1610.8 980.357,1609.2 980.357,1609.2C976.757,1612.6 972.957,1615.7 968.957,1618.6C967.557,1620.4 960.857,1623.3 959.557,1624.8C954.757,1629.8 949.557,1634.3 943.957,1638.2C950.957,1637.7 957.857,1636 964.257,1633.3C980.457,1626.3 984.257,1622.9 991.657,1615.3C999.057,1607.7 1009.96,1593.3 1009.96,1593.3C1009.96,1593.3 996.157,1590.6 985.857,1591.9ZM955.557,1618.7C965.657,1604.7 966.957,1600 969.157,1589.9C971.357,1579.8 972.857,1561.9 972.857,1561.9C972.857,1561.9 953.257,1572 949.557,1574.8C945.857,1577.6 933.257,1590.6 929.157,1599C923.557,1610.5 921.757,1630 921.757,1630C921.757,1630 921.557,1635.3 923.157,1633.1C926.457,1628.8 933.557,1617.2 936.757,1612.7C942.957,1604.2 953.857,1592.1 953.857,1592.1C953.857,1592.1 947.957,1606.7 942.957,1615.9C940.057,1621.3 930.857,1632.4 927.757,1637.1C926.457,1639.1 931.157,1637.3 931.157,1637.3C940.857,1633.7 949.357,1627.2 955.557,1618.7ZM893.157,1616.8C889.557,1617.3 887.057,1620.7 887.557,1624.2C887.557,1624.3 887.557,1624.5 887.657,1624.6C888.557,1628.4 892.157,1630.9 896.057,1630.3C899.657,1629.8 902.157,1626.4 901.657,1622.8C901.657,1622.7 901.657,1622.5 901.557,1622.4C900.657,1618.7 896.957,1616.2 893.157,1616.8ZM918.757,1592.9C919.357,1588.1 920.357,1583.4 921.657,1578.8C921.657,1578.8 923.457,1584.9 924.457,1589C927.757,1582.5 931.757,1576.4 936.357,1570.8C935.857,1569 935.357,1567.3 934.657,1565.6C930.757,1556.4 921.357,1546.5 921.357,1546.5C921.357,1546.5 913.657,1562.7 910.457,1572.5C907.257,1582.3 906.057,1587.1 907.757,1604.1C908.557,1610.8 910.457,1617.3 913.357,1623.4C914.157,1616.7 915.657,1610.2 917.757,1603.8C918.457,1601.9 917.857,1594.9 918.757,1592.9ZM990.557,1570.8C994.557,1571.3 997.357,1574.9 996.857,1578.8C996.357,1582.8 992.757,1585.6 988.857,1585.1C984.857,1584.6 982.057,1581 982.557,1577.1C982.857,1573.2 986.257,1570.4 990.157,1570.8L990.557,1570.8ZM941.857,1549.6C938.757,1551.5 937.757,1555.5 939.657,1558.6C939.757,1558.7 939.857,1558.9 939.857,1559C942.157,1562.1 946.457,1563 949.757,1560.9C952.857,1559 953.857,1555 951.957,1551.9C951.857,1551.8 951.757,1551.6 951.757,1551.5C949.557,1548.4 945.157,1547.6 941.857,1549.6ZM1003.56,1496.5C1002.66,1486.4 998.957,1469.2 998.957,1469.2C998.957,1469.2 984.357,1484.1 981.857,1487.7C979.357,1491.3 971.657,1507 970.357,1516.1C968.557,1528.4 972.457,1547.3 972.457,1547.3C972.457,1547.3 973.757,1552.3 974.557,1549.9C976.257,1544.9 979.457,1532 981.057,1527C984.157,1517.3 990.457,1502.9 990.457,1502.9C990.457,1502.9 989.257,1518.3 987.357,1528.3C986.257,1534.1 981.157,1547.2 979.757,1552.5C979.157,1554.7 982.857,1551.8 982.857,1551.8C990.657,1545.5 996.457,1537 999.457,1527.4C1004.56,1511.4 1004.46,1506.6 1003.56,1496.5ZM1014.46,1496.5C1013.76,1503.5 1012.36,1510.5 1010.26,1517.2C1013.76,1514.9 1019.06,1511.7 1019.06,1511.7C1016.86,1515.9 1014.26,1519.9 1011.56,1523.7C1010.76,1525.7 1005.66,1530.4 1004.86,1532.1C1001.96,1538 998.557,1543.7 994.657,1549C1000.76,1546.6 1006.46,1543.1 1011.46,1538.8C1023.96,1527.7 1026.36,1523.5 1030.86,1514.4C1035.36,1505.3 1040.96,1488.7 1040.96,1488.7C1040.96,1488.7 1027.86,1489.8 1019.06,1493.9C1018.16,1494.3 1016.46,1495.2 1014.46,1496.5ZM968.957,1487.5C968.057,1486 967.057,1484.5 965.957,1483.1C959.957,1475.6 948.657,1468.7 948.657,1468.7C948.657,1468.7 946.357,1486 946.257,1496.2C946.157,1506.4 946.457,1511.2 952.757,1526.7C955.257,1532.8 958.857,1538.4 963.257,1543.3C962.157,1536.8 961.557,1530.2 961.757,1523.6C961.857,1521.6 959.357,1515.2 959.557,1513.1C958.757,1508.4 958.357,1503.7 958.157,1499C958.157,1499 961.457,1504.2 963.557,1507.9C964.557,1501 966.457,1494.1 968.957,1487.5ZM1019.86,1485.8C1023.46,1485 1025.66,1481.4 1024.86,1477.8C1024.06,1474.2 1020.46,1472 1016.86,1472.8C1013.26,1473.6 1011.06,1477.2 1011.86,1480.8C1012.76,1484.4 1016.36,1486.6 1019.86,1485.8L1019.86,1485.8ZM978.157,1474.6C980.457,1471.8 980.057,1467.5 977.257,1465.2C974.457,1462.9 970.157,1463.3 967.857,1466.1C965.557,1468.9 965.957,1473.2 968.757,1475.5C971.657,1477.8 975.857,1477.4 978.157,1474.6ZM995.557,1447C996.957,1452.9 998.657,1460.1 999.157,1463.7C999.457,1466.3 996.057,1462.4 996.057,1462.4C992.157,1457.5 988.557,1452.4 985.257,1447L995.557,1447ZM1011.16,1447C1010.66,1452 1009.36,1456.9 1007.36,1461.5C1007.36,1461.5 1005.46,1465.8 1004.86,1463.5C1004.16,1460.1 1003.16,1453.1 1002.16,1447L1011.16,1447ZM975.757,1447C978.657,1452.7 982.057,1458.1 986.057,1463.2C979.857,1460.9 974.157,1457.6 969.057,1453.4C966.157,1451 963.858,1448.9 961.857,1447L975.757,1447ZM1021.46,1447C1019.96,1449.3 1018.36,1451.5 1016.56,1453.6C1016.76,1451.6 1017.06,1449.3 1017.36,1447L1021.46,1447Z" style="fill:rgb(250,250,250);fill-opacity:0.398086;fill-rule:nonzero;"/>
            </g>
        </g>
    </g>
</svg>
