<?xml version="1.0" encoding="utf-8"?>
<!-- Generator: Adobe Illustrator 18.1.0, SVG Export Plug-In . SVG Version: 6.00 Build 0)  -->
<svg version="1.1" id="Слой_1" xmlns="http://www.w3.org/2000/svg" xmlns:xlink="http://www.w3.org/1999/xlink" x="0px" y="0px"
	 viewBox="0 0 55 55" enable-background="new 0 0 55 55" xml:space="preserve">
<path fill="#FFFFFF" d="M21.8,17.7c0-0.1,0-0.7,0.7-1.1c0.6-0.4,3.8-1.2,5.4-1.5L26,40.9h-0.3L21.8,17.7z M28.8,42.7l1.3,2.3h-6.2
	l1.3-2.3c0.1-0.1,0.2-0.2,0.3-0.2h3C28.6,42.6,28.7,42.6,28.8,42.7z M28.6,42h-3.1v-0.6h3.1V42z M33.2,13.3
	c-0.3,1.8-4.5,25.2-4.9,27.6h-1.8l1.9-26.5l0.4-5.3c1.3,0.1,2.8,0.8,3.7,2C33,11.9,33.3,12.7,33.2,13.3z"/>
<circle fill="none" stroke="#FFFFFF" stroke-miterlimit="10" cx="27.5" cy="27.5" r="27"/>
</svg>
