<?xml version="1.0" encoding="UTF-8" standalone="no"?>
<!DOCTYPE svg PUBLIC "-//W3C//DTD SVG 1.1//EN" "http://www.w3.org/Graphics/SVG/1.1/DTD/svg11.dtd">
<svg width="100%" height="100%" viewBox="0 0 386 386" version="1.1" xmlns="http://www.w3.org/2000/svg" xmlns:xlink="http://www.w3.org/1999/xlink" xml:space="preserve" style="fill-rule:evenodd;clip-rule:evenodd;stroke-linejoin:round;stroke-miterlimit:1.41421;">
    <g id="Artboard1" transform="matrix(1.36487,0,0,1.36435,0,0)">
        <rect x="0" y="0" width="282.292" height="282.292" style="fill:none;"/>
        <clipPath id="_clip1">
            <rect x="0" y="0" width="282.292" height="282.292"/>
        </clipPath>
        <g clip-path="url(#_clip1)">
            <g transform="matrix(0.73267,0,0,0.732947,58.6136,0)">
                <g transform="matrix(4.16667,0,0,4.16667,-3271.44,0)">
                    <path d="M820.355,26.427C819.927,29.014 813.878,62.687 813.267,66.097L810.715,66.097L813.433,28.033L813.976,20.447C815.915,20.552 817.969,21.649 819.279,23.301C820.116,24.358 820.508,25.496 820.355,26.427ZM813.698,67.682L809.246,67.682L809.246,66.775L813.698,66.775L813.698,67.682ZM814.04,68.703L815.924,72.066L807.019,72.066L808.904,68.703C808.987,68.558 809.136,68.466 809.299,68.466L813.647,68.466C813.807,68.466 813.957,68.558 814.04,68.703ZM803.971,32.702C803.974,32.56 804.022,31.734 804.929,31.107C805.766,30.528 810.453,29.394 812.733,28.879L810.076,66.097L809.629,66.097L803.971,32.702Z" style="fill:#a89d74;fill-rule:nonzero;"/>
                </g>
                <g transform="matrix(4.16667,0,0,4.16667,-3271.44,0)">
                    <path d="M857.395,46.256L856.395,46.256C856.395,58.469 851.448,69.517 843.445,77.522C835.44,85.525 824.393,90.471 812.179,90.472C799.966,90.471 788.919,85.525 780.914,77.522C772.911,69.517 767.964,58.469 767.964,46.256C767.964,34.043 772.911,22.996 780.914,14.991C788.919,6.988 799.966,2.041 812.179,2.04C824.393,2.041 835.44,6.988 843.445,14.991C851.448,22.996 856.395,34.043 856.395,46.256L858.395,46.256C858.395,20.732 837.705,0.041 812.179,0.04C786.655,0.041 765.964,20.732 765.964,46.256C765.964,71.781 786.655,92.471 812.179,92.472C837.705,92.471 858.395,71.781 858.395,46.256L857.395,46.256Z" style="fill:#a89d74;fill-rule:nonzero;"/>
                </g>
            </g>
        </g>
    </g>
</svg>
